<svg width="32" height="32" viewBox="0 0 32 32" fill="none" xmlns="http://www.w3.org/2000/svg">
<path d="M12.0002 13.3333H2.66683C2.31321 13.3333 1.97407 13.1929 1.72402 12.9428C1.47397 12.6928 1.3335 12.3536 1.3335 12V2.66668C1.3335 2.31305 1.47397 1.97392 1.72402 1.72387C1.97407 1.47382 2.31321 1.33334 2.66683 1.33334H12.0002C12.3538 1.33334 12.6929 1.47382 12.943 1.72387C13.193 1.97392 13.3335 2.31305 13.3335 2.66668V12C13.3335 12.3536 13.193 12.6928 12.943 12.9428C12.6929 13.1929 12.3538 13.3333 12.0002 13.3333Z" fill="#8C30F5"/>
<path d="M12.0002 30.6667H2.66683C2.31321 30.6667 1.97407 30.5262 1.72402 30.2762C1.47397 30.0261 1.3335 29.687 1.3335 29.3334V20C1.3335 19.6464 1.47397 19.3073 1.72402 19.0572C1.97407 18.8072 2.31321 18.6667 2.66683 18.6667H12.0002C12.3538 18.6667 12.6929 18.8072 12.943 19.0572C13.193 19.3073 13.3335 19.6464 13.3335 20V29.3334C13.3335 29.687 13.193 30.0261 12.943 30.2762C12.6929 30.5262 12.3538 30.6667 12.0002 30.6667Z" fill="#8C30F5"/>
<path d="M17.3335 2.66669H30.6668V5.33335H17.3335V2.66669Z" fill="#2EC5CE"/>
<path d="M30.6668 20H17.3335V22.6667H30.6668V20Z" fill="#2EC5CE"/>
<path d="M30.6668 26.6667H17.3335V29.3334H30.6668V26.6667Z" fill="#D6B1FF"/>
<path d="M30.6668 9.33334H17.3335V12H30.6668V9.33334Z" fill="#D6B1FF"/>
</svg>
