<svg width="32" height="32" viewBox="0 0 32 32" fill="none" xmlns="http://www.w3.org/2000/svg">
<path d="M6.66683 1.33334H2.66683C2.31321 1.33334 1.97407 1.47382 1.72402 1.72387C1.47397 1.97392 1.3335 2.31305 1.3335 2.66668V29.3333C1.3335 29.687 1.47397 30.0261 1.72402 30.2762C1.97407 30.5262 2.31321 30.6667 2.66683 30.6667H6.66683V1.33334Z" fill="#D6B1FF"/>
<path d="M9.3335 30.6667H22.6668V1.33334H9.3335V30.6667ZM16.0002 25.3333C15.6465 25.3333 15.3074 25.1929 15.0574 24.9428C14.8073 24.6928 14.6668 24.3536 14.6668 24C14.6668 23.6464 14.8073 23.3072 15.0574 23.0572C15.3074 22.8072 15.6465 22.6667 16.0002 22.6667C16.3538 22.6667 16.6929 22.8072 16.943 23.0572C17.193 23.3072 17.3335 23.6464 17.3335 24C17.3335 24.3536 17.193 24.6928 16.943 24.9428C16.6929 25.1929 16.3538 25.3333 16.0002 25.3333ZM16.0002 6.66668C16.3538 6.66668 16.6929 6.80715 16.943 7.0572C17.193 7.30725 17.3335 7.64639 17.3335 8.00001C17.3335 8.35363 17.193 8.69277 16.943 8.94282C16.6929 9.19287 16.3538 9.33334 16.0002 9.33334C15.6465 9.33334 15.3074 9.19287 15.0574 8.94282C14.8073 8.69277 14.6668 8.35363 14.6668 8.00001C14.6668 7.64639 14.8073 7.30725 15.0574 7.0572C15.3074 6.80715 15.6465 6.66668 16.0002 6.66668ZM16.0002 14.6667C16.3538 14.6667 16.6929 14.8072 16.943 15.0572C17.193 15.3072 17.3335 15.6464 17.3335 16C17.3335 16.3536 17.193 16.6928 16.943 16.9428C16.6929 17.1929 16.3538 17.3333 16.0002 17.3333C15.6465 17.3333 15.3074 17.1929 15.0574 16.9428C14.8073 16.6928 14.6668 16.3536 14.6668 16C14.6668 15.6464 14.8073 15.3072 15.0574 15.0572C15.3074 14.8072 15.6465 14.6667 16.0002 14.6667Z" fill="#8C30F5"/>
<path d="M29.3335 1.33334H25.3335V30.6667H29.3335C29.6871 30.6667 30.0263 30.5262 30.2763 30.2762C30.5264 30.0261 30.6668 29.687 30.6668 29.3333V2.66668C30.6668 2.31305 30.5264 1.97392 30.2763 1.72387C30.0263 1.47382 29.6871 1.33334 29.3335 1.33334Z" fill="#2EC5CE"/>
</svg>
