<svg width="761" height="411" viewBox="0 0 761 411" fill="none" xmlns="http://www.w3.org/2000/svg">
<path d="M761 399.428C761 399.428 590.643 410.391 380.5 410.391C170.356 410.391 0 410.559 0 399.428C0 388.296 170.356 379.271 380.5 379.271C590.643 379.271 761 399.428 761 399.428Z" fill="#D8D3E4"/>
<path d="M363.554 86.1409H387.741V57.3882H363.554V86.1409Z" fill="#F0A68B"/>
<path d="M387.741 57.3882V66.2308C381.725 71.0957 373.596 74.3789 363.554 75.0733V57.3882H387.741Z" fill="#D16652"/>
<path d="M388.406 53.5082C389.481 53.8077 390.659 53.5814 391.658 53.089C392.655 52.5987 393.496 51.86 394.289 51.0991C396.378 49.0848 398.322 46.5492 398.176 43.7074C398.125 42.7557 397.803 41.7707 397.059 41.1429C396.173 40.3953 394.824 40.3066 393.729 40.7237C392.635 41.1429 391.774 42.0014 391.137 42.9554L388.406 53.5082Z" fill="#F0A68B"/>
<path d="M362.259 53.5082C361.183 53.8077 360.004 53.5814 359.007 53.089C358.011 52.5987 357.169 51.86 356.377 51.0991C354.286 49.0848 352.341 46.5492 352.49 43.7074C352.539 42.7557 352.861 41.7707 353.604 41.1429C354.49 40.3953 355.84 40.3066 356.936 40.7237C358.031 41.1429 358.892 42.0014 359.527 42.9554L362.259 53.5082Z" fill="#F0A68B"/>
<path d="M392.68 54.8835C393.508 45.99 395.83 40.8056 397.264 35.6678C398.287 31.8167 399.324 25.2413 394.846 19.4424C390.42 13.4195 379.312 9.99648 369.143 12.876C358.901 15.7621 353.218 21.7451 354.459 28.5578C355.085 32.6375 355.673 38.2789 356.355 42.4872C356.921 45.9856 355.855 49.4928 357.149 52.9003C359.56 58.7657 368.877 69.0502 376.213 69.0502C382.211 69.0502 392.109 58.7635 392.68 54.8835Z" fill="#F0A68B"/>
<path d="M376.81 47.3278C376.677 47.3278 376.524 47.2457 376.395 47.0616C376.309 46.9374 376.244 46.7666 376.22 46.5714C376.2 46.3784 376.22 46.1632 376.291 45.9524C376.366 45.7439 376.486 45.5642 376.624 45.4289C376.764 45.2936 376.919 45.2026 377.063 45.1627C377.137 45.1427 377.203 45.1339 377.265 45.1339C377.454 45.1339 377.587 45.2226 377.636 45.3424C377.707 45.5088 377.669 45.6973 377.64 45.8726C377.605 46.0478 377.565 46.2164 377.501 46.3939C377.441 46.5736 377.367 46.7289 377.283 46.8864C377.196 47.0416 377.105 47.2103 376.948 47.2923C376.908 47.3145 376.859 47.3278 376.81 47.3278Z" fill="#F6CBB9"/>
<path d="M375.639 46.9972C375.61 46.8752 375.585 46.7665 375.565 46.6689C375.55 46.5713 375.532 46.4869 375.521 46.4004C375.51 46.3117 375.503 46.2119 375.508 46.0987C375.51 45.9834 375.523 45.8592 375.541 45.7305C375.574 45.4732 375.614 45.207 375.599 44.9851C375.588 44.7588 375.526 44.5747 375.397 44.4638C375.27 44.3506 375.146 44.3528 375.011 44.446C374.875 44.5392 374.724 44.7255 374.571 44.9984C374.42 45.2691 374.258 45.644 374.218 46.0943C374.196 46.3184 374.216 46.5557 374.265 46.7776C374.313 47.0016 374.396 47.2124 374.491 47.4121C374.587 47.6139 374.698 47.7914 374.813 47.9556C374.931 48.1175 375.053 48.2639 375.173 48.3926C375.41 48.6477 375.637 48.8451 375.825 48.9937C376.205 49.2866 376.434 49.3931 376.558 49.1912C376.675 49.0004 376.664 48.7675 376.458 48.4281C376.358 48.2572 376.212 48.062 376.047 47.8269C375.967 47.7093 375.883 47.5806 375.81 47.4409C375.739 47.3055 375.677 47.1547 375.639 46.9972Z" fill="#D16652"/>
<path d="M381.887 37.8707C382.877 37.6444 383.909 37.6001 384.917 37.731C385.927 37.8619 386.917 38.1702 387.827 38.645C388.733 39.1264 388.331 40.0448 387.427 39.8274C386.528 39.6033 385.634 39.4347 384.735 39.3149C383.836 39.1974 382.93 39.133 382.004 39.1175C381.079 39.0953 380.899 38.1059 381.887 37.8707Z" fill="#1B1918"/>
<path d="M369.641 37.7908C368.646 37.5845 367.614 37.5623 366.608 37.7154C365.6 37.8662 364.617 38.1946 363.718 38.6915C362.821 39.1906 363.241 40.1002 364.14 39.8628C365.034 39.621 365.925 39.4324 366.821 39.2949C367.72 39.1574 368.624 39.0731 369.547 39.0376C370.473 38.9954 370.633 38.0038 369.641 37.7908Z" fill="#1B1918"/>
<path d="M368.693 45.3668L368.679 43.002C368.675 41.8639 367.738 40.9388 366.599 40.9455C365.461 40.9522 364.535 41.8883 364.542 43.0263L364.555 45.389C364.562 46.527 368.699 46.5026 368.693 45.3668Z" fill="#1B1918"/>
<path d="M382.917 45.3668L382.93 43.002C382.937 41.8639 383.871 40.9388 385.01 40.9455C386.149 40.9522 387.075 41.8883 387.068 43.0263L387.055 45.389C387.05 46.527 382.91 46.5026 382.917 45.3668Z" fill="#1B1918"/>
<path d="M371.361 54.389C374.894 55.8687 379.097 55.2253 382.084 52.8605C382.546 52.4945 381.896 51.8511 381.439 52.2127C378.693 54.3845 374.815 54.8526 371.602 53.5083C371.374 53.4106 371.101 53.6103 371.041 53.8277C370.965 54.0895 371.132 54.2958 371.361 54.389Z" fill="#A12C35"/>
<path d="M421.36 87.9423C424.002 89.9987 428.55 94.2381 428.821 96.5097C429.092 98.7792 437.736 159.133 438.275 163.04C439.358 170.875 414.361 162.831 413.417 157.722C412.472 152.613 402.03 115.402 402.03 115.402L412.117 85.8547C412.117 85.8547 418.574 85.7705 421.36 87.9423Z" fill="#262335"/>
<path d="M407.708 176.72C414.047 215.618 408.562 287.301 406.917 297.849C405.257 308.518 383.21 290.901 382.497 280.144C382.242 276.278 383.259 272.431 383.265 268.558C383.272 265.135 381.774 261.845 381.716 258.411C381.223 228.425 375.312 224.214 371.021 205.721L364.08 176.72H407.708Z" fill="#211F2D"/>
<path d="M342.539 400.557C347.229 398.316 351.365 395.951 352.526 393.542L353.045 372.236C353.227 370.653 353.569 368.718 352.022 368.503L344.981 367.531C343.6 367.34 342.31 368.208 341.944 369.574C341.16 372.509 338.403 382.226 338.403 382.226C333.822 386.74 329.24 391.257 324.658 395.772C323.26 397.149 321.773 398.556 321.637 400.557C321.633 400.621 342.539 400.557 342.539 400.557Z" fill="#B1B1B0"/>
<path d="M352.907 377.867C352.463 377.798 354.055 389.252 348.832 390.106C348.497 390.157 348.159 390.184 347.82 390.19L347.407 385.354C347.407 385.354 339.986 381.929 334.427 382.362L333.142 385.001L317.335 393.693C316.027 394.982 314.052 396.93 313.868 399.618C313.843 399.996 314.01 400.426 314.32 400.885H354.266C354.266 400.885 353.351 377.934 352.907 377.867Z" fill="#1B1918"/>
<path d="M422.248 400.481C422.248 400.481 421.289 397.107 420.228 395.716L409.784 382.042C409.784 382.042 408.47 373.195 408.114 370.526C407.948 369.286 406.925 368.355 405.701 368.335L399.471 368.228C398.099 368.206 396.971 369.328 396.953 370.735L396.241 389.999C397.453 393.684 398.869 396.899 400.469 400.424L422.248 400.481Z" fill="#B1B1B0"/>
<path d="M421.267 394.882L414.201 385.629L413.227 382.699C408.439 381.57 401.606 383.551 401.606 383.551L400.707 387.712C400.414 387.661 400.123 387.593 399.837 387.502C395.39 386.051 396.816 378.435 396.423 378.435C396.028 378.433 391.368 400.885 391.368 400.885H423.587C423.602 400.763 423.615 400.641 423.622 400.519C423.762 398.15 422.261 396.182 421.267 394.882Z" fill="#1B1918"/>
<path d="M344.259 174.502C337.779 213.399 340.982 285.082 342.663 295.631C344.361 306.299 366.889 288.683 367.618 277.926C367.879 274.059 366.841 270.212 366.832 266.339C366.825 262.916 367.622 259.538 368.417 256.192C372.799 237.7 382.055 219.207 386.439 200.714V174.502H344.259Z" fill="#211F2D"/>
<path d="M338.618 375.178C338.343 359.858 338.605 344.536 338.865 329.215C338.996 321.52 339.127 313.822 339.258 306.126C339.444 295.283 340.077 284.297 344.072 274.068C345.264 271.016 364.463 263.138 366.832 266.339C366.832 266.339 368.432 281.427 369.434 288.262C370.091 292.758 369.196 297.31 368.304 301.774C363.458 326.036 360.925 350.916 356.079 375.178H338.618Z" fill="#211F2D"/>
<path d="M411.262 376.412C411.53 361.094 410.891 346.754 410.634 331.434C410.507 323.738 410.378 316.04 410.25 308.344C410.07 297.501 409.448 286.515 405.539 276.286C404.372 273.234 385.585 265.356 383.266 268.557C383.266 268.557 381.703 283.647 380.722 290.48C380.078 294.976 380.953 299.529 381.825 303.992C386.569 328.255 388.828 352.213 393.57 376.476L411.262 376.412Z" fill="#211F2D"/>
<path d="M358.716 190.681C357.999 190.681 357.52 190.678 357.327 190.676C353.726 190.632 343.007 187.519 341.453 185.097C345.446 164.47 343.015 152.038 340.665 140.012C339.344 133.246 337.837 118.589 337.837 118.589C336.394 115.883 334.727 95.6423 335.956 87.2967L362.485 76.1515L374.772 79.8251H377.249L389.536 76.1515L416.067 87.2967C417.297 95.6423 415.63 115.883 414.185 118.589C414.185 118.589 412.325 133.599 410.631 140.425C407.767 151.979 404.804 163.925 408.822 184.349L408.839 184.44C408.04 185.645 402.076 188.733 399.166 189.192C389.825 190.665 359.981 190.681 358.716 190.681Z" fill="#D3D8EC"/>
<path d="M380.679 91.1611L385.314 86.6689L382.56 79.1418L376.011 78.5606L369.465 79.1418L366.708 86.6689L371.343 91.1611L364.08 161.751L376.011 175.693L387.943 161.751L380.679 91.1611Z" fill="#8796CE"/>
<path d="M388.766 70.0774L376.011 78.5606L380.679 79.5145L384.422 98.8701L396.866 79.2949L388.766 70.0774Z" fill="#EBEEF6"/>
<path d="M363.256 70.0774L376.011 78.5606L371.343 79.5145L367.6 98.8701L355.156 79.2949L363.256 70.0774Z" fill="#EBEEF6"/>
<path d="M330.816 87.5984C328.174 89.657 323.626 93.8941 323.355 96.1658C323.084 98.4374 317.271 146.461 315.763 159.643C314.827 172.35 338.892 172.494 340.372 168.985C341.855 165.475 350.146 115.06 350.146 115.06L340.059 85.5131C340.059 85.5131 333.602 85.4265 330.816 87.5984Z" fill="#262335"/>
<path d="M419.22 86.8552L394.864 77.0166L387.386 134.722L386.44 206.456C395.783 212.822 413.013 210.631 414.902 208.237C416.794 205.841 413.708 189.775 413.308 186.687C409.078 154.037 415.304 119.186 415.304 119.186C415.304 119.186 420.66 94.766 419.22 86.8552Z" fill="#262335"/>
<path d="M365.584 134.234L357.16 77.0167L333.468 86.3472C332.028 94.2603 336.72 119.186 336.72 119.186C336.72 119.186 344.962 153.469 339.679 185.634C339.448 188.44 336.17 205.977 337.53 207.929C338.893 209.879 359.242 214.369 367.527 208.889L365.584 134.234Z" fill="#262335"/>
<path d="M391.288 33.7201C390.387 33.6647 389.488 33.4406 388.695 33.079C386.553 32.1029 384.2 31.4529 383.021 29.5828C381.439 27.0738 382.975 23.5865 380.695 22.8988C377.081 21.8051 369.898 25.1748 366.69 23.3291C366.011 22.9387 365.445 22.4041 365.023 21.7896C364.253 22.8788 363.121 23.8438 362.024 24.7001C360.048 26.2419 357.871 28.0166 357.74 30.357C357.658 31.7968 358.386 33.1589 358.783 34.5542C359.533 37.2052 357.411 45.1338 357.411 45.1338C356.625 44.0579 354.403 40.0337 353.837 38.3255C353.18 36.3489 353.498 34.2126 353.009 32.1983C352.483 30.0332 351.054 28.1009 350.61 25.9224C350.106 23.4378 351.043 20.7713 352.976 18.9412C352.827 17.7344 352.783 16.5187 352.921 15.3074C353.214 12.7296 354.426 10.1385 356.714 8.5435C358.743 7.12815 361.698 6.68891 363.982 7.66723C367.986 4.22205 372.692 1.08748 378.069 1.62655C382.91 2.11238 386.688 5.47989 391.146 7.23464C393.756 8.26398 396.602 8.73429 399.239 9.70374C401.876 10.6754 404.429 12.3148 405.319 14.7351C405.768 15.9574 405.601 17.3705 404.964 18.5152C405.726 19.0565 406.312 19.8463 406.518 20.6937C406.978 22.5638 406.125 24.4849 405.113 26.1731C404.101 27.8591 399.728 30.1152 399.384 32.0053C398.997 34.1394 395.213 45.1338 395.213 45.1338L392.638 33.6735C392.198 33.7357 391.743 33.749 391.288 33.7201Z" fill="#271B1A"/>
<path d="M431.56 167.19C431.8 165.593 426.45 150.177 420.101 147.981C413.753 145.787 353.36 139.504 353.36 139.504C353.36 139.504 350.235 144.742 351.307 148.806C351.307 148.806 395.91 163.874 401.806 165.686C407.704 167.498 431.32 168.787 431.56 167.19Z" fill="#F0A68B"/>
<path d="M355.949 140.31C355.949 140.31 343.784 135.418 343 135.014V152.693L354.199 148.917L355.949 140.31Z" fill="#F0A68B"/>
<path d="M362.91 137.126L359.045 155.011C359.045 155.011 399.368 167.481 415.921 170.948C432.476 174.413 439.464 168.193 438.057 162.54C436.652 156.89 431.866 148.516 421.608 146.009C411.353 143.502 362.91 137.126 362.91 137.126Z" fill="#262335"/>
<path d="M324.365 167.838C324.425 166.223 329.61 147.985 336.256 147.007C342.903 146.027 410.689 156.025 410.689 156.025C410.689 156.025 407.666 165.335 405.188 166.34C405.188 166.34 371.212 167.627 359.125 169.111C353 169.861 324.303 169.453 324.365 167.838Z" fill="#F0A68B"/>
<path d="M400.03 165.22C403.704 167.221 407.906 167.727 411.873 168.847C413.491 169.304 415.422 169.677 416.561 168.554C417.202 167.924 417.413 166.968 417.597 166.061C418.19 163.146 415.662 158.969 416.257 155.157C416.674 152.482 416.821 146.799 415.446 146.958C411.833 147.378 405.928 153.205 402.13 155.115C401.584 155.388 401.126 155.814 400.804 156.347C399.55 158.427 396.913 163.525 400.03 165.22Z" fill="#F0A68B"/>
<path d="M415.357 157.525C419.198 157.618 421.801 157.442 424.84 156.728C426.743 156.28 428.829 154.632 434.556 151.209C436.683 149.935 433.791 148.365 431.529 149.398C428.146 150.943 428.789 150.834 424.614 152.187C421.222 153.287 418.077 151.879 414.729 152.38C412.474 152.717 413.067 157.471 415.357 157.525Z" fill="#F0A68B"/>
<path d="M415.629 161.844C421.029 161.469 422.894 162.043 426.335 161.152C428.95 160.475 430.23 159.395 434.428 157.8C437.307 156.706 435.538 153.538 432.663 154.63C428.366 156.262 426.856 156.881 426.856 156.881C422.457 158.108 417.882 157.041 413.418 157.722C410.412 158.181 412.587 162.054 415.629 161.844Z" fill="#F0A68B"/>
<path d="M415.32 165.28C419.906 166.152 424.272 166.525 426.45 166.163C427.458 165.994 431.695 164.284 432.872 163.874C434.688 163.237 436.09 161.935 436.09 161.935C436.878 161.03 435.855 159.525 434.608 159.816C433.149 160.155 428.465 161.837 425.293 162.374C420.796 163.137 418.17 160.719 413.677 160.943C410.651 161.094 412.316 164.708 415.32 165.28Z" fill="#F0A68B"/>
<path d="M413.753 169.289C417.802 169.934 419.238 169.672 421.014 169.721C421.837 169.746 424.827 169.215 426.685 169.156C427.686 169.124 430.468 168.605 430.468 168.605C431.198 167.92 430.603 166.644 429.575 166.691C428.377 166.746 426.141 166.919 423.553 166.857C419.884 166.769 416.472 165.058 412.865 164.481C410.441 164.093 411.32 168.898 413.753 169.289Z" fill="#F0A68B"/>
<path d="M414.181 156.409C415.844 153.112 416.82 150.856 418.374 150.288C420.057 149.674 422.317 148.822 423.298 148.209C424.279 147.597 425.302 146.153 425.407 144.96C425.62 142.557 421.207 144.165 417.904 144.782C415.278 145.275 413.892 146.222 412.742 147.324C411.313 148.693 406.429 153.574 406.429 153.574L414.181 156.409Z" fill="#F0A68B"/>
<path d="M396.866 169.473L400.749 150.991C400.749 150.991 340.658 144.42 335.528 143.788C330.398 143.156 321.905 149.864 320.815 156.63C319.728 163.399 320.598 168.885 327.568 170.387C334.536 171.886 396.866 169.473 396.866 169.473Z" fill="#262335"/>
<path d="M179.324 192.952C179.324 192.952 176.794 194.696 173.735 192.373C173.735 192.373 173.924 148.136 174.851 144.11C175.779 140.081 182.068 135.491 185 138.114C187.575 140.419 189.635 143.092 189.382 148.902C189.131 154.714 179.324 192.952 179.324 192.952Z" fill="#F2A372"/>
<path d="M182.563 191.025C182.563 191.025 181.305 199.39 181.567 200.57C181.828 201.75 184.605 210.074 183.964 211.471C183.325 212.869 181.393 211.742 180.625 209.295C179.857 206.848 178.059 200.774 178.161 199.725C178.264 198.678 177.649 194.658 177.786 193.514C177.924 192.369 180.803 187.136 182.563 191.025Z" fill="#F2A372"/>
<path d="M178.61 194.297C179.833 195.719 179.218 201.03 179.504 201.458C179.793 201.886 183.094 207.361 184.008 209.315C184.921 211.272 182.918 211.529 181.154 209.484C179.391 207.441 177.011 203.436 176.698 202.673C176.385 201.91 174.046 195.75 173.748 194.124C173.451 192.498 176.847 192.254 178.61 194.297Z" fill="#F2A372"/>
<path d="M176.102 193.762C177.327 195.182 177.211 200.632 177.498 201.061C177.784 201.491 182.031 205.622 182.943 207.576C183.855 209.533 181.853 209.79 180.09 207.745C178.328 205.702 174.326 202.527 174.013 201.762C173.7 200.999 172.532 195.262 172.235 193.636C171.937 192.009 174.339 191.719 176.102 193.762Z" fill="#F2A372"/>
<path d="M183.467 191.213C183.509 191.994 182.843 193.638 181.939 195.282C181.356 195.164 180.77 195.064 180.186 194.976C178.017 194.645 175.853 194.456 173.684 194.082C173.202 193.999 172.718 193.904 172.237 193.798C171.593 189.567 172.721 179.791 178.53 182.06C178.53 182.06 183.369 189.443 183.467 191.213Z" fill="#F2A372"/>
<path d="M178.401 182.013C178.401 182.013 182.401 185.188 183.746 186.457C184.708 187.366 187.205 190.63 187.542 190.914C187.882 191.2 186.592 196.923 186.21 197.68C185.826 198.438 184.481 198.199 183.509 196.302C182.539 194.408 183.451 191.561 183.451 191.561C183.451 191.561 178.272 188.804 177.058 186.659C175.846 184.514 178.401 182.013 178.401 182.013Z" fill="#F2A372"/>
<path d="M238.518 33.1588C242.807 43.3036 243.215 64.1676 245.575 86.0477L240.593 85.919L237.182 36.1625L238.518 33.1588Z" fill="#A0361F"/>
<path d="M193.667 34.6252C190.861 55.3473 192.546 78.23 192.548 101.117C209.081 104.085 226.076 104.494 242.734 102.322C242.525 82.1522 240.922 61.998 237.941 42.048C237.941 42.048 232.654 26.3506 219.514 27.1026C206.378 27.8524 193.667 34.6252 193.667 34.6252Z" fill="#A0361F"/>
<path d="M267.656 147.768C269.019 146.213 271.203 141.157 271.074 138.284C270.945 135.409 258.703 104.263 258.703 104.263C258.703 104.263 244.432 108.8 243.926 114.878C243.926 114.878 257.174 145.552 258.281 146.532C260.754 148.724 266.217 149.414 267.656 147.768Z" fill="#F2A372"/>
<path d="M245.167 80.8567C247.902 82.0813 252.763 84.7899 253.484 86.7066C254.206 88.6233 263.813 111.493 267.946 122.625C264.563 129.313 257.158 130.347 249.844 132.026C244.248 123.951 241.866 115.592 238.723 106.288L236.536 80.9809C236.536 80.9809 242.281 79.5656 245.167 80.8567Z" fill="#262335"/>
<path d="M190.725 263.735C191.804 253.29 191.902 245.564 202.175 245.213C209.123 244.976 213.194 245.712 213.656 252.112C213.656 252.112 208.801 285.404 206.633 303.721C204.673 320.266 201.913 351.381 200.495 373.61L191.851 373.224C191.409 366.338 186.423 318.019 185.274 305.66C182.557 276.504 189.715 273.504 190.725 263.735Z" fill="#F2A372"/>
<path d="M212.34 260.516L224.778 191.466C224.778 191.466 211.872 188.203 205.35 186.326C184.654 180.37 194.521 251.542 194.546 257.601C194.584 266.951 209.445 268.788 212.34 260.516Z" fill="#F7967B"/>
<path d="M204.164 372.376C204.109 367.662 201.106 366.68 201.106 366.68L191.227 370.553C191.227 370.553 174.956 403.432 177.409 404.168L194.988 404.639C200.051 404.75 198.739 396.71 200.699 392.446L200.608 404.75H202.813L203.84 387.612C204.007 387.011 204.122 386.497 204.169 386.115C204.411 384.092 204.238 378.679 204.164 372.376Z" fill="#8F2C29"/>
<path d="M192.839 365.746C191.976 368.161 188.282 377.494 187.332 380.458C186.633 382.639 185.101 387.386 184.015 390.74C183.418 392.593 184.759 394.501 186.706 394.569L194.233 394.831L202.051 368.72C202.145 367.951 202.202 363.989 200.542 363.001C198.882 362.012 193.7 363.332 192.839 365.746Z" fill="#F2A372"/>
<path d="M223.712 261.266C223.712 258.164 224.289 251.349 234.565 250.999C241.51 250.762 244.289 253.477 244.751 259.877C244.751 259.877 247.561 272.154 251.373 288.982C254.918 304.638 238.189 338.295 241.151 369.799L232.507 369.415C232.065 362.529 230.64 329.122 229.488 316.763C226.773 287.607 223.712 261.266 223.712 261.266Z" fill="#F2A372"/>
<path d="M242.476 366.405C242.476 366.405 248.481 389.576 249.318 393.389C250.157 397.205 248.79 402.354 247.469 403.785C246.15 405.216 233.357 404.841 230.64 404.046C227.923 403.252 232.45 367.791 232.45 367.791L242.476 366.405Z" fill="#8F2C29"/>
<path d="M232.343 362.609C232.343 365.213 231.983 375.278 232.092 378.475C232.223 382.315 232.576 393.547 232.576 393.547C232.576 393.547 242.423 394.237 243.635 393.061C247.076 389.724 245.539 382.73 245.539 382.73L242.618 365.817C242.436 364.987 241.078 360.714 239.064 359.647C237.053 358.583 232.343 360.005 232.343 362.609Z" fill="#F2A372"/>
<path d="M224.296 265.472L223.712 195.313C223.712 195.313 236.982 194.277 243.728 193.527C265.134 191.153 241.348 256.166 241.608 262.22C241.93 269.749 225.747 274.112 224.296 265.472Z" fill="#F8BFB2"/>
<path d="M247.795 108.868C245.429 106.393 239.315 80.626 239.315 80.626H219H198.682C198.682 80.626 192.568 106.393 190.202 108.868C181.742 117.722 191.37 135.196 194.597 140.248C199.052 154.82 197.854 161.334 197.938 174.806C205.286 176.073 212.103 176.667 219 176.871C225.897 176.667 232.711 176.073 240.059 174.806C240.143 161.334 238.945 154.82 243.4 140.248C246.627 135.196 256.257 117.722 247.795 108.868Z" fill="#8796CE"/>
<path d="M254.243 268.881C256.976 244.364 254.341 197.979 253.42 189.609C252.496 181.239 244.178 169.466 239.99 160.877C224.102 160.905 214.437 159.552 199.158 163.902C195.096 170.879 188.532 178.284 185.984 187.229C183.435 196.176 184.743 241.79 182.294 267.806C201.034 271.215 248.447 272.511 254.243 268.881Z" fill="#8796CE"/>
<path d="M205.931 91.5892H229.894V63.1073H205.931V91.5892Z" fill="#F2A372"/>
<path d="M229.894 63.1072V71.8654C223.934 76.686 215.88 79.9404 205.931 80.6259V63.1072H229.894Z" fill="#C06332"/>
<path d="M206.453 83.1881C206.453 83.1881 203.174 87.8024 203.134 90.5244C203.105 92.4876 216.682 110.246 218.955 110.246C221.226 110.246 234.993 90.9481 235.324 89.6947C235.792 87.9289 234.78 86.0365 233.331 84.9229C231.879 83.8093 230.063 83.3101 228.296 82.8354L206.453 83.1881Z" fill="#F2A372"/>
<path d="M198.309 80.3575C198.309 80.3575 191.496 107.174 189.887 108.857C186.044 112.877 185.241 118.909 187.5 126.78C189.414 133.446 192.972 139.362 194.12 141.166C194.12 141.166 195.758 154.842 193.558 162.33C191.358 169.817 183.747 186.457 183.747 186.457C183.747 186.457 205.368 187.14 205.931 187.229C206.733 155.062 207.805 110.732 205.931 79.1063L198.309 80.3575Z" fill="#262335"/>
<path d="M248.687 108.857C247.078 107.173 241.36 80.6259 241.36 80.6259L229.894 78.6138C228.072 111.116 224.172 154.288 229.894 185.971C230.871 185.825 253.26 185.357 254.243 185.188C254.243 185.188 245.575 166.312 243.926 161.966C243.926 161.966 240.929 152.737 244.454 141.166C245.602 139.362 249.16 133.446 251.073 126.78C253.333 118.909 252.53 112.877 248.687 108.857Z" fill="#262335"/>
<path d="M180.659 152.225C178.992 150.998 175.769 146.535 175.274 143.699C174.779 140.867 180.006 107.812 180.006 107.812C180.006 107.812 194.921 109.166 196.728 114.991C196.728 114.991 189.736 148.145 188.641 149.143C187.549 150.142 182.419 153.52 180.659 152.225Z" fill="#F2A372"/>
<path d="M187.773 82.4139C185.141 83.8426 181.605 87.5185 181.314 89.5439C181.023 91.5715 176.577 115.974 174.947 127.736C179.693 133.537 188.604 137.818 196.109 137.881C199.829 128.792 198.892 115.244 199.953 105.483L199.596 80.3131C199.596 80.3131 191.012 80.6547 187.773 82.4139Z" fill="#262335"/>
<path d="M228.979 64.5625C230.007 64.8487 231.133 64.6335 232.083 64.1632C233.035 63.6951 233.839 62.9918 234.593 62.262C236.589 60.3431 238.445 57.9228 238.305 55.2075C238.256 54.3001 237.95 53.3596 237.239 52.7606C236.394 52.0485 235.106 51.962 234.061 52.3613C233.017 52.7628 232.194 53.5792 231.588 54.491L228.979 64.5625Z" fill="#F2A372"/>
<path d="M204.025 64.5625C202.997 64.8487 201.872 64.6335 200.921 64.1632C199.969 63.6951 199.166 62.9918 198.411 62.262C196.415 60.3431 194.559 57.9228 194.699 55.2075C194.748 54.3001 195.054 53.3596 195.765 52.7606C196.611 52.0485 197.898 51.962 198.944 52.3613C199.989 52.7628 200.81 53.5792 201.417 54.491L204.025 64.5625Z" fill="#F2A372"/>
<path d="M233.06 64.1565C233.85 56.0239 236.065 51.281 237.435 46.5824C238.411 43.0618 239.402 37.0477 235.126 31.7457C230.902 26.2374 220.3 23.1073 210.595 25.7405C200.819 28.3782 193.314 35.5414 194.497 41.7707C195.094 45.502 197.738 48.9716 198.388 52.8205C198.93 56.0172 197.913 59.2273 199.15 62.3441C201.449 67.706 210.34 77.112 217.343 77.112C223.066 77.112 232.516 67.7038 233.06 64.1565Z" fill="#F2A372"/>
<path d="M222.134 49.2732C223.02 49.0824 223.939 49.0469 224.84 49.1556C225.741 49.2643 226.624 49.5194 227.435 49.9165C228.243 50.3159 228.991 50.8461 229.555 51.5516C228.684 51.3142 227.885 51.079 227.08 50.8971C226.276 50.713 225.479 50.571 224.676 50.4734C223.872 50.3736 223.064 50.3203 222.24 50.307C221.415 50.2893 221.255 49.4684 222.134 49.2732Z" fill="#1B1918"/>
<path d="M210.389 49.1268C209.501 48.9538 208.582 48.936 207.683 49.0625C206.784 49.1889 205.907 49.4618 205.103 49.8745C204.304 50.2893 203.569 50.835 203.021 51.5516C203.885 51.2965 204.679 51.0458 205.481 50.8483C206.28 50.6464 207.074 50.4912 207.874 50.3758C208.675 50.2627 209.483 50.1917 210.307 50.1629C211.132 50.1274 211.274 49.3043 210.389 49.1268Z" fill="#1B1918"/>
<path d="M217.654 60.0369C217.528 60.0369 217.381 59.9593 217.259 59.7818C217.175 59.6642 217.117 59.5023 217.093 59.316C217.073 59.1318 217.09 58.9255 217.159 58.7236C217.233 58.524 217.346 58.3532 217.477 58.2245C217.612 58.0959 217.759 58.0094 217.898 57.9717C217.967 57.9517 218.032 57.9428 218.089 57.9428C218.269 57.9428 218.396 58.0271 218.442 58.1425C218.511 58.3 218.476 58.4797 218.447 58.6483C218.413 58.8169 218.376 58.9765 218.314 59.1451C218.256 59.3159 218.187 59.4646 218.105 59.6154C218.023 59.7641 217.938 59.926 217.787 60.0037C217.747 60.0258 217.703 60.0369 217.654 60.0369Z" fill="#F7CEAD"/>
<path d="M216.535 59.722C216.509 59.6066 216.486 59.5023 216.466 59.4092C216.451 59.316 216.435 59.2339 216.424 59.1518C216.413 59.0675 216.407 58.9722 216.411 58.8635C216.413 58.7548 216.427 58.6349 216.442 58.5129C216.473 58.2667 216.511 58.0138 216.5 57.8008C216.489 57.5856 216.427 57.4104 216.307 57.3039C216.185 57.1952 216.067 57.1974 215.936 57.2862C215.807 57.3771 215.663 57.5546 215.516 57.8141C215.372 58.0737 215.219 58.4309 215.179 58.8612C215.159 59.0742 215.177 59.3005 215.226 59.5112C215.272 59.7264 215.35 59.9261 215.441 60.1191C215.532 60.3098 215.638 60.4785 215.749 60.636C215.86 60.7913 215.978 60.931 216.091 61.053C216.32 61.297 216.535 61.4856 216.715 61.6276C217.077 61.9071 217.294 62.0091 217.414 61.8161C217.525 61.6342 217.514 61.4102 217.319 61.0863C217.223 60.9243 217.081 60.738 216.926 60.514C216.848 60.4008 216.771 60.2788 216.7 60.1457C216.633 60.017 216.573 59.8728 216.535 59.722Z" fill="#D76238"/>
<path d="M221.932 55.5247C221.932 54.3335 223.621 52.541 224.96 52.541C226.076 52.5477 226.982 53.4639 226.978 54.5797L226.971 55.5469C226.964 56.6627 221.932 56.7182 221.932 55.5247Z" fill="#1B1918"/>
<path d="M224.484 52.6097C224.484 52.6097 225.947 52.3014 227.215 53.1821C228.484 54.0628 229.368 53.5792 229.368 53.5792C229.368 53.5792 228.318 54.5863 227.048 53.9851C225.776 53.3839 225.161 53.6457 225.161 53.6457L224.484 52.6097Z" fill="#1B1918"/>
<path d="M210.671 55.5247C210.671 54.3335 208.979 52.541 207.641 52.541C206.526 52.5477 205.618 53.4639 205.625 54.5797L205.629 55.5469C205.636 56.6627 210.671 56.7182 210.671 55.5247Z" fill="#1B1918"/>
<path d="M208.116 52.6097C208.116 52.6097 206.653 52.3014 205.385 53.1821C204.118 54.0628 203.232 53.5792 203.232 53.5792C203.232 53.5792 204.282 54.5863 205.554 53.9851C206.824 53.3839 207.438 53.6457 207.438 53.6457L208.116 52.6097Z" fill="#1B1918"/>
<path d="M234.94 41.1739C234.907 40.6747 234.862 40.3619 234.802 40.2865C234.241 39.601 233.819 48.2572 233.819 48.2572C224.673 47.3521 201.07 48.6699 201.07 48.6699L200.051 40.1845C198.468 42.0391 199.365 60.5472 199.365 60.5472C197.025 54.1759 193.969 42.9686 193.531 36.4088C193.285 32.6996 196.257 30.1817 198.648 29.7292C200.084 23.6374 205.203 21.4546 211.399 19.651C218.62 17.5457 226.813 19.8085 232.36 24.7932C237.908 29.7802 240.927 35.3306 239.504 42.5582C238.016 50.1052 238.62 56.188 234.578 62.4062C234.578 62.4062 235.204 45.3289 234.94 41.1739Z" fill="#A0361F"/>
<path d="M219.053 64.0457C220.618 63.7817 222.132 63.2249 223.475 62.3797C222.316 64.5359 221.135 66.6035 217.838 66.9562C214.542 67.309 212.859 65.6163 212.18 63.2559C214.331 64.1788 216.749 64.4317 219.053 64.0457Z" fill="white"/>
<path d="M217.828 102.408L213.91 99.3559L174.455 134.025L182.062 133.417C182.062 133.417 198.187 131.354 217.828 102.408Z" fill="#7F5E5A"/>
<path d="M233.653 172.63L225.426 172.587L174.455 134.025L182.794 133.144L233.653 172.63Z" fill="#7F5E5A"/>
<path d="M201.785 149.463L182.923 134.819L177.702 135.369L198.399 151.029L201.785 149.463Z" fill="white"/>
<path d="M182.294 133.198C182.294 133.198 200.393 112.866 218.224 99.3181L261.371 147.852L233.652 172.63L182.294 133.198Z" fill="#AF827A"/>
<path d="M206.961 147.906C204.073 148.8 205.976 150.787 204.198 161.644C204.129 162.061 214.524 163.41 219.59 159.279C225.173 154.727 219.137 144.132 206.961 147.906Z" fill="#F2A372"/>
<path d="M207.254 153.558L199.873 157.398C198.65 158.035 197.125 157.755 196.484 156.779C195.842 155.801 196.319 154.481 197.542 153.844L206.657 149.325C207.88 148.689 208.477 152.921 207.254 153.558Z" fill="#F2A372"/>
<path d="M196.2 155.821C196.224 155.983 196.273 156.145 196.355 156.307C196.815 157.187 197.9 157.604 198.966 157.327C200.422 156.95 202.118 155.83 203.885 154.958C205.445 154.184 206.877 153.267 208.389 152.435C208.169 152.884 207.783 153.285 207.254 153.558L199.874 157.398C198.65 158.035 197.125 157.755 196.484 156.779C196.289 156.482 196.198 156.151 196.2 155.821Z" fill="#C06332"/>
<path d="M209.33 157.076L201.947 160.916C200.724 161.553 199.199 161.274 198.557 160.298C197.918 159.319 198.393 157.999 199.616 157.363L206.997 153.522C208.222 152.886 209.747 153.165 210.387 154.144C211.028 155.12 210.553 156.44 209.33 157.076Z" fill="#F2A372"/>
<path d="M198.275 159.337C198.298 159.501 198.346 159.663 198.431 159.825C198.888 160.706 200.002 161.214 201.039 160.845C202.522 160.32 204.16 159.308 205.927 158.434C207.488 157.66 209.856 156.801 209.33 157.076L201.947 160.916C200.724 161.553 199.199 161.274 198.557 160.298C198.364 159.998 198.273 159.67 198.275 159.337Z" fill="#C06332"/>
<path d="M212.054 160.014L204.635 163.576C203.405 164.166 201.887 163.934 201.261 163.062C200.633 162.188 201.126 160.99 202.355 160.4L209.774 156.839C211.004 156.247 212.522 156.48 213.15 157.354C213.776 158.226 213.284 159.424 212.054 160.014Z" fill="#F2A372"/>
<path d="M200.99 162.201C201.012 162.347 201.057 162.494 201.139 162.638C201.585 163.426 202.662 163.787 203.729 163.523C205.188 163.164 206.935 161.937 208.711 161.125C210.278 160.406 212.584 159.758 212.054 160.014L204.635 163.576C203.405 164.166 201.887 163.934 201.261 163.062C201.07 162.796 200.983 162.5 200.99 162.201Z" fill="#C06332"/>
<path d="M213.841 162.498L208.098 165.555C207.146 166.061 205.95 165.821 205.441 165.023C204.931 164.224 205.292 163.157 206.245 162.651L211.987 159.594C212.94 159.088 218.549 158.41 219.06 159.208C219.06 159.208 219.526 159.718 213.841 162.498Z" fill="#F2A372"/>
<path d="M216.311 148.662C216.311 148.662 213.876 146.029 212.256 145.319C210.635 144.609 204.244 144.711 201.738 144.301C199.23 143.888 200.071 147.313 202.835 148.103C205.596 148.895 206.031 151.919 206.031 151.919L216.311 148.662Z" fill="#F2A372"/>
<path d="M267.265 136.521C266.663 135.321 256.694 133.147 251.599 133.779C246.505 134.411 212.835 148.953 212.835 148.953C212.835 148.953 211.829 155.395 214.533 158.006C214.533 158.006 261.038 152.274 265.04 149.84C273.076 144.957 267.866 137.721 267.265 136.521Z" fill="#F2A372"/>
<path d="M635.782 86.3139H659.972V57.5612H635.782V86.3139Z" fill="#D16652"/>
<path d="M659.972 57.5613V66.4038C653.956 71.2666 645.825 74.552 635.782 75.2464V57.5613H659.972Z" fill="#80372A"/>
<path d="M689.095 85.4687C692.07 87.0038 697.327 90.3292 698.013 92.5099C698.698 94.6928 718.348 152.411 719.6 156.151C722.113 163.654 697.933 165.209 696.059 160.362C694.188 155.515 675.173 116.025 675.173 116.025L679.624 85.1249C679.624 85.1249 685.957 83.8493 689.095 85.4687Z" fill="#262335"/>
<path d="M679.937 176.893C686.279 215.791 680.792 287.474 679.149 298.022C677.486 308.691 655.441 291.074 654.729 280.317C654.471 276.451 655.488 272.604 655.497 268.731C655.504 265.308 654.114 262.015 653.947 258.584C652.729 233.6 646.18 224.214 641.889 205.721L636.311 176.893H679.937Z" fill="#211F2D"/>
<path d="M614.77 400.73C619.46 398.489 623.594 396.124 624.757 393.715L625.274 372.41C625.456 370.826 625.8 368.891 624.251 368.676L617.21 367.704C615.829 367.514 614.539 368.381 614.175 369.748C613.389 372.682 610.632 382.399 610.632 382.399C606.051 386.913 601.469 391.43 596.887 395.945C595.489 397.322 594.004 398.729 593.866 400.73C593.862 400.794 614.77 400.73 614.77 400.73Z" fill="#B1B1B0"/>
<path d="M625.139 378.04C624.695 377.971 626.284 389.425 621.063 390.279C620.728 390.33 620.388 390.357 620.051 390.363L619.636 385.527C619.636 385.527 612.217 382.102 606.657 382.534L605.371 385.174L589.566 393.866C588.257 395.155 586.281 397.103 586.099 399.791C586.072 400.169 586.241 400.599 586.55 401.056H626.497C626.497 401.056 625.583 378.107 625.139 378.04Z" fill="#1B1918"/>
<path d="M694.479 400.654C694.479 400.654 693.52 397.28 692.457 395.889L682.013 382.215C682.013 382.215 680.699 373.368 680.343 370.699C680.179 369.459 679.153 368.527 677.933 368.507L671.699 368.401C670.33 368.379 669.2 369.501 669.182 370.908L668.472 390.172C669.684 393.857 671.098 397.072 672.7 400.597L694.479 400.654Z" fill="#B1B1B0"/>
<path d="M693.495 395.055L686.432 385.804L685.455 382.872C680.669 381.743 673.834 383.724 673.834 383.724L672.938 387.885C672.642 387.834 672.352 387.765 672.065 387.675C667.619 386.224 669.044 378.608 668.651 378.608C668.258 378.606 663.597 401.056 663.597 401.056H695.815C695.831 400.936 695.844 400.814 695.851 400.692C695.99 398.323 694.49 396.355 693.495 395.055Z" fill="#1B1918"/>
<path d="M616.488 174.675C610.011 213.572 613.214 285.255 614.894 295.804C616.592 306.472 639.121 288.856 639.847 278.099C640.109 274.232 639.07 270.386 639.064 266.51C639.057 263.089 639.854 259.711 640.647 256.365C645.031 237.873 654.287 219.38 658.669 200.888V174.675H616.488Z" fill="#211F2D"/>
<path d="M610.847 375.351C610.574 360.031 610.834 344.709 611.096 329.388C611.227 321.693 611.358 313.995 611.489 306.299C611.673 295.456 612.308 284.47 616.303 274.241C617.495 271.189 636.694 263.311 639.063 266.51C639.063 266.51 640.661 281.6 641.662 288.435C642.322 292.931 641.427 297.483 640.535 301.947C635.689 326.21 633.156 351.089 628.31 375.351H610.847Z" fill="#211F2D"/>
<path d="M683.491 376.585C683.759 361.267 683.12 346.927 682.865 331.607C682.736 323.911 682.607 316.213 682.481 308.518C682.299 297.674 681.68 286.688 677.768 276.459C676.603 273.407 657.814 265.529 655.497 268.731C655.497 268.731 653.932 283.818 652.953 290.653C652.307 295.149 653.184 299.702 654.056 304.165C658.798 328.428 661.058 352.389 665.801 376.649L683.491 376.585Z" fill="#211F2D"/>
<path d="M630.946 190.854C630.231 190.854 629.749 190.852 629.558 190.849C625.955 190.805 615.236 187.693 613.682 185.27C617.676 164.643 615.247 152.211 612.896 140.186C611.576 133.419 610.068 118.762 610.068 118.762C608.623 116.056 606.956 95.8153 608.186 87.4697L634.717 76.3245L647.001 79.9981H649.481L661.768 76.3245L688.296 87.4697C689.526 95.8153 687.859 116.056 686.416 118.762C686.416 118.762 684.554 133.772 682.862 140.598C679.997 152.152 677.035 164.098 681.051 184.522L681.069 184.613C680.272 185.818 674.307 188.906 671.397 189.365C662.054 190.838 632.211 190.854 630.946 190.854Z" fill="#D3D8EC"/>
<path d="M652.911 91.3342L657.544 86.842L654.789 79.315L648.243 78.7337L641.694 79.315L638.939 86.842L643.574 91.3342L636.311 161.924L648.243 175.866L660.174 161.924L652.911 91.3342Z" fill="#8796CE"/>
<path d="M660.996 70.2506L648.243 78.7337L652.911 79.6876L656.654 99.0431L669.098 79.468L660.996 70.2506Z" fill="#EBEEF6"/>
<path d="M635.488 70.2506L648.243 78.7337L643.575 79.6876L639.832 99.0431L627.388 79.468L635.488 70.2506Z" fill="#EBEEF6"/>
<path d="M589.549 222.098C589.549 222.098 589.571 211.979 589.644 210.586C589.718 209.193 593.695 204.872 594.65 204.643C596.002 204.322 602.002 205.051 602.002 205.051C602.002 205.051 604.344 210.005 605.205 213.126C606.067 216.25 599.824 221.78 599.824 221.78L589.549 222.098Z" fill="#D16652"/>
<path d="M599.369 213.16C601.462 215.54 602.97 217.031 602.768 218.544C602.548 220.181 602.275 222.384 602.366 223.411C602.457 224.438 602.044 226.39 603.023 226.823C604.992 227.69 606.772 222.748 607.707 219.702C608.453 217.281 608.701 215.564 607.815 214.495C606.93 213.426 603.331 210.001 603.331 210.001L599.369 213.16Z" fill="#D16652"/>
<path d="M606.181 229.15L597.553 228.68C597.553 228.68 591.85 298.544 591.85 303.411C591.85 308.278 611.189 308.052 611.189 302.923C611.189 297.794 606.181 229.15 606.181 229.15Z" fill="#1B1918"/>
<path d="M608.379 301.319C607.291 303.961 598.023 302.035 596.78 298.772C594.447 292.554 595.921 287.057 596.001 280.918C596.014 279.876 597.946 280.705 598.259 279.461C597.431 263.48 598.996 250.952 597.81 237.495C597.737 236.67 597.333 235.927 597.024 235.184C595.61 252.638 591.85 299.46 591.85 303.411C591.85 308.278 611.189 308.052 611.189 302.923C611.189 301.432 610.765 294.579 610.166 285.608C610.166 285.608 610.27 296.594 608.379 301.319Z" fill="#100F0D"/>
<path d="M598.996 229.361C597.708 228.081 595.697 228.706 594.538 230.173C593.382 231.637 592.867 233.696 592.39 235.67C590.944 241.666 589.237 276.821 590.156 278.72C590.962 280.388 594.936 278.72 594.936 278.72L598.996 229.361Z" fill="#1B1918"/>
<path d="M591.031 277.032C590.287 279.27 591.275 281.883 593.26 283.13C593.57 283.325 594.043 283.206 594.216 282.88C594.398 282.536 594.296 282.13 593.966 281.923C593.859 281.855 593.755 281.784 593.653 281.708C593.786 281.808 593.655 281.706 593.626 281.684C593.57 281.637 593.515 281.588 593.464 281.54C593.384 281.466 593.309 281.389 593.235 281.311C593.191 281.265 593.149 281.216 593.109 281.169C593.087 281.143 592.96 280.983 593.067 281.12C592.925 280.934 592.796 280.737 592.683 280.532C592.623 280.419 592.567 280.306 592.514 280.191C592.436 280.027 592.565 280.328 592.501 280.16C592.476 280.1 592.454 280.04 592.434 279.98C592.352 279.752 592.287 279.514 592.243 279.275C592.232 279.221 592.223 279.168 592.214 279.115C592.188 278.953 592.223 279.237 592.212 279.086C592.201 278.96 592.19 278.835 592.185 278.709C592.183 278.582 592.185 278.456 592.192 278.33C592.194 278.276 592.199 278.223 592.205 278.168C592.208 278.137 592.214 277.955 592.205 278.141C592.216 277.897 592.305 277.633 592.381 277.405C592.496 277.056 592.247 276.626 591.892 276.544C591.506 276.455 591.155 276.661 591.031 277.032Z" fill="#CCCCC9"/>
<path d="M598.179 231.222V218.59C598.179 217.341 599.195 216.325 600.445 216.325C601.695 216.325 602.711 217.341 602.711 218.59V231.222H604.889V218.59C604.889 216.148 602.889 214.149 600.445 214.149C598.001 214.149 596.001 216.148 596.001 218.59V231.222H598.179Z" fill="#CCCCC9"/>
<path d="M599.011 213.768C598.499 217.656 598.221 222.118 598.261 225.975C598.268 226.483 598.29 227.027 598.605 227.402C598.974 227.834 599.628 227.919 600.232 227.97C601.316 228.061 602.37 227.845 603.076 226.43C603.371 225.833 603.251 223.504 603.225 222.748C603.12 219.979 603.249 216.37 603.489 213.572L599.011 213.768Z" fill="#D16652"/>
<path d="M595.36 213.426C594.85 217.315 594.612 221.206 594.654 225.064C594.659 225.572 594.681 226.115 594.998 226.488C595.365 226.923 596.019 227.007 596.623 227.058C597.709 227.149 598.293 227.036 599.374 226.548C600.413 226.08 599.644 222.592 599.616 221.836C599.514 219.067 599.582 216.274 599.822 213.475L595.36 213.426Z" fill="#D16652"/>
<path d="M592.079 211.751C591.6 215.638 591.358 219.529 591.354 223.389C591.354 223.897 591.367 224.442 591.635 224.817C591.948 225.254 592.512 225.341 593.032 225.396C593.964 225.494 594.468 225.385 595.405 224.904C596.304 224.44 595.678 220.946 595.66 220.19C595.6 217.419 595.687 214.626 595.922 211.826L592.079 211.751Z" fill="#D16652"/>
<path d="M589.773 210.795C589.315 214.571 589.078 218.351 589.062 222.1C589.06 222.595 589.071 223.125 589.317 223.489C589.604 223.915 590.119 224.028 590.605 224.054C592.993 224.185 593.067 219.737 593.056 219.001C593.007 216.31 593.098 213.595 593.324 210.875L589.773 210.795Z" fill="#D16652"/>
<path d="M603.045 87.7714C600.406 89.83 595.855 94.0672 595.584 96.3389C595.314 98.6105 589.502 187.577 587.993 200.761C587.056 213.466 606.277 209.031 607.758 205.522C609.241 202.012 617.7 115.182 617.7 115.182L612.291 85.6861C612.291 85.6861 605.831 85.5996 603.045 87.7714Z" fill="#262335"/>
<path d="M691.451 87.0282L667.093 77.1896L659.615 134.895L658.669 206.629C668.014 212.996 685.245 210.804 687.134 208.408C689.023 206.014 685.939 189.949 685.538 186.861C681.307 154.21 687.533 119.359 687.533 119.359C687.533 119.359 692.89 94.939 691.451 87.0282Z" fill="#262335"/>
<path d="M637.814 134.407L629.39 77.1897L605.697 86.5203C604.259 94.4333 608.95 119.359 608.95 119.359C608.95 119.359 617.194 153.642 611.909 185.807C611.678 188.613 608.401 206.15 609.762 208.102C611.123 210.052 631.474 214.542 639.756 209.062L637.814 134.407Z" fill="#262335"/>
<path d="M717.093 158.738C715.616 158.237 699.323 159.002 695.5 163.179C691.68 167.359 669.402 210.074 669.402 210.074C669.402 210.074 673.611 213.415 677.815 213.459C677.815 213.459 704.32 184.032 707.652 180.106C710.984 176.179 718.569 159.237 717.093 158.738Z" fill="#D16652"/>
<path d="M671.319 206.414C671.319 206.414 663.226 209.919 664.258 211.689C665.288 213.459 678.465 218.231 678.465 218.231L678.698 211.374L671.319 206.414Z" fill="#D16652"/>
<path d="M669.674 202.634L686.199 211.689C686.199 211.689 706.623 184.909 714.41 173.555C722.197 162.199 721.447 155.093 716.443 152.107C710.659 148.655 699.808 150.213 694.636 157.174C689.464 164.135 669.674 202.634 669.674 202.634Z" fill="#262335"/>
<path d="M661.441 54.1471C662.571 54.4621 663.812 54.2248 664.86 53.7079C665.908 53.191 666.791 52.4168 667.624 51.6137C669.821 49.4996 671.866 46.8331 671.71 43.8449C671.657 42.8466 671.32 41.8106 670.538 41.1495C669.606 40.3642 668.187 40.2688 667.038 40.7103C665.885 41.1517 664.982 42.0524 664.312 43.0552L661.441 54.1471Z" fill="#D16652"/>
<path d="M633.956 54.1471C632.826 54.4621 631.587 54.2248 630.537 53.7079C629.49 53.191 628.606 52.4168 627.774 51.6137C625.576 49.4996 623.532 46.8331 623.687 43.8449C623.74 42.8466 624.078 41.8106 624.861 41.1495C625.791 40.3642 627.21 40.2688 628.362 40.7103C629.512 41.1517 630.417 42.0524 631.086 43.0552L633.956 54.1471Z" fill="#D16652"/>
<path d="M665.934 55.5935C666.804 46.2452 669.244 40.7946 670.751 35.395C671.828 31.3464 672.918 24.4339 668.21 18.34C663.559 12.0087 651.883 8.41038 641.192 11.4385C630.426 14.4688 624.455 20.7602 625.758 27.9212C626.417 32.2071 627.034 38.1391 627.751 42.5626C628.346 46.2385 627.227 49.9277 628.586 53.5104C631.121 59.6731 640.913 70.4856 648.626 70.4856C654.928 70.4856 665.335 59.6709 665.934 55.5935Z" fill="#D16652"/>
<path d="M648.966 49.1624C648.828 49.1624 648.666 49.0781 648.533 48.8828C648.44 48.7519 648.376 48.5723 648.349 48.3682C648.327 48.1663 648.347 47.9378 648.422 47.7181C648.502 47.4985 648.629 47.3077 648.773 47.1657C648.919 47.026 649.082 46.9306 649.235 46.8884C649.312 46.8662 649.381 46.8574 649.446 46.8574C649.645 46.8574 649.783 46.9483 649.836 47.0748C649.91 47.25 649.872 47.4497 649.841 47.6339C649.805 47.818 649.763 47.9955 649.694 48.1818C649.632 48.3704 649.552 48.5323 649.466 48.6987C649.375 48.8607 649.279 49.0403 649.113 49.1269C649.07 49.1491 649.019 49.1624 648.966 49.1624Z" fill="#E49E8A"/>
<path d="M647.736 48.8164C647.705 48.6877 647.681 48.5723 647.661 48.4703C647.643 48.3682 647.625 48.2795 647.612 48.1886C647.601 48.0954 647.594 47.9889 647.599 47.8691C647.601 47.7515 647.616 47.6184 647.632 47.4831C647.667 47.2125 647.71 46.9351 647.696 46.7C647.683 46.4648 647.616 46.2696 647.483 46.1521C647.348 46.0345 647.219 46.0367 647.077 46.1343C646.935 46.2319 646.775 46.4294 646.613 46.7155C646.455 46.9995 646.285 47.3944 646.242 47.8669C646.22 48.1021 646.24 48.3527 646.293 48.5856C646.344 48.8208 646.431 49.0404 646.531 49.2512C646.631 49.4619 646.748 49.6505 646.868 49.8213C646.99 49.9943 647.121 50.1474 647.246 50.2805C647.497 50.5511 647.734 50.7597 647.932 50.915C648.331 51.2233 648.571 51.3342 648.702 51.1213C648.826 50.9216 648.815 50.6754 648.598 50.3204C648.493 50.1408 648.338 49.9344 648.167 49.6882C648.08 49.564 647.994 49.4286 647.916 49.2822C647.843 49.1402 647.776 48.9805 647.736 48.8164Z" fill="#80372A"/>
<path d="M654.211 37.8264C655.252 37.5868 656.335 37.5402 657.397 37.6778C658.458 37.8153 659.499 38.1392 660.455 38.6406C661.406 39.1464 660.984 40.1114 660.034 39.8829C659.088 39.6477 658.149 39.4703 657.203 39.3438C656.258 39.2196 655.305 39.1508 654.335 39.1353C653.361 39.1109 653.172 38.0726 654.211 37.8264Z" fill="#1B1918"/>
<path d="M641.337 37.7421C640.291 37.5247 639.208 37.5002 638.149 37.66C637.093 37.8197 636.058 38.1658 635.112 38.6871C634.171 39.2129 634.611 40.169 635.556 39.9205C636.498 39.6654 637.432 39.468 638.376 39.3238C639.319 39.1773 640.269 39.0886 641.239 39.0531C642.214 39.0088 642.38 37.9661 641.337 37.7421Z" fill="#1B1918"/>
<path d="M640.342 45.7039L640.329 43.2193C640.322 42.0236 639.337 41.0519 638.14 41.0586C636.944 41.0653 635.971 42.048 635.978 43.2437L635.991 45.7283C635.998 46.924 640.349 46.8996 640.342 45.7039Z" fill="#1B1918"/>
<path d="M655.292 45.7039L655.306 43.2193C655.312 42.0236 656.298 41.0519 657.494 41.0586C658.691 41.0653 659.663 42.048 659.656 43.2437L659.643 45.7283C659.636 46.924 655.286 46.8996 655.292 45.7039Z" fill="#1B1918"/>
<path d="M642.824 54.6352C646.562 54.2736 650.251 53.4261 653.767 52.1173C654.021 53.6679 653.719 55.3051 652.946 56.6739C650.859 57.2484 647.934 57.5701 646.533 57.5701C645.13 57.5701 643.399 55.385 642.824 54.6352Z" fill="white"/>
<path d="M677.721 34.9425C678.032 34.3524 678.232 33.678 678.279 32.9282C678.294 32.6575 678.287 32.3958 678.263 32.1406C678.638 31.6925 678.849 31.1046 678.765 30.5035C678.674 29.849 678.325 29.2856 677.839 28.9218C678.19 28.2097 678.374 27.4066 678.312 26.568C678.239 25.5675 677.85 24.689 677.269 23.988C677.411 23.6553 677.471 23.2892 677.42 22.9187C677.284 21.9582 676.609 21.1862 675.724 20.9776C675.875 19.7841 675.61 18.6018 674.665 17.6123C674.481 17.4193 674.285 17.2463 674.081 17.0932C674.501 16.492 674.651 15.6868 674.365 15.0035C673.908 13.9032 672.785 13.333 671.668 13.6769C671.561 13.4373 671.435 13.2044 671.288 12.9826C671.606 12.7075 671.921 12.4302 672.239 12.1529C673.067 11.4275 673.464 10.1497 672.705 9.2002C672.043 8.37051 670.642 7.9512 669.75 8.73208C669.237 9.18019 668.725 9.62835 668.214 10.0765C668.19 9.99438 668.165 9.91227 668.13 9.83018C668.092 9.74145 668.048 9.65274 667.999 9.56844C668.092 9.42424 668.19 9.28446 668.294 9.14248C668.953 8.25512 668.907 6.85975 667.961 6.16983C667.062 5.5154 665.692 5.5509 664.986 6.50259C664.951 6.55139 664.92 6.60244 664.884 6.65125C664.867 6.56695 664.853 6.48264 664.831 6.39834C664.747 6.0678 664.547 5.78607 664.285 5.56423C664.287 4.93642 664.041 4.31082 663.512 3.92704C662.593 3.25708 661.27 3.32807 660.538 4.2598C660.462 4.35962 660.385 4.45724 660.307 4.55707C660.176 4.14666 659.936 3.77399 659.621 3.5211C658.68 2.76906 657.515 3.02415 656.713 3.79172C656.58 2.90658 655.859 2.13902 654.948 1.99482C654.389 1.90608 653.85 2.06138 653.417 2.36974C653.35 1.44023 652.522 0.59943 651.621 0.457451C650.413 0.26667 649.472 1.10081 649.199 2.21445C649.126 2.51615 649.053 2.81783 648.979 3.11953C648.957 3.04632 648.939 2.97311 648.917 2.89769C648.595 1.83951 647.195 1.23391 646.191 1.66206C645.288 2.04806 644.817 2.85778 644.855 3.75624C644.784 3.60095 644.715 3.44565 644.644 3.29258C644.173 2.25215 643.037 1.63542 641.918 2.0547C641.603 2.17449 641.319 2.38081 641.09 2.64037C640.398 1.88833 639.117 1.69312 638.293 2.34976C637.388 3.07296 637.139 4.33744 637.825 5.30244C637.898 5.40671 637.971 5.50876 638.042 5.61081C637.838 5.7417 637.656 5.90143 637.519 6.09665C637.492 6.13436 637.472 6.16985 637.447 6.20757C637.376 5.23147 636.746 4.29307 635.687 4.17106C634.622 4.04905 633.363 4.7523 633.268 5.92806C633.245 6.19205 633.245 6.45378 633.256 6.71334C632.861 6.42273 632.373 6.26746 631.854 6.34067C630.753 6.49818 629.798 7.48534 629.958 8.65443C630.024 9.14914 630.142 9.61502 630.286 10.0698C630.062 10.3493 629.896 10.6865 629.834 11.088C629.782 11.423 629.82 11.7758 629.927 12.1063C629.305 11.9932 628.684 11.8822 628.06 11.7691C626.18 11.4274 625.267 13.3641 625.751 14.7883C624.641 14.6574 623.458 15.4627 623.327 16.6451C623.298 16.8869 623.316 17.1265 623.358 17.3616C622.775 17.5302 622.266 17.9318 621.969 18.4598C621.101 17.8564 619.751 17.9872 619.112 18.868C618.433 19.7997 618.524 21.0952 619.445 21.8406C619.744 22.0824 620.053 22.302 620.373 22.5039C619.605 22.5904 618.863 23.0851 618.584 23.8239C618.339 24.4672 618.384 25.1305 618.65 25.6895C618.171 26.0533 617.815 26.6057 617.729 27.1714C617.529 28.4625 618.397 29.4076 619.536 29.7181C619.629 29.7448 619.72 29.7803 619.813 29.8091C619.363 31.2866 619.516 32.8217 620.173 34.0973C619.614 34.4877 619.247 35.1488 619.349 36.0539C619.725 39.3238 622.806 41.946 626.047 41.4136C625.836 42.4739 626.169 43.5676 627.23 44.0446C628.209 44.4838 629.749 44.0579 630.093 42.9021C630.515 41.4845 630.739 40.0781 630.699 38.6206C631.987 37.822 632.93 36.573 633.012 34.816C633.077 33.4628 632.575 32.3957 631.783 31.5594C632.317 30.5545 632.484 29.3366 632.24 28.1564C633.106 27.4909 633.731 26.5591 633.862 25.3235C633.911 24.8465 633.871 24.374 633.76 23.9215C634.677 23.2759 635.403 22.3597 635.829 21.3082C638.096 21.8029 640.491 20.778 641.51 18.6883C643.212 19.0987 644.935 18.9389 646.262 18.0361C648.06 19.0964 650.496 18.7038 652.635 17.8164C653.881 18.9278 655.621 19.4625 657.088 19.1253C657.681 20.5118 659.066 21.3991 660.678 21.8428C660.749 24.2476 662.496 26.2397 664.86 26.9873C664.875 28.1719 665.33 29.3166 666.167 30.2151C665.073 30.9316 664.356 32.1296 664.327 33.6026C664.307 34.7251 664.713 35.7189 665.37 36.5242C664.744 37.9994 664.924 39.7719 666.074 41.0564C666.134 43.0396 667.828 44.4971 669.517 44.679C670.074 45.3645 671.102 45.6973 671.923 45.3445C672.94 44.912 673.462 43.8826 673.211 42.8311C675.377 42.1168 677.393 40.697 677.582 38.1947C677.686 38.1037 677.781 38.0061 677.857 37.8996C678.183 37.4404 678.401 36.8658 678.321 36.2891C678.254 35.8188 678.068 35.2863 677.721 34.9425Z" fill="#271B1A"/>
<path d="M550.089 111.182C547.745 108.729 543.989 83.1904 543.989 83.1904H521.547H499.107C499.107 83.1904 495.351 108.729 493.007 111.182C484.62 119.958 494.58 131.893 497.781 136.9C500.456 145.647 493.053 159.501 497.968 165.5C501.555 169.877 500.674 176.536 500.674 176.536C507.957 177.792 514.712 178.382 521.547 178.584C528.384 178.382 535.139 177.792 542.422 176.536C542.422 176.536 542.457 169.003 545.791 164.626C549.148 160.215 543.325 150.157 545.732 142.284C548.932 137.277 558.475 119.958 550.089 111.182Z" fill="#D3D8EC"/>
<path d="M498.585 79.2417L538.411 78.5718L541.987 49.8213C541.987 49.8213 538.459 32.8395 522.193 32.2649C505.926 31.6881 501.318 44.1201 500.856 49.8213C500.394 55.5226 498.585 79.2417 498.585 79.2417Z" fill="#592526"/>
<path d="M467.157 145.834C465.991 144.148 464.404 138.925 464.853 136.11C465.303 133.295 480.844 103.99 480.844 103.99C480.844 103.99 494.389 110.053 494.21 116.096C494.21 116.096 478.802 145.809 477.454 146.393C476.109 146.978 468.391 147.613 467.157 145.834Z" fill="#F0A68B"/>
<path d="M495.588 83.7006C492.757 84.6013 488.873 85.4775 487.949 87.2833C487.024 89.0891 472.974 114.993 467.66 125.495C470.244 132.459 479.243 134.884 486.258 137.355C491.261 129.641 496.156 117.028 500.294 108.218L505.126 83.5609C505.126 83.5609 498.573 82.7533 495.588 83.7006Z" fill="#D3D8EC"/>
<path d="M568.14 149.558C569.479 148.005 571.601 142.976 571.45 140.13C571.299 137.284 558.908 106.515 558.908 106.515C558.908 106.515 544.801 111.129 544.351 117.156C544.351 117.156 556.564 148.318 557.84 149.039C559.119 149.762 566.728 151.2 568.14 149.558Z" fill="#F0A68B"/>
<path d="M545.687 83.685C548.407 84.8741 552.86 87.2633 553.592 89.1578C554.323 91.0501 567.271 119.033 571.457 130.032C568.161 136.689 557.268 137.406 550.032 139.132C550.032 139.132 542.316 117.882 539.123 108.686L536.897 83.6584C536.897 83.6584 542.817 82.4294 545.687 83.685Z" fill="#D3D8EC"/>
<path d="M488.287 336.328C488.482 351.816 488.66 367.361 488.576 371.03L497.109 371.409C498.702 360.881 500.773 348.342 502.871 336.328H488.287Z" fill="#F0AA91"/>
<path d="M499.89 371.729C499.835 367.054 496.86 366.081 496.86 366.081L487.071 369.918C487.071 369.918 470.941 402.507 473.372 403.237L490.796 403.705C495.815 403.813 494.516 395.845 496.458 391.621L496.365 403.813H498.549L499.568 386.829C499.735 386.232 499.85 385.722 499.897 385.343C500.137 383.337 499.963 377.973 499.89 371.729Z" fill="#562341"/>
<path d="M488.664 365.156C487.81 367.549 484.149 376.8 483.208 379.737C482.478 382.016 480.828 387.125 479.749 390.459C479.243 392.029 480.38 393.647 482.029 393.704L492.356 393.922L497.797 368.104C497.89 367.341 497.945 363.414 496.301 362.436C494.656 361.456 489.521 362.762 488.664 365.156Z" fill="#F0AA91"/>
<path d="M538.155 341.878H526.634C527.265 353.806 527.809 365.699 528.053 369.49L536.619 369.87C535.744 360.553 536.608 351.044 538.155 341.878Z" fill="#F0AA91"/>
<path d="M537.933 366.507C537.933 366.507 543.885 389.471 544.715 393.252C545.547 397.032 544.191 402.396 542.884 403.813H526.204C523.511 403.026 527.997 367.882 527.997 367.882L537.933 366.507Z" fill="#562341"/>
<path d="M527.891 362.744C527.891 365.326 527.533 375.3 527.642 378.47C527.771 382.277 528.122 393.407 528.122 393.407C528.122 393.407 537.882 394.09 539.083 392.925C542.493 389.618 540.97 382.687 540.97 382.687L538.073 365.923C537.896 365.1 536.548 360.865 534.552 359.809C532.557 358.753 527.891 360.162 527.891 362.744Z" fill="#F0AA91"/>
<path d="M508.596 94.0583H532.346V65.827H508.596V94.0583Z" fill="#F0A68B"/>
<path d="M532.346 65.827V74.5098C526.441 79.286 518.457 82.5116 508.596 83.1904V65.827H532.346Z" fill="#D16652"/>
<path d="M520.453 94.0584L531.148 85.9545L532.484 79.0642C532.484 79.0642 534.837 82.0679 534.917 83.7916C534.997 85.5153 534.917 102.144 534.917 102.144C534.917 102.144 528.422 96.0527 527.139 95.0123C525.856 93.9696 520.453 94.0584 520.453 94.0584Z" fill="#EBEEF6"/>
<path d="M520.492 94.0584L509.795 85.9545L508.461 79.0642C508.461 79.0642 506.106 82.0679 506.026 83.7916C505.946 85.5153 506.026 102.144 506.026 102.144C506.026 102.144 512.521 96.0527 513.804 95.0123C515.087 93.9696 520.492 94.0584 520.492 94.0584Z" fill="#EBEEF6"/>
<path d="M497.968 165.5C497.968 165.5 485.053 199.923 485.166 206.615C485.279 213.311 484.385 266.395 484.385 266.395C484.385 266.395 503.506 282.263 510.956 271.186C514.969 265.219 515.018 214.817 515.018 214.817L526.838 209.477L524.537 167.037L497.968 165.5Z" fill="#262335"/>
<path d="M483.932 360.255C483.932 360.255 501.936 366.025 503.299 360.255C504.662 354.485 507.488 300.192 509.124 288.299C510.76 276.406 513.573 261.206 512.611 255.762C511.648 250.318 485.639 251.543 485.01 258.967C484.384 266.395 482.016 279.324 482.109 286.536C482.202 293.748 483.932 360.255 483.932 360.255Z" fill="#262335"/>
<path d="M546.351 165.568C546.351 165.568 555.918 204.938 555.101 211.633C554.287 218.326 549.35 266.463 549.35 266.463C549.35 266.463 528.561 282.334 522.275 271.257C518.887 265.29 524.537 207.299 524.537 207.299L515.396 207.37L519.618 167.108L546.351 165.568Z" fill="#262335"/>
<path d="M539.955 360.326C539.955 360.326 521.344 366.096 520.585 360.326C519.828 354.556 522.701 300.263 522.31 288.37C521.922 276.477 520.705 261.277 522.237 255.833C523.771 250.389 549.651 251.611 549.5 259.038C549.35 266.463 550.36 279.394 549.512 286.606C548.661 293.818 539.955 360.326 539.955 360.326Z" fill="#262335"/>
<path d="M475.49 137.357C476.649 137.211 482.267 143.143 484.274 147.129C486.283 151.113 490.307 182.626 490.307 182.626C490.307 182.626 489.118 187.267 486.825 188.571C486.825 188.571 464.815 147.136 465.026 139.678C465.139 135.607 474.331 137.503 475.49 137.357Z" fill="#F0A68B"/>
<path d="M489.4 175.338L493.946 179.504C493.946 179.504 496.088 180.095 499.078 180.705C502.068 181.315 500.086 184.735 494.239 183.606L495.664 186.836C495.664 186.836 492.623 196.417 489.726 195.681C489.726 195.681 485.246 187.091 484.383 182.204C483.519 177.315 488.057 174.109 489.4 175.338Z" fill="#F0A68B"/>
<path d="M561.865 137.357C560.706 137.211 556.185 142.952 554.178 146.938C552.169 150.925 547.048 182.626 547.048 182.626C547.048 182.626 548.238 187.267 550.533 188.571C550.533 188.571 572.154 155.828 571.122 142.859C570.798 138.799 563.024 137.504 561.865 137.357Z" fill="#F0A68B"/>
<path d="M547.958 175.338L543.41 179.504C543.41 179.504 541.267 180.095 538.277 180.705C535.287 181.315 537.272 184.735 543.117 183.606L541.969 187.457C541.969 187.457 548.424 196.375 551.321 195.637C551.321 195.637 552.109 187.091 552.973 182.204C553.836 177.315 549.299 174.109 547.958 175.338Z" fill="#F0A68B"/>
<path d="M547.048 164.759C547.048 164.759 515.027 167.004 496.958 164.759L495.247 171.17C495.247 171.17 519.855 179.398 548.342 171.17L547.048 164.759Z" fill="#76293B"/>
<path d="M525.205 175.243H518.577C517.209 175.243 516.09 174.125 516.09 172.758V167.243C516.09 165.877 517.209 164.759 518.577 164.759H525.205C526.57 164.759 527.689 165.877 527.689 167.243V172.758C527.689 174.125 526.57 175.243 525.205 175.243Z" fill="#C2955C"/>
<path d="M542.004 38.7626C541.931 40.4441 541.913 42.1345 542.056 43.8138C542.124 44.6369 542.231 45.4599 542.384 46.2719C542.517 46.9706 542.648 47.7094 542.961 48.3549C543.474 49.4109 544.433 50.1918 545.245 51.0081C545.645 51.4119 546.038 51.8312 546.324 52.3259C546.644 52.8805 546.77 53.546 546.872 54.1716C547.106 55.5869 547.01 57.0599 546.633 58.442C546.24 59.8684 545.525 61.1018 544.628 62.2687C543.763 63.4001 542.883 64.5426 542.693 65.9978C542.482 67.604 543.046 69.1791 543.703 70.6188C544.393 72.1295 545.31 73.6979 545.343 75.4039C545.367 76.726 544.835 78.137 543.563 78.7027C543.039 78.9356 543.494 79.7053 544.013 79.4746C545.159 78.9644 545.869 77.8242 546.118 76.6284C546.413 75.2087 546.073 73.7978 545.53 72.4823C544.91 70.987 544.062 69.5762 543.696 67.9878C543.509 67.1825 543.463 66.3395 543.694 65.5387C543.893 64.8376 544.289 64.2142 544.713 63.6264C545.583 62.424 546.486 61.3237 547.059 59.9394C547.623 58.5773 547.905 57.0932 547.887 55.6224C547.871 54.3047 547.698 52.7651 546.95 51.6426C546.278 50.6354 545.303 49.8878 544.5 48.9938C544.069 48.5169 543.72 48.0044 543.552 47.3788C543.303 46.4604 543.132 45.522 543.023 44.577C542.801 42.647 542.812 40.6992 542.897 38.7626C542.921 38.188 542.029 38.188 542.004 38.7626Z" fill="#7B2F33"/>
<path d="M533.64 62.5659C534.69 62.8609 535.84 62.6391 536.812 62.1599C537.785 61.6785 538.606 60.9598 539.378 60.2166C541.419 58.2511 543.316 55.7776 543.172 53.0024C543.123 52.0751 542.81 51.1145 542.084 50.5023C541.219 49.7724 539.902 49.6837 538.835 50.0941C537.767 50.5023 536.926 51.3386 536.304 52.2704L533.64 62.5659Z" fill="#F0A68B"/>
<path d="M508.126 62.5659C507.076 62.8609 505.926 62.6391 504.954 62.1599C503.979 61.6785 503.158 60.9598 502.385 60.2166C500.345 58.2511 498.447 55.7776 498.594 53.0024C498.641 52.0751 498.956 51.1145 499.682 50.5023C500.547 49.7724 501.864 49.6837 502.931 50.0941C503.999 50.5023 504.84 51.3386 505.46 52.2704L508.126 62.5659Z" fill="#F0A68B"/>
<path d="M537.811 63.9081C538.619 55.232 540.883 50.1718 542.282 45.1582C543.281 41.4025 544.293 36.1981 539.924 30.5412C535.605 24.6625 524.765 21.3237 514.843 24.1345C504.849 26.9474 497.175 33.3763 498.385 40.0249C498.998 44.0047 501.699 47.7071 502.365 51.8134C502.918 55.2253 501.879 58.6505 503.14 61.9759C505.493 67.6972 514.583 77.7332 521.744 77.7332C527.593 77.7332 537.254 67.6949 537.811 63.9081Z" fill="#F0A68B"/>
<path d="M526.645 47.9689C527.527 47.7648 528.441 47.7271 529.34 47.8424C530.237 47.9578 531.118 48.2329 531.926 48.6566C532.73 49.0848 533.476 49.6505 534.038 50.407C533.172 50.1519 532.375 49.8989 531.571 49.7059C530.772 49.5085 529.977 49.3576 529.176 49.2511C528.377 49.1469 527.571 49.0892 526.75 49.0737C525.926 49.0559 525.769 48.1775 526.645 47.9689Z" fill="#7B2F33"/>
<path d="M514.945 47.8115C514.061 47.6274 513.144 47.6074 512.25 47.7427C511.353 47.878 510.478 48.1709 509.679 48.6123C508.884 49.056 508.15 49.6394 507.604 50.407C508.465 50.1341 509.255 49.8657 510.054 49.655C510.851 49.4398 511.641 49.2712 512.441 49.1491C513.238 49.0271 514.041 48.9517 514.862 48.9207C515.686 48.883 515.826 48.0023 514.945 47.8115Z" fill="#7B2F33"/>
<path d="M522.059 57.9384C521.931 57.9384 521.78 57.8607 521.655 57.681C521.571 57.559 521.509 57.3926 521.487 57.2018C521.464 57.0132 521.484 56.8025 521.555 56.5984C521.629 56.3943 521.746 56.219 521.88 56.0859C522.017 55.955 522.166 55.8662 522.308 55.8285C522.379 55.8085 522.446 55.7997 522.506 55.7997C522.69 55.7997 522.819 55.884 522.867 56.0016C522.936 56.1635 522.898 56.3477 522.87 56.5185C522.839 56.6915 522.799 56.8557 522.734 57.0288C522.676 57.204 522.603 57.3549 522.521 57.5102C522.437 57.6588 522.35 57.8252 522.197 57.9073C522.155 57.9273 522.11 57.9384 522.059 57.9384Z" fill="#F6CBB9"/>
<path d="M520.916 57.619C520.889 57.4992 520.865 57.3927 520.847 57.2973C520.83 57.2019 520.814 57.1198 520.803 57.0355C520.792 56.949 520.785 56.8514 520.79 56.7405C520.792 56.6296 520.805 56.5053 520.821 56.3811C520.854 56.1304 520.892 55.8709 520.878 55.6535C520.867 55.4338 520.805 55.2541 520.681 55.1454C520.557 55.0345 520.437 55.0389 520.303 55.1277C520.173 55.2209 520.026 55.4028 519.875 55.669C519.729 55.933 519.571 56.299 519.531 56.736C519.509 56.9534 519.529 57.1864 519.578 57.4038C519.624 57.6212 519.704 57.8275 519.797 58.0227C519.891 58.2179 519.999 58.3932 520.113 58.5507C520.226 58.7127 520.346 58.8546 520.461 58.9788C520.694 59.2273 520.916 59.4225 521.098 59.5667C521.471 59.8529 521.693 59.955 521.815 59.7575C521.928 59.5734 521.917 59.3449 521.717 59.0144C521.62 58.848 521.475 58.6572 521.316 58.4265C521.238 58.3111 521.156 58.1869 521.085 58.0516C521.016 57.9185 520.954 57.7721 520.916 57.619Z" fill="#D16652"/>
<path d="M514.577 55.6003L514.563 53.2399C514.557 52.1041 513.622 51.179 512.486 51.1857C511.347 51.1923 510.423 52.1263 510.428 53.2643L510.441 55.6247C510.448 56.7605 514.583 56.7383 514.577 55.6003Z" fill="#1B1918"/>
<path d="M512.967 51.2567C512.967 51.2567 511.477 50.9417 510.186 51.8401C508.891 52.7363 507.99 52.2438 507.99 52.2438C507.99 52.2438 509.062 53.2709 510.357 52.6564C511.653 52.0442 512.277 52.3104 512.277 52.3104L512.967 51.2567Z" fill="#1B1918"/>
<path d="M527.409 55.6003L527.422 53.2399C527.429 52.1041 528.364 51.179 529.5 51.1857C530.639 51.1923 531.563 52.1263 531.558 53.2643L531.545 55.6247C531.538 56.7605 527.403 56.7383 527.409 55.6003Z" fill="#1B1918"/>
<path d="M529.019 51.2567C529.019 51.2567 530.508 50.9417 531.8 51.8401C533.094 52.7363 533.995 52.2438 533.995 52.2438C533.995 52.2438 532.923 53.2709 531.629 52.6564C530.335 52.0442 529.709 52.3104 529.709 52.3104L529.019 51.2567Z" fill="#1B1918"/>
<path d="M543.081 78.3011C543.045 78.6427 543.063 78.9888 543.139 79.3104C539.842 79.2927 536.535 79.4214 533.229 79.6964C533.234 79.641 533.243 79.5855 533.254 79.5301C533.454 78.6383 534.219 77.9661 534.79 77.2229C535.722 76.0072 536.173 74.4633 536.02 73.0124C535.827 71.1867 534.728 69.5007 535.056 67.6572C535.578 64.7356 538.981 62.5526 538.397 59.7198C538.089 58.2201 536.544 57.2618 536.262 55.7555C535.816 53.3774 538.089 51.3963 538.737 48.9872C539.121 47.5674 538.717 46.1764 537.953 44.963C535.591 44.9829 530.55 45.2602 530.588 44.8964C530.837 42.4229 530.697 38.4786 529.707 36.2801C528.657 38.7625 528.128 44.8964 527.782 45.1027C527.609 45.207 527.4 45.2114 527.205 45.2114C520.69 45.2491 511.133 45.2846 504.618 45.3201C504.567 45.4865 504.525 45.6551 504.498 45.8237C504.185 47.7493 504.962 49.5839 505.522 51.3941C506.083 53.2066 506.388 55.3318 505.275 56.9978C504.676 57.8962 503.744 58.5285 503.038 59.3493C501.366 61.2926 501.229 64.303 502.723 66.1664C503.413 67.0272 504.432 67.7237 504.623 68.8285C504.867 70.2594 503.626 71.5727 503.031 72.9592C502.359 74.5187 502.538 76.3533 503.491 77.6466C503.85 78.1347 504.316 78.5629 504.496 79.1463C504.552 79.3238 504.574 79.5057 504.572 79.6898C499.315 79.6898 494.061 79.6898 488.802 79.6898C488.94 79.2062 489.166 78.7226 489.422 78.3099C490.167 77.1098 491.091 75.6501 490.438 74.4943C490.179 74.0306 489.703 73.7312 489.393 73.3008C488.383 71.8988 489.457 69.8468 490.678 68.4558C491.899 67.0627 493.404 65.5497 493.277 63.7883C493.175 62.3441 491.994 61.3126 491.233 60.1169C489.735 57.7654 489.923 54.4089 491.688 52.0108C493.015 50.2073 495.146 48.8762 495.821 46.7821C498.423 38.7071 496.678 32.5954 505.005 27.2313C514.05 21.4035 519.675 17.7521 529.482 22.5882C535.727 25.6673 544.728 31.4928 544.271 38.2212C544.082 41.0098 544.368 43.7672 544.799 46.487C545.321 49.7769 548.87 52.1905 548.317 55.5492C547.805 58.6616 544.027 60.5472 543.121 63.5975C542.024 67.2978 545.603 70.8606 544.53 74.5653C544.209 75.6767 543.489 76.6706 543.179 77.7842C543.132 77.9506 543.101 78.1258 543.081 78.3011Z" fill="#7B2F33"/>
<path d="M523.418 62.5815C524.981 62.3197 526.495 61.7607 527.84 60.9177C526.679 63.074 525.5 65.1415 522.202 65.4942C518.905 65.847 517.222 64.1521 516.545 61.794C518.694 62.7168 521.112 62.9697 523.418 62.5815Z" fill="white"/>
<path d="M64.6719 85.6595H88.8605V56.9069H64.6719V85.6595Z" fill="#F79285"/>
<path d="M88.8605 56.9069V65.7494C82.8452 70.6121 74.7147 73.8975 64.6719 74.5919V56.9069H88.8605Z" fill="#B25242"/>
<path d="M122.479 87.4608C125.12 89.5173 129.67 93.7566 129.94 96.026C130.211 98.2977 138.855 158.652 139.395 162.558C140.477 170.393 115.481 162.35 114.536 157.241C113.59 152.132 103.148 114.92 103.148 114.92L113.235 85.3733C113.235 85.3733 119.694 85.289 122.479 87.4608Z" fill="#262335"/>
<path d="M108.827 176.239C115.168 215.136 109.682 286.819 108.038 297.368C106.375 308.036 84.3293 290.42 83.6172 279.663C83.3613 275.796 84.378 271.949 84.3855 268.076C84.3919 264.653 82.8922 261.363 82.8358 257.929C82.3433 227.943 76.4299 223.732 72.1408 205.24L65.1987 176.239H108.827Z" fill="#211F2D"/>
<path d="M43.6589 400.075C48.3492 397.835 52.4833 395.47 53.6459 393.061L54.1642 371.755C54.3455 370.171 54.6892 368.237 53.1402 368.022L46.0989 367.05C44.7182 366.859 43.4287 367.727 43.0633 369.093C42.2789 372.028 39.5223 381.745 39.5223 381.745C34.9401 386.259 30.3582 390.776 25.7763 395.29C24.3783 396.668 22.8921 398.074 22.7554 400.075C22.7509 400.14 43.6589 400.075 43.6589 400.075Z" fill="#B1B1B0"/>
<path d="M54.0271 377.386C53.5836 377.317 55.1739 388.77 49.9513 389.625C49.6164 389.676 49.2785 389.702 48.9391 389.709L48.5258 384.873C48.5258 384.873 41.1058 381.447 35.5458 381.88L34.2606 384.52L18.4544 393.212C17.1467 394.501 15.1708 396.448 14.9875 399.137C14.9615 399.514 15.13 399.945 15.4385 400.402H55.3861C55.3861 400.402 54.4706 377.452 54.0271 377.386Z" fill="#1B1918"/>
<path d="M123.367 400C123.367 400 122.408 396.626 121.346 395.235L110.902 381.56C110.902 381.56 109.587 372.713 109.232 370.045C109.067 368.802 108.042 367.873 106.82 367.853L100.589 367.746C99.2183 367.724 98.0897 368.847 98.0709 370.253L97.3599 389.518C98.5719 393.203 99.9872 396.417 101.589 399.942L123.367 400Z" fill="#B1B1B0"/>
<path d="M122.386 394.401L115.32 385.148L114.344 382.217C109.558 381.088 102.724 383.069 102.724 383.069L101.826 387.231C101.532 387.18 101.241 387.111 100.955 387.02C96.5089 385.569 97.9336 377.954 97.5402 377.954C97.1469 377.951 92.4868 400.402 92.4868 400.402H124.704C124.72 400.282 124.733 400.16 124.74 400.038C124.88 397.666 123.379 395.701 122.386 394.401Z" fill="#1B1918"/>
<path d="M45.378 174.02C38.8983 212.918 42.1022 284.601 43.7819 295.149C45.4807 305.818 68.0092 288.201 68.7368 277.444C68.9985 273.578 67.9595 269.731 67.9519 265.856C67.945 262.435 68.7419 259.056 69.5353 255.711C73.9183 237.218 83.1752 218.726 87.5582 200.233V174.02H45.378Z" fill="#211F2D"/>
<path d="M39.7376 374.697C39.463 359.377 39.724 344.054 39.9849 328.734C40.1158 321.038 40.247 313.34 40.3782 305.645C40.5629 294.801 41.1973 283.816 45.1921 273.587C46.3844 270.534 65.5831 262.657 67.9523 265.856C67.9523 265.856 69.551 280.945 70.5522 287.78C71.2108 292.277 70.3162 296.829 69.4243 301.292C64.578 325.555 62.0454 350.434 57.1989 374.697H39.7376Z" fill="#211F2D"/>
<path d="M112.381 375.93C112.649 360.612 112.009 346.273 111.754 330.952C111.625 323.257 111.497 315.559 111.369 307.863C111.188 297.02 110.567 286.034 106.658 275.805C105.491 272.753 86.7036 264.875 84.3855 268.076C84.3855 268.076 82.8207 283.164 81.8411 289.998C81.1965 294.495 82.0722 299.047 82.9448 303.511C87.6874 327.773 89.9463 351.732 94.6892 375.995L112.381 375.93Z" fill="#211F2D"/>
<path d="M59.8356 190.199C59.1195 190.199 58.6393 190.197 58.4473 190.195C54.8452 190.15 44.1255 187.038 42.5723 184.616C46.5651 163.989 44.1353 151.557 41.7852 139.531C40.4637 132.765 38.9567 118.108 38.9567 118.108C37.5127 115.402 35.8458 95.1609 37.0756 86.8153L63.6053 75.67L75.8913 79.3437H78.3697L90.6562 75.67L117.186 86.8153C118.416 95.1609 116.749 115.402 115.305 118.108C115.305 118.108 113.444 133.118 111.751 139.944C108.886 151.497 105.924 163.443 109.941 183.868L109.959 183.959C109.161 185.164 103.196 188.252 100.286 188.711C90.9434 190.184 61.1011 190.199 59.8356 190.199Z" fill="#D3D8EC"/>
<path d="M81.799 90.6797L86.4335 86.1874L83.6781 78.6604L77.1305 78.0792L70.5831 78.6604L67.8277 86.1874L72.4624 90.6797L65.1987 161.269L77.1305 175.212L89.0625 161.269L81.799 90.6797Z" fill="#8796CE"/>
<path d="M89.885 69.596L77.1304 78.0792L81.7989 79.0331L85.5415 98.3886L97.9859 78.8135L89.885 69.596Z" fill="#EBEEF6"/>
<path d="M64.3759 69.596L77.1305 78.0792L72.4622 79.0331L68.7194 98.3886L56.2749 78.8135L64.3759 69.596Z" fill="#EBEEF6"/>
<path d="M31.934 87.1169C29.2938 89.1756 24.7438 93.4128 24.473 95.6844C24.2022 97.9561 18.3903 145.98 16.8821 159.162C15.9454 171.869 40.0099 172.013 41.4916 168.503C42.9734 164.994 51.2655 114.578 51.2655 114.578L41.1786 85.0316C41.1786 85.0316 34.7199 84.9451 31.934 87.1169Z" fill="#262335"/>
<path d="M120.34 86.3738L95.983 76.5352L88.5049 134.24L87.5586 205.974C96.9027 212.341 114.133 210.149 116.023 207.753C117.913 205.36 114.828 189.294 114.427 186.206C110.197 153.556 116.422 118.705 116.422 118.705C116.422 118.705 121.779 94.2846 120.34 86.3738Z" fill="#262335"/>
<path d="M66.703 133.752L58.2788 76.5351L34.5868 85.8657C33.1479 93.7787 37.8392 118.705 37.8392 118.705C37.8392 118.705 46.0823 152.988 40.7976 185.152C40.5678 187.959 37.2894 205.495 38.6508 207.447C40.012 209.397 60.3623 213.887 68.6453 208.408L66.703 133.752Z" fill="#262335"/>
<path d="M132.679 166.709C132.918 165.111 127.569 149.696 121.22 147.5C114.871 145.306 54.4796 139.023 54.4796 139.023C54.4796 139.023 51.3546 144.261 52.4265 148.325C52.4265 148.325 97.0292 163.392 102.926 165.205C108.822 167.017 132.439 168.306 132.679 166.709Z" fill="#F79285"/>
<path d="M57.0679 139.828C57.0679 139.828 44.9024 134.935 44.1201 134.533V152.211L55.3193 148.436L57.0679 139.828Z" fill="#F79285"/>
<path d="M64.0284 136.645L60.165 154.53C60.165 154.53 100.486 166.999 117.041 170.467C133.596 173.932 140.583 167.711 139.177 162.059C137.771 156.409 132.985 148.034 122.728 145.527C112.472 143.021 64.0284 136.645 64.0284 136.645Z" fill="#262335"/>
<path d="M25.4835 167.356C25.5448 165.741 30.7285 147.504 37.3746 146.523C44.0207 145.545 111.807 155.543 111.807 155.543C111.807 155.543 108.784 164.854 106.308 165.859C106.308 165.859 72.3307 167.146 60.2431 168.63C54.1198 169.38 25.4225 168.971 25.4835 167.356Z" fill="#F79285"/>
<path d="M101.149 164.739C104.823 166.738 109.024 167.246 112.991 168.366C114.609 168.823 116.54 169.196 117.68 168.073C118.321 167.443 118.532 166.487 118.716 165.58C119.31 162.665 116.78 158.487 117.375 154.676C117.792 152.001 117.939 146.317 116.566 146.477C112.951 146.896 107.047 152.724 103.248 154.634C102.703 154.907 102.246 155.333 101.924 155.865C100.67 157.946 98.032 163.044 101.149 164.739Z" fill="#F79285"/>
<path d="M116.477 157.043C120.317 157.136 122.921 156.961 125.959 156.247C127.863 155.799 129.95 154.15 135.675 150.727C137.803 149.454 134.91 147.881 132.648 148.915C129.265 150.461 129.91 150.352 125.732 151.706C122.341 152.806 119.196 151.397 115.847 151.899C113.594 152.236 114.186 156.99 116.477 157.043Z" fill="#F79285"/>
<path d="M116.748 161.362C122.149 160.987 124.012 161.562 127.454 160.67C130.069 159.994 131.35 158.913 135.547 157.318C138.426 156.224 136.657 153.057 133.783 154.148C129.486 155.781 127.976 156.4 127.976 156.4C123.576 157.627 119 156.559 114.536 157.241C111.531 157.7 113.706 161.573 116.748 161.362Z" fill="#F79285"/>
<path d="M116.44 164.799C121.024 165.671 125.391 166.043 127.569 165.682C128.578 165.513 132.815 163.803 133.991 163.392C135.807 162.756 137.21 161.453 137.21 161.453C137.999 160.548 136.974 159.044 135.726 159.335C134.269 159.674 129.585 161.356 126.413 161.893C121.914 162.656 119.289 160.238 114.795 160.462C111.771 160.613 113.436 164.226 116.44 164.799Z" fill="#F79285"/>
<path d="M114.871 168.807C118.921 169.453 120.357 169.189 122.132 169.24C122.955 169.264 125.946 168.734 127.805 168.674C128.804 168.641 131.588 168.124 131.588 168.124C132.318 167.438 131.722 166.163 130.695 166.21C129.497 166.265 127.259 166.438 124.672 166.376C121.002 166.287 117.59 164.577 113.985 164C111.559 163.612 112.44 168.417 114.871 168.807Z" fill="#F79285"/>
<path d="M115.3 155.927C116.962 152.631 117.938 150.375 119.492 149.807C121.177 149.192 123.436 148.34 124.417 147.728C125.399 147.116 126.42 145.672 126.526 144.478C126.738 142.076 122.326 143.684 119.023 144.301C116.395 144.793 115.011 145.74 113.861 146.843C112.432 148.212 107.548 153.092 107.548 153.092L115.3 155.927Z" fill="#F79285"/>
<path d="M97.9864 168.991L101.868 150.51C101.868 150.51 41.7772 143.939 36.6476 143.307C31.5181 142.675 23.0242 149.383 21.9352 156.149C20.8461 162.917 21.7174 168.404 28.6867 169.905C35.6563 171.405 97.9864 168.991 97.9864 168.991Z" fill="#262335"/>
<path d="M89.0088 53.77C90.061 54.0628 91.2144 53.841 92.1896 53.3596C93.1647 52.8804 93.9876 52.1594 94.7623 51.4118C96.8074 49.4441 98.7092 46.9639 98.5642 44.1842C98.5156 43.2525 98.2006 42.2897 97.4729 41.6752C96.6063 40.9453 95.2862 40.8566 94.2158 41.267C93.1452 41.6752 92.303 42.5138 91.6808 43.4477L89.0088 53.77Z" fill="#F79285"/>
<path d="M63.4343 53.77C62.3819 54.0628 61.2287 53.841 60.2536 53.3596C59.2782 52.8804 58.4555 52.1594 57.6806 51.4118C55.6354 49.4441 53.7337 46.9639 53.8789 44.1842C53.9275 43.2525 54.2425 42.2897 54.9699 41.6752C55.8366 40.9453 57.1567 40.8566 58.2273 41.267C59.2977 41.6752 60.1401 42.5138 60.7623 43.4477L63.4343 53.77Z" fill="#F79285"/>
<path d="M93.1899 55.1144C93.9995 46.4161 96.2693 41.3448 97.6722 36.3201C98.6742 32.5555 99.6884 26.1222 95.3076 20.4497C90.979 14.5576 80.1143 11.2123 70.1671 14.0274C60.1497 16.8492 54.5922 22.7036 55.8053 29.3655C56.4178 33.3564 56.9929 38.8735 57.6598 42.9886C58.2134 46.4116 57.1721 49.8435 58.4381 53.1755C60.7957 58.9123 69.9074 68.9727 77.0841 68.9727C82.949 68.9727 92.6312 58.9101 93.1899 55.1144Z" fill="#F79285"/>
<path d="M77.4017 49.1313C77.2722 49.1313 77.1215 49.0514 76.997 48.8717C76.9111 48.7497 76.85 48.5833 76.8256 48.3925C76.8052 48.2039 76.8241 47.9909 76.8953 47.7868C76.9686 47.5827 77.0862 47.4053 77.2201 47.2744C77.3575 47.1435 77.5082 47.0548 77.651 47.0149C77.7218 46.9949 77.7875 46.986 77.8474 46.986C78.0321 46.986 78.1613 47.0725 78.2102 47.1901C78.2792 47.3521 78.2423 47.5362 78.2141 47.707C78.1806 47.88 78.142 48.0442 78.0783 48.2172C78.019 48.3925 77.9467 48.5456 77.8643 48.7009C77.7795 48.8495 77.6925 49.0159 77.5378 49.098C77.4971 49.1202 77.4509 49.1313 77.4017 49.1313Z" fill="#FABDB5"/>
<path d="M76.2559 48.8096C76.2281 48.6898 76.2044 48.5833 76.1857 48.4879C76.1686 48.3925 76.1529 48.3082 76.1411 48.2239C76.1302 48.1374 76.124 48.0398 76.1278 47.9289C76.1311 47.818 76.1444 47.6937 76.1602 47.5695C76.1928 47.3166 76.2317 47.0593 76.2184 46.8396C76.2068 46.62 76.1451 46.4403 76.0204 46.3294C75.8956 46.2207 75.7744 46.2229 75.6419 46.3139C75.5102 46.4049 75.3624 46.5867 75.2112 46.8552C75.064 47.1191 74.9064 47.4852 74.8663 47.9267C74.8456 48.1441 74.864 48.377 74.9129 48.5944C74.9606 48.8118 75.0412 49.0181 75.1342 49.2156C75.2277 49.4108 75.3364 49.5838 75.4494 49.7458C75.5633 49.9055 75.6845 50.0474 75.7999 50.1717C76.0337 50.4224 76.2548 50.6176 76.4388 50.7618C76.8106 51.048 77.0333 51.1522 77.1558 50.9548C77.2704 50.7684 77.2595 50.54 77.0588 50.2072C76.9609 50.0408 76.8157 49.85 76.6561 49.6193C76.5775 49.504 76.4956 49.3775 76.4237 49.2422C76.3549 49.1091 76.2938 48.9627 76.2559 48.8096Z" fill="#D2503A"/>
<path d="M82.7645 38.3455C83.8118 38.0727 84.9015 38.0217 85.9688 38.1792C87.0363 38.3344 89.5777 40.9477 88.6221 40.686C87.6711 40.4198 86.7266 40.2179 85.7752 40.0759C84.8236 39.9339 83.8662 39.8541 82.8894 39.8363C81.9098 39.8097 81.7203 38.6273 82.7645 38.3455Z" fill="#1B1918"/>
<path d="M69.8159 38.2502C68.764 38.0018 67.6736 37.9751 66.6092 38.1592C65.5448 38.3389 63.0497 41.0143 64.0005 40.7303C64.9468 40.4419 65.8875 40.2157 66.8363 40.0493C67.7853 39.8851 68.7409 39.7853 69.7172 39.7431C70.6963 39.6921 70.8648 38.5053 69.8159 38.2502Z" fill="#1B1918"/>
<path d="M69.3759 45.9124L69.3633 43.6008C69.3571 42.4894 68.4414 41.5843 67.3281 41.5888C66.2149 41.5954 65.309 42.5116 65.315 43.623L65.3278 45.9346C65.3338 47.0482 69.3822 47.0261 69.3759 45.9124Z" fill="#1B1918"/>
<path d="M83.2881 45.9124L83.3007 43.6008C83.307 42.4894 84.2226 41.5843 85.3359 41.5888C86.4491 41.5954 87.355 42.5116 87.349 43.623L87.3361 45.9346C87.3301 47.0482 83.2819 47.0261 83.2881 45.9124Z" fill="#1B1918"/>
<path d="M72.642 53.3175C74.2651 55.6823 77.4488 56.614 80.0965 55.527C80.3327 55.4294 80.3911 55.0855 80.2772 54.8837C80.1401 54.6396 79.8706 54.6042 79.6337 54.7018C77.4949 55.5825 74.7714 54.7572 73.4662 52.8561C73.1252 52.3592 72.297 52.8162 72.642 53.3175Z" fill="#C34128"/>
<path d="M98.9577 32.3957C99.4206 29.92 99.6226 27.4132 99.2128 24.9397C98.5744 21.0863 96.1488 17.2951 92.392 16.0417C94.4451 14.6884 94.634 11.5849 93.362 9.49965C92.0901 7.41214 89.7793 6.16981 87.4782 5.28024C79.7171 2.2854 70.4942 2.41851 63.4028 6.73108C56.3391 11.0281 52.3785 21.1906 54.0094 27.7104C55.6403 34.2303 56.3533 37.6289 60.8598 37.376C64.8501 37.1498 68.3809 34.8049 71.4192 32.2471C74.4574 29.6915 79.0127 25.0883 82.6079 23.3691C85.4442 22.0114 88.9537 21.5544 91.8002 22.6791C95.1141 29.8601 94.2695 38.0904 94.6158 46.5802C95.6318 43.4899 97.1435 39.7186 97.9999 36.502C98.36 35.151 98.6994 33.7778 98.9577 32.3957Z" fill="#642C26"/>
<path d="M57.8296 46.2474L59.7926 24.7401C59.7926 24.7401 56.6999 21.9937 55.1731 23.267C53.6464 24.5404 57.8296 46.2474 57.8296 46.2474Z" fill="#642C26"/>
</svg>
