<svg width="587" height="692" viewBox="0 0 587 692" fill="none" xmlns="http://www.w3.org/2000/svg">
<path d="M345.821 691.687H70.2433V655.518H345.821V691.687Z" fill="#0A0B0B"/>
<path d="M394.268 423.593C401.622 423.782 406.541 416.224 403.274 409.752L351.916 308.056C350.825 305.494 349.576 303.013 348.166 300.632L348.16 300.619V300.62C337.569 282.743 318.327 270.331 295.828 269.089L150.342 261.064L150.295 261L149.214 261.019L148.979 261.01C148.822 261.01 148.669 261.033 148.511 261.034L124.406 261.483C82.2832 262.27 44.3182 289.032 32.6774 328.762C32.2078 330.364 31.7803 331.985 31.3936 333.626L1.22595 434.067C-0.845228 440.961 4.19826 447.939 11.5138 448.3L83.987 451.886L60.6605 641.887C59.745 649.333 65.6702 655.888 73.3128 655.888H347.863C354.073 655.888 359.083 650.902 358.992 644.81L358.891 422.61L394.268 423.593Z" fill="#000685"/>
<path d="M148.952 261.684L148.79 261.695L148.519 261.708L124.421 262.157C82.1149 262.947 44.6875 290.391 33.405 328.897C32.942 330.48 32.5145 332.103 32.1319 333.722L1.95241 434.209C1.03157 437.274 1.58407 440.527 3.4682 443.134C5.35096 445.74 8.29856 447.327 11.551 447.488L84.0263 451.074C84.2355 451.083 84.4311 451.18 84.5675 451.336C84.7024 451.495 84.7645 451.699 84.7388 451.904L61.4123 641.905C61.0015 645.244 62.0701 648.6 64.3438 651.115C66.616 653.632 69.8871 655.075 73.3127 655.075H347.863C350.663 655.075 353.287 653.996 355.251 652.042C357.216 650.084 358.275 647.497 358.234 644.751L358.133 422.54C358.133 422.339 358.214 422.146 358.361 422.007C358.508 421.866 358.693 421.787 358.912 421.796L394.286 422.779C397.479 422.91 400.399 421.337 402.115 418.701C403.831 416.064 404.009 412.818 402.595 410.014L351.237 308.318C350.132 305.728 348.886 303.259 347.511 300.936C336.649 282.599 317.314 270.949 295.785 269.761L150.298 261.736L150.045 261.678L149.228 261.693L148.952 261.684ZM347.863 656.562H73.3127C69.452 656.562 65.7702 654.936 63.2085 652.103C60.6498 649.269 59.4463 645.489 59.9086 641.728L83.1381 452.518L11.474 448.972C7.7556 448.79 4.38585 446.975 2.23237 443.994C0.0770702 441.013 -0.554708 437.293 0.499372 433.788L30.6665 333.345C31.0431 331.743 31.4783 330.095 31.9484 328.488C43.4133 289.359 81.4268 261.472 124.392 260.67L148.682 260.21L148.979 260.197L149.242 260.207L150.281 260.187L150.636 260.265L295.87 268.277C317.91 269.492 337.703 281.418 348.815 300.175C350.231 302.569 351.507 305.096 352.615 307.699L403.953 409.355C405.607 412.629 405.396 416.422 403.393 419.501C401.389 422.58 397.937 424.389 394.248 424.267H394.245L359.648 423.306L359.75 644.74C359.795 647.876 358.583 650.843 356.33 653.085C354.079 655.327 351.072 656.562 347.863 656.562Z" fill="#0A0B0B"/>
<path d="M437.865 331.503C446.758 315.507 449.789 296.176 441.795 279.213L431.561 282.875C431.561 282.875 421.762 255.178 420.18 234.954C416.246 228.075 387.786 242.587 387.786 242.587C387.786 242.587 390.611 235.037 392.024 231.262C393.522 227.261 395.042 222.997 394.146 218.826C393.252 214.655 388.891 210.906 384.762 212.231C380.698 213.535 373.004 230.059 370.579 233.947C355.98 257.356 356.158 287.976 358.722 314.441C360.091 328.546 353.587 473.784 356.067 480.233C371.052 519.166 426.893 519.956 443.003 481.457C445.051 473.883 446.226 466.138 446.524 458.371C446.929 447.869 429.194 353.932 428.92 350.744C428.535 346.276 430.693 342.343 433.192 338.599C434.804 336.185 436.56 333.852 437.865 331.503Z" fill="#F5E9D7"/>
<path d="M386.498 212.703C386.019 212.703 385.517 212.772 384.997 212.938C382.226 213.829 376.783 224.057 373.861 229.552C372.728 231.679 371.834 233.36 371.225 234.337C356.262 258.329 357.087 289.711 359.477 314.371C360.097 320.763 359.118 353.685 358.081 388.541C356.855 429.798 355.465 476.559 356.776 479.97C363.597 497.691 379.825 508.869 399.13 509.139C418.443 509.342 434.971 498.692 442.301 481.176C444.293 473.788 445.469 466.076 445.766 458.343C446.061 450.708 436.535 397.779 431.417 369.341C429.505 358.711 428.241 351.687 428.165 350.807C427.76 346.111 430.037 341.968 432.558 338.192C433.046 337.46 433.549 336.734 434.048 336.014C435.209 334.338 436.306 332.755 437.201 331.148C446.781 313.915 448.296 295.37 441.395 280.149L431.82 283.573C431.632 283.64 431.42 283.632 431.235 283.546C431.051 283.461 430.91 283.307 430.844 283.119C430.747 282.841 421.053 255.262 419.439 235.188C416.562 230.901 398.782 237.819 388.136 243.246C387.862 243.388 387.519 243.349 387.286 243.145C387.051 242.941 386.968 242.619 387.074 242.33L391.313 231.007C392.637 227.47 394.284 223.067 393.405 218.979C392.934 216.778 391.353 214.633 389.381 213.516C388.659 213.107 387.653 212.703 386.498 212.703ZM399.844 510.631C399.599 510.631 399.355 510.63 399.109 510.627C379.169 510.347 362.404 498.8 355.359 480.496C354.039 477.066 354.981 441.843 356.565 388.496C357.602 353.689 358.58 320.812 357.967 314.512C355.554 289.622 354.734 257.927 369.932 233.559C370.515 232.626 371.441 230.882 372.516 228.865C377.075 220.294 381.424 212.52 384.527 211.525C386.322 210.944 388.318 211.197 390.139 212.228C392.502 213.567 394.322 216.036 394.889 218.673C395.856 223.177 394.128 227.803 392.738 231.52L389.162 241.067C395.836 237.81 417.123 228.079 420.842 234.591L420.936 234.898C422.352 253.001 430.498 277.445 432.029 281.916L441.536 278.514C441.901 278.383 442.318 278.55 442.483 278.901C449.915 294.67 448.475 313.973 438.53 331.859C437.601 333.53 436.432 335.219 435.301 336.852C434.807 337.564 434.31 338.283 433.825 339.008C431.085 343.115 429.329 346.672 429.675 350.682C429.745 351.494 431.072 358.871 432.911 369.084C438.037 397.574 447.581 450.606 447.282 458.398C446.981 466.241 445.788 474.065 443.735 481.648C436.225 499.611 419.463 510.631 399.844 510.631Z" fill="#0A0B0B"/>
<path d="M382.14 258.107L408.631 284.013L428.426 246.281L424.204 229.137L388.229 242.247L382.14 258.107Z" fill="#0A0B0B"/>
<path d="M424.173 297.224C417.085 298.426 410.347 293.762 409.122 286.807L397.16 218.801C395.935 211.846 400.69 205.234 407.778 204.034C414.864 202.834 421.603 207.498 422.825 214.453L434.791 282.459C436.014 289.414 431.26 296.024 424.173 297.224Z" fill="#FF832A"/>
<path d="M410.018 204.589C409.316 204.589 408.611 204.648 407.907 204.767C404.678 205.315 401.859 207.062 399.97 209.688C398.081 212.316 397.349 215.508 397.907 218.675L409.87 286.68C410.427 289.848 412.208 292.613 414.885 294.467C417.564 296.32 420.81 297.04 424.044 296.493C430.709 295.364 435.194 289.125 434.043 282.585L422.078 214.58C421.521 211.412 419.74 208.646 417.065 206.793C414.972 205.344 412.527 204.589 410.018 204.589ZM421.928 298.158C419.108 298.158 416.363 297.309 414.012 295.682C411.005 293.6 409.002 290.492 408.375 286.933L396.412 218.927C395.785 215.368 396.609 211.783 398.733 208.831C400.854 205.88 404.02 203.916 407.649 203.301C411.273 202.686 414.929 203.496 417.938 205.578C420.945 207.66 422.946 210.767 423.572 214.327L435.538 282.332C436.829 289.68 431.788 296.69 424.301 297.958C423.51 298.091 422.714 298.158 421.928 298.158Z" fill="#0A0B0B"/>
<path d="M422.128 214.726L398.116 218.794C393.087 219.644 388.307 216.335 387.439 211.4L386.514 206.148C385.647 201.214 389.02 196.523 394.048 195.67L418.061 191.602C423.089 190.752 427.868 194.061 428.738 198.995L429.661 204.248C430.528 209.182 427.157 213.873 422.128 214.726Z" fill="#FEF7EE"/>
<path d="M422.128 214.725H422.143H422.128ZM419.637 192.214C419.158 192.214 418.676 192.254 418.19 192.336L394.177 196.404C389.569 197.184 386.466 201.499 387.262 206.021L388.186 211.273C388.982 215.795 393.376 218.837 397.987 218.059L421.999 213.992C426.607 213.211 429.71 208.896 428.914 204.375L427.991 199.121C427.278 195.077 423.685 192.214 419.637 192.214ZM396.54 219.668C391.767 219.668 387.531 216.295 386.69 211.526L385.767 206.274C384.83 200.943 388.488 195.858 393.919 194.937L417.932 190.87C423.365 189.95 428.546 193.539 429.485 198.87L430.409 204.122C431.345 209.453 427.688 214.538 422.257 215.457L398.245 219.525C397.672 219.622 397.102 219.668 396.54 219.668Z" fill="#0A0B0B"/>
<path d="M357.217 183.289L350.222 184.473C346.804 185.053 343.554 182.803 342.966 179.449L342.741 178.184C342.153 174.832 344.443 171.643 347.862 171.064L354.857 169.879L357.217 183.289Z" fill="#F5E9D7"/>
<path d="M354.24 170.738L347.99 171.797C344.992 172.306 342.972 175.114 343.489 178.059L343.711 179.322C343.963 180.749 344.763 181.994 345.97 182.828C347.175 183.664 348.641 183.988 350.093 183.741L356.341 182.682L354.24 170.738ZM349.138 185.309C347.699 185.309 346.296 184.875 345.095 184.043C343.558 182.98 342.538 181.393 342.218 179.575L341.996 178.312C341.336 174.56 343.91 170.979 347.733 170.331L354.73 169.147C354.925 169.113 355.13 169.159 355.295 169.272C355.459 169.385 355.569 169.557 355.606 169.752L357.964 183.163C357.999 183.356 357.952 183.557 357.836 183.718C357.72 183.878 357.544 183.988 357.346 184.022L350.351 185.206C349.946 185.275 349.541 185.309 349.138 185.309Z" fill="#0A0B0B"/>
<path d="M428.991 200.44L392.3 206.656C374.373 209.692 357.331 197.894 354.236 180.304L353.07 173.672C349.975 156.082 361.998 139.359 379.925 136.323L416.618 130.107L428.991 200.44Z" fill="#FF832A"/>
<path d="M416 130.967L380.054 137.055C362.568 140.018 350.799 156.386 353.817 173.545L354.983 180.178C358.002 197.335 374.678 208.884 392.171 205.923L428.115 199.834L416 130.967ZM386.68 207.875C370.593 207.875 356.317 196.503 353.488 180.43L352.323 173.798C349.164 155.832 361.487 138.691 379.796 135.59L416.489 129.374C416.895 129.307 417.294 129.575 417.365 129.981L429.739 200.314C429.772 200.509 429.727 200.708 429.61 200.869C429.495 201.031 429.319 201.14 429.12 201.174L392.429 207.39C390.498 207.717 388.576 207.875 386.68 207.875Z" fill="#0A0B0B"/>
<path d="M416.618 130.107L428.991 200.44C457.397 195.629 486.669 199.758 512.842 212.27L570.771 239.964L536.687 46.2263L491.574 91.375C471.191 111.773 445.024 125.295 416.618 130.107Z" fill="#F5E9D7"/>
<path d="M416.618 130.107L415.871 130.233L428.244 200.567C428.277 200.76 428.391 200.936 428.553 201.049C428.717 201.162 428.923 201.206 429.12 201.174C436.785 199.875 444.516 199.231 452.23 199.231C472.942 199.231 493.543 203.872 512.51 212.939L570.439 240.632C570.695 240.755 570.998 240.727 571.225 240.559C571.454 240.391 571.566 240.112 571.518 239.837L537.432 46.0999C537.384 45.8232 537.184 45.6001 536.911 45.5168C536.639 45.432 536.344 45.5049 536.145 45.7057L491.032 90.8544C470.759 111.143 444.737 124.589 416.489 129.374C416.075 129.444 415.799 129.829 415.871 130.233L416.618 130.107L416.747 130.84C445.31 126 471.621 112.404 492.115 91.8956L536.191 47.7837L569.772 238.659L513.174 211.602C494.002 202.437 473.172 197.744 452.23 197.744C444.43 197.744 436.614 198.395 428.862 199.707L428.991 200.44L429.737 200.314L417.364 129.981L416.618 130.107L416.747 130.84L416.618 130.107Z" fill="#0A0B0B"/>
<path d="M579.958 138.652C589.416 192.41 586.304 237.816 573.009 240.068C559.716 242.32 541.272 200.565 531.815 146.808C522.356 93.0484 525.467 47.6423 538.762 45.3904C552.055 43.1385 570.499 84.8929 579.958 138.652Z" fill="#FEF7EE"/>
<path d="M579.958 138.652L579.212 138.779C582.9 159.745 584.672 179.437 584.672 195.763C584.673 208.49 583.591 219.177 581.525 226.787C580.494 230.59 579.213 233.621 577.742 235.738C576.262 237.862 574.639 239.037 572.881 239.335C572.58 239.385 572.277 239.41 571.969 239.41C570.525 239.412 568.952 238.848 567.269 237.684C564.325 235.653 561.129 231.801 557.93 226.454C548.311 210.403 538.59 180.982 532.561 146.68C528.873 125.713 527.099 106.018 527.101 89.6927C527.099 76.965 528.18 66.2794 530.246 58.6699C531.277 54.8666 532.557 51.8352 534.029 49.7187C535.509 47.5961 537.132 46.4211 538.89 46.1236C539.191 46.073 539.494 46.0477 539.801 46.0477C541.246 46.0462 542.819 46.61 544.502 47.7746C547.446 49.8049 550.641 53.6573 553.841 59.0045C563.46 75.0551 573.181 104.476 579.212 138.779L579.958 138.652L580.705 138.526C576.088 112.292 569.341 88.9133 562.073 72.0491C558.437 63.6155 554.674 56.8106 550.949 52.0703C549.084 49.7008 547.229 47.8431 545.376 46.5594C543.526 45.2788 541.657 44.5618 539.801 44.5603C539.409 44.5603 539.018 44.5931 538.633 44.6585C536.341 45.0467 534.387 46.5609 532.777 48.8813C530.358 52.3737 528.589 57.761 527.389 64.6894C526.193 71.6162 525.585 80.084 525.585 89.6927C525.585 106.123 527.366 125.89 531.067 146.934C535.683 173.166 542.431 196.545 549.698 213.409C553.334 221.843 557.097 228.648 560.822 233.388C562.687 235.757 564.542 237.615 566.394 238.899C568.245 240.181 570.114 240.898 571.969 240.898C572.362 240.898 572.753 240.865 573.138 240.8C575.43 240.411 577.384 238.897 578.994 236.577C581.413 233.084 583.182 227.697 584.382 220.767C585.58 213.839 586.188 205.371 586.188 195.763C586.188 179.333 584.407 159.567 580.705 138.526L579.958 138.652Z" fill="#0A0B0B"/>
<path d="M575.231 137.593C582.833 180.798 580.332 217.29 569.649 219.1C558.964 220.91 544.141 187.353 536.54 144.146C528.938 100.942 531.439 64.4498 542.122 62.6411C552.807 60.8295 567.631 94.3868 575.231 137.593Z" fill="#F5E9D7"/>
<path d="M514.656 130.517L540.344 126.167C550.836 124.388 560.809 131.294 562.62 141.588C564.432 151.884 557.395 161.67 546.903 163.447L521.215 167.799L514.656 130.517Z" fill="#FF832A"/>
<path d="M514.656 130.517L514.785 131.251L540.473 126.899C541.54 126.719 542.601 126.631 543.647 126.631C552.489 126.631 560.318 132.87 561.873 141.715C562.058 142.762 562.146 143.803 562.146 144.829C562.146 153.507 555.787 161.189 546.774 162.714L521.833 166.94L515.403 130.391L514.656 130.517L514.785 131.251L514.656 130.517L513.91 130.644L520.469 167.926C520.54 168.33 520.932 168.602 521.345 168.533L547.032 164.18C556.783 162.526 563.662 154.222 563.662 144.829C563.662 143.718 563.566 142.594 563.367 141.462C561.682 131.895 553.219 125.143 543.647 125.143C542.515 125.143 541.367 125.239 540.215 125.433L514.527 129.784C514.115 129.854 513.839 130.239 513.91 130.644L514.656 130.517Z" fill="#0A0B0B"/>
<path d="M575.231 137.593L574.484 137.719C577.449 154.563 578.872 170.383 578.872 183.494C578.872 193.714 578.004 202.294 576.347 208.389C575.523 211.437 574.498 213.858 573.328 215.539C572.153 217.226 570.88 218.138 569.52 218.367C569.287 218.407 569.052 218.426 568.812 218.426C567.69 218.428 566.455 217.989 565.12 217.065C562.784 215.454 560.222 212.372 557.657 208.084C549.942 195.212 542.13 171.576 537.287 144.02C534.322 127.177 532.899 111.357 532.899 98.2452C532.899 88.0253 533.767 79.4459 535.424 73.3505C536.249 70.3043 537.273 67.8813 538.443 66.2021C539.618 64.5138 540.891 63.6035 542.251 63.373C542.484 63.3343 542.719 63.315 542.959 63.315C544.081 63.3136 545.316 63.7508 546.651 64.676C548.987 66.2869 551.55 69.3688 554.114 73.6555C561.829 86.5275 569.641 110.165 574.484 137.719L575.231 137.593L575.979 137.467C572.267 116.374 566.842 97.5759 560.995 84.0093C558.07 77.2223 555.043 71.7457 552.037 67.92C550.532 66.0072 549.031 64.505 547.524 63.4608C546.021 62.4181 544.49 61.8276 542.959 61.8276C542.636 61.8276 542.313 61.8544 541.993 61.908C540.1 62.2292 538.496 63.4787 537.191 65.3632C535.225 68.2012 533.804 72.5459 532.836 78.1266C531.872 83.7059 531.384 90.5167 531.383 98.2452C531.384 111.461 532.815 127.354 535.792 144.274C539.504 165.366 544.929 184.164 550.776 197.732C553.701 204.517 556.728 209.994 559.736 213.821C561.239 215.734 562.74 217.236 564.247 218.28C565.75 219.321 567.281 219.912 568.812 219.913C569.137 219.913 569.458 219.887 569.778 219.833C571.671 219.512 573.275 218.262 574.58 216.376C576.546 213.538 577.967 209.194 578.935 203.614C579.899 198.035 580.387 191.223 580.388 183.494C580.387 170.279 578.956 154.386 575.979 137.467L575.231 137.593Z" fill="#0A0B0B"/>
<path d="M424.204 128.603L436.214 199.413L424.204 128.603Z" fill="#F5E9D7"/>
<path d="M436.212 200.156C435.85 200.156 435.529 199.899 435.467 199.535L423.455 128.725C423.387 128.319 423.666 127.937 424.078 127.87C424.485 127.799 424.882 128.075 424.952 128.481L436.963 199.291C437.029 199.697 436.752 200.079 436.338 200.146L436.212 200.156Z" fill="#0A0B0B"/>
<path d="M450.766 241.534L450.858 241.821C452.318 246.334 449.751 251.198 445.154 252.63L418.986 260.784C414.388 262.218 409.43 259.699 407.972 255.187L407.878 254.899C406.418 250.387 408.984 245.524 413.583 244.091L439.75 235.936C444.349 234.503 449.304 237.023 450.766 241.534Z" fill="#F5E9D7"/>
<path d="M442.4 236.275C441.598 236.275 440.784 236.395 439.981 236.645L413.812 244.799C409.601 246.113 407.264 250.542 408.601 254.674L408.693 254.961C409.337 256.954 410.744 258.586 412.649 259.554C414.558 260.524 416.727 260.709 418.757 260.076L444.924 251.921C449.136 250.609 451.473 246.18 450.136 242.048L450.042 241.759C448.962 238.415 445.798 236.275 442.4 236.275ZM416.339 261.934C414.832 261.934 413.335 261.579 411.952 260.877C409.686 259.724 408.016 257.783 407.249 255.412L407.155 255.125C405.566 250.21 408.346 244.944 413.353 243.382L439.521 235.228C444.533 233.666 449.897 236.395 451.489 241.31L451.581 241.597C453.171 246.511 450.391 251.778 445.383 253.34L419.214 261.494C418.272 261.788 417.304 261.934 416.339 261.934Z" fill="#0A0B0B"/>
<path d="M445.6 224.193L445.692 224.481C447.153 228.993 444.586 233.856 439.988 235.289L413.821 243.444C409.222 244.878 404.266 242.358 402.806 237.847L402.713 237.559C401.252 233.047 403.82 228.183 408.417 226.751L434.585 218.596C439.183 217.163 444.14 219.681 445.6 224.193Z" fill="#F5E9D7"/>
<path d="M437.234 218.935C436.432 218.935 435.618 219.054 434.815 219.304L408.648 227.459C406.617 228.091 404.954 229.472 403.967 231.343C402.979 233.212 402.791 235.341 403.435 237.332L403.529 237.621C404.173 239.614 405.578 241.246 407.485 242.214C409.395 243.184 411.564 243.368 413.592 242.736L439.758 234.581C441.789 233.947 443.452 232.568 444.438 230.697C445.427 228.828 445.615 226.699 444.971 224.706L444.877 224.419C443.794 221.075 440.632 218.935 437.234 218.935ZM411.175 244.593C409.668 244.594 408.17 244.237 406.788 243.535C404.522 242.384 402.851 240.443 402.084 238.072L401.99 237.783C401.222 235.412 401.446 232.882 402.621 230.659C403.796 228.433 405.771 226.794 408.188 226.042L434.355 217.886C439.362 216.324 444.731 219.055 446.321 223.968L446.415 224.255C447.184 226.628 446.959 229.158 445.786 231.381C444.611 233.607 442.635 235.246 440.217 235.998L414.05 244.154C413.107 244.448 412.14 244.593 411.175 244.593Z" fill="#0A0B0B"/>
<path d="M450.856 259.319L450.882 259.395C452.325 263.851 449.789 268.654 445.25 270.069L427.398 275.632C422.858 277.048 417.962 274.559 416.522 270.105L416.498 270.026C415.055 265.571 417.589 260.768 422.131 259.354L439.979 253.791C444.52 252.376 449.415 254.863 450.856 259.319Z" fill="#F5E9D7"/>
<path d="M442.591 254.136C441.792 254.136 440.99 254.256 440.208 254.5L422.361 260.062C418.206 261.356 415.901 265.726 417.22 269.801C418.564 273.954 423.017 276.216 427.171 274.924L445.021 269.361C447.023 268.736 448.663 267.377 449.638 265.531C450.611 263.685 450.796 261.586 450.161 259.621L450.135 259.544C449.498 257.578 448.113 255.97 446.232 255.013C445.084 254.43 443.841 254.136 442.591 254.136ZM424.783 276.776C420.789 276.776 417.071 274.26 415.801 270.329C414.203 265.394 416.951 260.187 421.902 258.644L439.749 253.083C442.139 252.337 444.69 252.555 446.929 253.692C449.169 254.832 450.822 256.749 451.58 259.093L451.605 259.169C452.365 261.515 452.143 264.017 450.984 266.215C449.823 268.413 447.869 270.033 445.48 270.778L427.628 276.341C426.684 276.636 425.726 276.776 424.783 276.776Z" fill="#0A0B0B"/>
<path d="M455.734 275.763L455.827 276.051C457.288 280.563 454.72 285.426 450.123 286.859L441.286 289.613C436.688 291.046 431.73 288.526 430.271 284.015L430.178 283.726C428.717 279.215 431.285 274.353 435.884 272.919L444.719 270.166C449.318 268.732 454.273 271.251 455.734 275.763Z" fill="#F5E9D7"/>
<path d="M447.369 270.505C446.565 270.505 445.751 270.624 444.948 270.873L436.112 273.628C434.081 274.26 432.418 275.639 431.432 277.51C430.443 279.381 430.255 281.51 430.9 283.502L430.994 283.79C431.638 285.783 433.044 287.413 434.95 288.383C436.86 289.353 439.029 289.537 441.057 288.904L449.894 286.151C451.925 285.517 453.586 284.138 454.575 282.267C455.562 280.397 455.749 278.269 455.104 276.276L455.013 275.989C453.931 272.645 450.767 270.505 447.369 270.505ZM438.639 290.762C437.133 290.762 435.636 290.406 434.253 289.704C431.986 288.551 430.316 286.612 429.549 284.241L429.455 283.952C428.688 281.581 428.911 279.05 430.086 276.826C431.26 274.602 433.235 272.963 435.653 272.211L444.489 269.456C449.498 267.894 454.866 270.624 456.457 275.538L456.459 275.541L456.55 275.828C457.317 278.197 457.094 280.728 455.919 282.951C454.746 285.175 452.769 286.814 450.352 287.568L441.515 290.321C440.572 290.616 439.605 290.762 438.639 290.762Z" fill="#0A0B0B"/>
<path d="M387.387 244.05C387.387 244.05 390.611 235.037 392.024 231.262C393.522 227.261 395.042 222.997 394.146 218.826C393.252 214.656 388.891 210.906 384.762 212.231C380.698 213.536 373.004 230.059 370.579 233.947" fill="#F5E9D7"/>
<path d="M388.103 244.295L386.673 243.803C386.673 243.803 389.901 234.785 391.313 231.007C392.637 227.469 394.284 223.067 393.405 218.979C392.934 216.778 391.353 214.633 389.381 213.516C388.362 212.938 386.775 212.371 384.997 212.938C382.226 213.828 376.783 224.057 373.861 229.552C372.728 231.679 371.834 233.36 371.225 234.337C371.005 234.688 370.533 234.792 370.183 234.582C369.826 234.368 369.713 233.91 369.932 233.559C370.515 232.626 371.441 230.882 372.516 228.865C377.076 220.294 381.424 212.52 384.527 211.525C386.322 210.944 388.318 211.197 390.139 212.228C392.502 213.567 394.322 216.036 394.889 218.673C395.856 223.177 394.128 227.803 392.738 231.52C391.324 235.29 388.103 244.295 388.103 244.295Z" fill="#0A0B0B"/>
<path d="M380.216 268.854H380.207C379.789 268.849 379.454 268.513 379.458 268.101C379.552 259.92 386.402 244.408 386.693 243.752C386.863 243.374 387.31 243.206 387.692 243.367C388.076 243.531 388.25 243.969 388.082 244.346C388.013 244.505 381.065 260.237 380.974 268.119C380.97 268.526 380.63 268.854 380.216 268.854Z" fill="#0A0B0B"/>
<path d="M327.858 74.536C328.211 74.0616 328.523 73.5633 328.74 73.0085C332.83 68.4704 335.547 62.674 336.163 56.177C337.703 39.8676 325.48 25.4175 308.857 23.9048C307.455 23.7769 306.074 23.7799 304.707 23.8394C290.05 11.418 279.827 -2.01768 254.13 1.22783C244.224 2.47874 235.019 7.48831 229.383 15.5813C228.599 16.7073 227.911 17.9165 227.284 19.1629C226.779 20.1654 213.673 21.6067 211.93 22.0812C199.683 25.407 184.017 30.3571 177.907 42.2594C175.204 47.5233 174.351 53.4565 174.127 59.3868C164.891 66.5829 161.13 79.3136 164.857 90.8365L174.486 120.601C176.502 120.104 178.6 119.811 180.769 119.811H193.047C193.798 121.068 194.55 122.331 195.288 123.613C199.101 130.223 201.568 137.249 201.274 144.936C217.157 123.144 293.171 128.828 310.041 128.828C326.912 128.828 340.589 115.407 340.589 98.8521C340.589 88.8285 335.557 79.9785 327.858 74.536Z" fill="#0A0B0B"/>
<path d="M180.769 119.067H193.046C193.315 119.067 193.563 119.206 193.7 119.435C194.453 120.695 195.206 121.962 195.949 123.247C199.868 130.046 201.874 136.472 202.044 142.82C218.155 125.365 273.552 127.044 300.601 127.864C304.642 127.987 307.833 128.084 310.041 128.084C326.468 128.084 339.831 114.97 339.831 98.8522C339.831 89.4994 335.19 80.6359 327.415 75.14C327.251 75.024 327.141 74.8484 327.109 74.6521C327.077 74.4572 327.127 74.2564 327.247 74.0973C327.615 73.602 327.865 73.1721 328.032 72.7423L328.171 72.5162C332.326 67.9067 334.829 62.2338 335.406 56.1072C336.134 48.4173 333.765 40.9103 328.737 34.9666C323.71 29.0244 316.624 25.3595 308.788 24.6456C307.572 24.5355 306.287 24.5161 304.74 24.5816C304.54 24.5994 304.36 24.5266 304.21 24.4016C302.145 22.6524 300.155 20.8705 298.23 19.1466C286.284 8.45512 275.974 -0.783112 254.227 1.96561C244.162 3.23734 235.335 8.35251 230.009 16.0007C229.312 17.0003 228.643 18.1426 227.964 19.4917C227.572 20.2726 225.95 20.7322 216.576 22.0887C214.562 22.3802 212.658 22.6554 212.132 22.7982C198.02 26.6313 184.187 31.681 178.583 42.5941C176.326 46.9908 175.151 52.3351 174.884 59.4137C174.875 59.6323 174.772 59.8346 174.598 59.9685C165.555 67.0158 161.93 79.3285 165.579 90.6119L174.995 119.718C176.95 119.286 178.89 119.067 180.769 119.067ZM201.274 145.68L201.03 145.64C200.713 145.534 200.504 145.237 200.516 144.908C200.775 138.143 198.849 131.297 194.627 123.979C193.964 122.826 193.289 121.687 192.611 120.555H180.769C178.79 120.555 176.741 120.812 174.671 121.322C174.281 121.418 173.885 121.2 173.764 120.826L164.134 91.0611C160.333 79.3077 164.049 66.4788 173.382 59.0195C173.573 54.4338 174.207 47.8134 177.231 41.9247C183.098 30.4955 197.279 25.2881 211.727 21.3643C212.344 21.1963 214.114 20.9404 216.355 20.6161C219.632 20.1431 225.666 19.2685 226.664 18.7167C227.355 17.3542 228.04 16.1911 228.757 15.1604C234.327 7.16408 243.539 1.81688 254.034 0.490112C276.462 -2.34042 287.536 7.5612 299.252 18.0489C301.1 19.7014 303.005 21.409 304.975 23.0838C306.456 23.0317 307.725 23.0555 308.927 23.1641C317.167 23.9153 324.617 27.7691 329.904 34.0162C335.19 40.2648 337.68 48.1599 336.918 56.2454C336.311 62.6443 333.712 68.5731 329.396 73.4027C329.263 73.721 329.098 74.0349 328.893 74.3621C336.705 80.1615 341.347 89.2629 341.347 98.8522C341.347 115.791 327.304 129.572 310.041 129.572C307.808 129.572 304.607 129.473 300.552 129.351C275.086 128.575 215.447 126.768 201.89 145.369C201.746 145.569 201.514 145.68 201.274 145.68Z" fill="#0A0B0B"/>
<path d="M267.866 77.4945C264.707 75.842 261.544 73.9827 258.001 73.4755C249.257 72.2216 241.247 79.4266 232.413 79.1901C226.06 79.0206 220.068 74.5226 218.237 68.5507C223.44 94.8495 217.157 123.144 201.274 144.936C201.568 137.249 199.101 130.223 195.288 123.613C194.55 122.331 193.798 121.068 193.047 119.811H180.769C178.6 119.811 176.502 120.104 174.486 120.601C163.201 123.381 154.768 133.421 154.768 145.325V147.814C154.768 161.847 166.467 173.329 180.769 173.329H187.706L180.76 258.506C178.728 283.409 197.656 305.213 223.035 307.206L227.519 307.559C252.897 309.552 275.117 290.979 277.149 266.075L279.765 233.992C302.703 233.618 321.19 215.285 321.19 192.687V92.9932C321.19 88.6559 320.471 84.4927 319.2 80.5689C317.152 81.7871 314.986 82.7985 312.741 83.5556C298.047 88.5057 281.576 84.6667 267.866 77.4945Z" fill="#F5E9D7"/>
<path d="M180.769 120.555C178.79 120.555 176.741 120.812 174.671 121.322C163.399 124.098 155.526 133.968 155.526 145.325V147.815C155.526 161.473 166.849 172.586 180.769 172.586H187.706C187.919 172.586 188.12 172.672 188.263 172.824C188.407 172.977 188.479 173.181 188.461 173.389L181.514 258.565C180.549 270.411 184.341 281.917 192.195 290.965C200.049 300.013 211.022 305.517 223.095 306.464L227.579 306.817C239.648 307.772 251.377 304.044 260.598 296.338C269.817 288.632 275.427 277.863 276.394 266.016L279.01 233.932C279.042 233.552 279.363 233.256 279.754 233.248C302.183 232.884 320.432 214.687 320.432 192.687V92.9932C320.432 89.2048 319.868 85.4045 318.755 81.6875C316.883 82.7361 314.946 83.5988 312.986 84.2592C295.1 90.2847 276.815 83.0187 267.51 78.1504L266.403 77.5659C263.693 76.1291 260.889 74.6417 257.892 74.2103C253.455 73.5782 249.237 75.2068 244.768 76.9322C240.801 78.4643 236.683 80.0424 232.393 79.9339C227.429 79.8015 222.706 77.1851 219.809 73.2762C223.376 98.2601 216.832 124.87 201.89 145.369C201.697 145.635 201.347 145.746 201.03 145.64C200.713 145.534 200.504 145.237 200.516 144.908C200.776 138.143 198.849 131.297 194.627 123.979C193.964 122.826 193.289 121.687 192.611 120.555H180.769ZM231.273 308.45C230.006 308.45 228.734 308.401 227.458 308.3L222.974 307.947C210.498 306.968 199.158 301.279 191.041 291.929C182.926 282.579 179.006 270.689 180.005 258.446L186.885 174.073H180.769C166.014 174.073 154.01 162.293 154.01 147.815V145.325C154.01 133.286 162.353 122.822 174.301 119.88C176.493 119.34 178.668 119.067 180.769 119.067H193.046C193.315 119.067 193.563 119.206 193.7 119.435C194.453 120.695 195.206 121.962 195.949 123.247C199.814 129.954 201.818 136.296 202.035 142.561C216.7 121.305 222.476 93.8768 217.492 68.692C217.416 68.3038 217.663 67.923 218.055 67.8278C218.451 67.7327 218.847 67.9588 218.962 68.3351C220.71 74.0333 226.376 78.2858 232.434 78.4464C236.471 78.555 240.389 77.026 244.212 75.549C248.671 73.8266 253.278 72.0476 258.11 72.7393C261.375 73.2063 264.298 74.7577 267.126 76.2585L268.222 76.837C277.311 81.5938 295.149 88.6991 312.495 82.8521C314.646 82.1277 316.77 81.146 318.805 79.9323C319.009 79.8148 319.25 79.7941 319.466 79.8714C319.683 79.9517 319.851 80.1257 319.923 80.3443C321.266 84.4897 321.948 88.7467 321.948 92.9932V192.687C321.948 215.268 303.402 233.983 280.467 234.719L277.903 266.135C276.906 278.377 271.11 289.506 261.58 297.47C253.028 304.618 242.385 308.45 231.273 308.45Z" fill="#0A0B0B"/>
<path d="M193.877 173.39L185.689 195.368L180.556 173.312L193.877 173.39Z" fill="#0A0B0B"/>
<path d="M181.508 174.061L185.857 192.752L192.795 174.128L181.508 174.061ZM185.689 196.112H185.642C185.305 196.09 185.025 195.856 184.951 195.535L179.818 173.477C179.767 173.255 179.821 173.023 179.967 172.846C180.111 172.669 180.387 172.58 180.561 172.568L193.882 172.647C194.129 172.648 194.359 172.767 194.5 172.967C194.641 173.166 194.674 173.419 194.59 173.646L186.401 195.624C186.291 195.919 186.006 196.112 185.689 196.112Z" fill="#0A0B0B"/>
<path d="M177.155 138.371L186.691 148.783L177.767 154.492" fill="#F5E9D7"/>
<path d="M177.769 155.235C177.522 155.235 177.279 155.116 177.134 154.898C176.906 154.554 177.005 154.093 177.355 153.868L185.536 148.634L176.591 138.868C176.311 138.563 176.337 138.091 176.649 137.818C176.958 137.544 177.44 137.566 177.719 137.874L187.255 148.286C187.403 148.448 187.471 148.665 187.443 148.88C187.414 149.095 187.291 149.287 187.106 149.406L178.184 155.115C178.055 155.197 177.911 155.235 177.769 155.235Z" fill="#0A0B0B"/>
<path d="M279.553 159.244H272.265C271.846 159.244 271.507 158.911 271.507 158.5C271.507 158.09 271.846 157.756 272.265 157.756H279.553C281.954 157.756 284.215 156.721 285.758 154.917C287.301 153.113 287.949 150.746 287.532 148.426L283.031 123.327C282.959 122.924 283.234 122.539 283.645 122.468C284.045 122.392 284.452 122.666 284.523 123.072L289.025 148.17C289.519 150.923 288.752 153.731 286.919 155.873C285.087 158.015 282.402 159.244 279.553 159.244Z" fill="#0A0B0B"/>
<path d="M303.395 136.507C303.916 139.332 302.005 142.037 299.128 142.548C296.248 143.061 293.492 141.185 292.97 138.361C292.451 135.536 294.36 132.832 297.239 132.32C300.117 131.809 302.875 133.683 303.395 136.507Z" fill="#0A0B0B"/>
<path d="M274.946 206.729C274.708 206.79 274.45 206.774 274.206 206.668C273.962 206.56 268.13 204.047 263.8 208.544C263.384 208.977 262.688 208.997 262.242 208.587C261.8 208.176 261.778 207.492 262.197 207.058C267.631 201.421 275.049 204.668 275.125 204.7C275.675 204.949 275.918 205.59 275.665 206.131C275.525 206.438 275.254 206.647 274.946 206.729Z" fill="#0A0B0B"/>
<path d="M232.493 117.272C235.132 117.568 238.067 116.384 240.968 115.4C243.871 114.348 246.808 113.365 249.394 112.597C251.985 111.825 254.992 111.042 258 110.336C260.97 109.572 264.098 108.953 266.091 107.281C268.028 105.697 268.117 102.786 264.481 100.32C261.034 97.8928 253.507 96.3757 244.93 98.9043C236.375 101.472 231.079 106.802 229.68 110.67C228.16 114.671 229.957 117.019 232.493 117.272Z" fill="#0A0B0B"/>
<path d="M314.464 113.026C312.498 113.392 310.323 112.538 308.169 111.848C306.017 111.102 303.834 110.415 301.915 109.892C299.993 109.367 297.762 108.849 295.527 108.397C293.32 107.896 291 107.521 289.525 106.215C288.094 104.983 288.045 102.56 290.766 100.337C293.348 98.1561 298.961 96.5512 305.327 98.2706C311.678 100.023 315.584 104.228 316.598 107.391C317.708 110.659 316.353 112.7 314.464 113.026Z" fill="#0A0B0B"/>
<path d="M257.287 138.309C257.048 141.441 254.265 143.788 251.074 143.553C247.88 143.318 245.488 140.587 245.728 137.455C245.97 134.322 248.752 131.975 251.942 132.212C255.133 132.447 257.528 135.178 257.287 138.309Z" fill="#0A0B0B"/>
<path d="M245.529 143.846C245.529 143.846 250.704 140.195 255.723 144.547L245.529 143.846Z" fill="#F5E9D7"/>
<path d="M255.723 145.29C255.544 145.29 255.365 145.229 255.221 145.104C250.734 141.215 246.163 144.316 245.97 144.45C245.629 144.688 245.155 144.611 244.912 144.277C244.67 143.943 244.747 143.48 245.087 143.242C245.143 143.201 250.819 139.301 256.225 143.99C256.538 144.261 256.569 144.731 256.291 145.039C256.141 145.206 255.932 145.29 255.723 145.29Z" fill="#0A0B0B"/>
<path d="M294.062 143.479C294.062 143.479 298.75 141.419 303.073 143.569L294.062 143.479Z" fill="#F5E9D7"/>
<path d="M303.073 144.313L302.731 144.233C298.777 142.265 294.415 144.138 294.371 144.157C293.989 144.322 293.54 144.157 293.371 143.782C293.199 143.407 293.371 142.969 293.753 142.799C293.957 142.71 298.817 140.617 303.417 142.906C303.79 143.092 303.94 143.54 303.751 143.906C303.616 144.164 303.349 144.313 303.073 144.313Z" fill="#0A0B0B"/>
<path d="M243.969 160.398C245.976 159.088 248.644 159.41 250.422 161.008C253.661 163.917 260.708 169.08 270.805 170.088C273.283 170.337 274.564 173.166 273.5 175.378C271.16 180.238 264.893 187.733 251.848 181.73C235.957 174.418 238.738 163.812 243.969 160.398Z" fill="#FEF7EE"/>
<path d="M244.391 161.017C242.488 162.257 240.369 165.03 240.651 168.762C241.006 173.435 245.096 177.802 252.17 181.057C265.3 187.098 270.981 178.873 272.815 175.059C273.256 174.143 273.212 173.026 272.703 172.141C272.265 171.378 271.563 170.913 270.729 170.829C260.451 169.801 253.273 164.578 249.91 161.557C248.338 160.142 246.069 159.921 244.389 161.017H244.391ZM260.757 184.686C258.134 184.686 255.074 184.036 251.529 182.404C241.285 177.691 239.369 171.903 239.14 168.872C238.867 165.274 240.6 161.704 243.549 159.778H243.551C245.808 158.304 248.847 158.583 250.934 160.459C254.158 163.358 261.039 168.365 270.882 169.349C272.201 169.482 273.345 170.233 274.023 171.411C274.781 172.727 274.841 174.329 274.185 175.695C272.982 178.195 269.047 184.686 260.757 184.686Z" fill="#0A0B0B"/>
<path d="M279.495 234.228C279.495 234.228 232.121 237.228 220.428 218.398C220.428 218.398 230.958 249.45 277.371 260.249L279.495 234.228Z" fill="#0A0B0B"/>
<path d="M223.646 223.32C228.857 232.461 243.296 251.292 276.686 259.322L278.67 235.02C272.566 235.316 238.266 236.36 223.646 223.32ZM277.371 260.993L277.197 260.972C230.908 250.203 219.815 218.947 219.708 218.633C219.587 218.273 219.759 217.882 220.109 217.723C220.454 217.568 220.875 217.687 221.075 218.011C232.395 236.242 278.977 233.52 279.447 233.486C279.666 233.476 279.88 233.553 280.035 233.708C280.189 233.861 280.268 234.072 280.25 234.289L278.126 260.308C278.11 260.524 277.996 260.722 277.817 260.85C277.687 260.944 277.531 260.993 277.371 260.993Z" fill="#0A0B0B"/>
<path d="M13.0609 555.711L17.276 448.604L131.866 452.216C131.825 452.866 142.774 372.655 142.724 373.304L131.866 452.216L116.611 451.755L115.082 487.391C115.082 487.391 218.968 435.26 227.86 424.749C227.86 424.749 257.927 395.326 269.93 387.342C271.219 386.487 272.553 385.64 274.058 385.258C275.565 384.873 277.289 385.017 278.49 385.988C280.05 387.251 280.312 389.485 280.223 391.468C279.947 397.629 277.461 403.407 274.981 409.114C275.712 408.882 351.639 384.2 355.818 383.167C363.01 381.388 362.665 391.132 357.569 396.418C351.063 403.168 320.826 418.793 319.181 419.171C326.481 418.905 333.46 417.456 335.208 429.122C336.411 437.171 329.152 439.408 321.784 440.243C326.433 440.411 330.421 441.934 330.85 447.356C332.681 456.52 324.92 460.237 317.182 461.175C316.95 461.203 316.912 461.504 317.131 461.587C323.479 464.029 319.087 475.481 309.743 478.81L257.516 500.42C252.156 502.794 112.32 607.176 112.32 607.176C96.1224 618.303 77.319 620.785 60.4225 616.556C32.3754 609.536 13.1734 584.117 13.0609 555.711Z" fill="#F5E9D7"/>
<path d="M13.8188 555.725C13.9384 584.253 33.1777 608.97 60.6104 615.836C78.4634 620.304 96.6756 617.013 111.885 606.567C117.572 602.319 251.827 502.123 257.204 499.742L309.447 478.124C315.515 475.961 319.306 470.303 319.357 466.295C319.374 464.908 318.956 463.088 316.853 462.28C316.435 462.117 316.182 461.702 316.236 461.267C316.291 460.834 316.641 460.494 317.087 460.436C322.546 459.774 326.686 457.875 328.744 455.087C330.247 453.052 330.706 450.5 330.106 447.498C329.763 443.221 327.113 441.178 321.757 440.987C321.361 440.973 321.043 440.662 321.026 440.273C321.011 439.884 321.303 439.55 321.698 439.504C327.711 438.822 331.37 437.408 333.215 435.053C334.409 433.529 334.815 431.622 334.457 429.229C332.96 419.229 327.726 419.488 321.076 419.83C320.459 419.859 319.836 419.892 319.21 419.914C318.796 419.904 318.483 419.65 318.431 419.27C318.378 418.891 318.63 418.536 319.009 418.446C320.994 417.918 350.707 402.454 357.017 395.908C360.352 392.45 361.317 387.306 359.952 385.018C359.222 383.8 357.892 383.423 356.003 383.888C354.337 384.3 339.523 388.954 278.423 408.781C276.453 409.421 275.301 409.794 275.214 409.821C274.934 409.912 274.623 409.83 274.422 409.616C274.222 409.4 274.167 409.091 274.284 408.821C276.697 403.269 279.193 397.526 279.466 391.435C279.572 389.039 279.096 387.443 278.006 386.562C277.1 385.826 275.692 385.612 274.249 385.976C272.882 386.324 271.626 387.113 270.355 387.958C258.548 395.811 228.695 424.982 228.396 425.277C219.555 435.732 119.675 485.92 115.426 488.053C115.188 488.17 114.901 488.16 114.673 488.015C114.445 487.874 114.313 487.623 114.324 487.358L115.822 452.454L18.0049 449.371L13.8188 555.725ZM76.2246 619.27C70.9193 619.27 65.564 618.609 60.2345 617.277C32.1295 610.241 12.4179 584.927 12.303 555.714V555.683L16.5181 448.575C16.5348 448.168 16.8485 447.863 17.2998 447.86L131.207 451.45L141.543 376.261C141.657 375.441 141.746 374.8 141.823 374.297L141.973 373.204L142.022 373.211C142.199 372.499 142.38 372.521 142.804 372.56C143.212 372.603 143.512 372.96 143.48 373.362L139.077 405.368C138.875 406.836 138.672 408.31 138.472 409.779L133.144 448.587C132.995 449.655 132.883 450.467 132.788 451.083L132.616 452.316C132.595 452.484 132.516 452.63 132.403 452.743C132.257 453.006 132.083 452.99 131.792 452.96L131.766 452.957L117.336 452.52L115.894 486.146C127.32 480.386 219.086 433.956 227.278 424.274C227.626 423.929 257.581 394.658 269.506 386.726C270.891 385.805 272.268 384.946 273.867 384.537C275.781 384.052 277.687 384.377 278.972 385.414C280.453 386.614 281.109 388.606 280.98 391.501C280.72 397.297 278.578 402.686 276.335 407.892C276.785 407.746 277.324 407.572 277.947 407.37C339.09 387.528 353.941 382.863 355.633 382.445C359.065 381.589 360.634 383.22 361.26 384.269C363.138 387.416 361.701 393.214 358.119 396.93C352.83 402.417 331.678 413.963 322.992 418.255C328.845 418.063 334.432 418.827 335.958 429.014C336.372 431.787 335.854 434.124 334.417 435.959C332.576 438.309 329.443 439.55 326.357 440.252C329.593 441.364 331.32 443.697 331.605 447.298C332.276 450.635 331.732 453.577 329.972 455.96C327.371 459.481 322.747 461.022 318.84 461.685C320.186 462.716 320.899 464.312 320.873 466.314C320.814 470.916 316.73 477.111 310.002 479.509L257.81 501.106C253.649 502.949 161.121 571.682 112.778 607.766C101.722 615.364 89.1315 619.27 76.2246 619.27Z" fill="#0A0B0B"/>
<path d="M115.293 468.997L70.2433 510.667L115.082 488.17L115.293 468.997Z" fill="#0A0B0B"/>
<path d="M274.325 410.06L246.075 422.986C246.075 422.986 272.562 402.353 277.888 400.702L274.325 410.06Z" fill="#0A0B0B"/>
<path d="M303.437 423.936C303.437 423.936 320.614 418.351 323.594 418.223L303.437 423.936Z" fill="#F5E9D7"/>
<path d="M303.437 424.68C303.119 424.68 302.821 424.484 302.717 424.171C302.585 423.782 302.802 423.361 303.197 423.231C303.902 423.002 320.509 417.612 323.56 417.48C323.965 417.46 324.33 417.781 324.352 418.191C324.368 418.601 324.044 418.948 323.626 418.967C321.267 419.067 308.425 423.097 303.675 424.643L303.437 424.68Z" fill="#0A0B0B"/>
<path d="M323.321 440.012L307.367 444.898L323.321 440.012Z" fill="#F5E9D7"/>
<path d="M307.367 445.642C307.046 445.642 306.746 445.438 306.644 445.122C306.52 444.729 306.743 444.312 307.141 444.189L323.094 439.303C323.501 439.179 323.918 439.4 324.044 439.791C324.168 440.182 323.945 440.6 323.547 440.723L307.595 445.609L307.367 445.642Z" fill="#0A0B0B"/>
<path d="M316.092 461.289L307.44 463.733L316.092 461.289Z" fill="#F5E9D7"/>
<path d="M307.44 464.477C307.11 464.477 306.808 464.266 306.713 463.94C306.597 463.544 306.829 463.132 307.231 463.019L315.883 460.574C316.291 460.456 316.705 460.689 316.821 461.083C316.937 461.478 316.705 461.89 316.303 462.003L307.651 464.449L307.44 464.477Z" fill="#0A0B0B"/>
</svg>
