<svg width="48" height="48" viewBox="0 0 48 48" fill="none" xmlns="http://www.w3.org/2000/svg">
<path d="M35.9998 40H23.9998C23.6462 40 23.3071 39.8595 23.057 39.6095C22.807 39.3594 22.6665 39.0203 22.6665 38.6667V36C22.6665 35.6464 22.807 35.3072 23.057 35.0572C23.3071 34.8071 23.6462 34.6667 23.9998 34.6667H35.9998C36.3535 34.6667 36.6926 34.8071 36.9426 35.0572C37.1927 35.3072 37.3332 35.6464 37.3332 36V38.6667C37.3332 39.0203 37.1927 39.3594 36.9426 39.6095C36.6926 39.8595 36.3535 40 35.9998 40Z" fill="#D6B1FF"/>
<path d="M35.9998 8H11.9998C11.6462 8 11.3071 8.14047 11.057 8.39052C10.807 8.64057 10.6665 8.97971 10.6665 9.33333V12C10.6665 12.3536 10.807 12.6928 11.057 12.9428C11.3071 13.1929 11.6462 13.3333 11.9998 13.3333H35.9998C36.3535 13.3333 36.6926 13.1929 36.9426 12.9428C37.1927 12.6928 37.3332 12.3536 37.3332 12V9.33333C37.3332 8.97971 37.1927 8.64057 36.9426 8.39052C36.6926 8.14047 36.3535 8 35.9998 8Z" fill="#2EC5CE"/>
<path d="M35.9998 16H11.9998C11.6462 16 11.3071 16.1405 11.057 16.3905C10.807 16.6406 10.6665 16.9797 10.6665 17.3333V30.6667C10.6665 31.0203 10.807 31.3594 11.057 31.6095C11.3071 31.8595 11.6462 32 11.9998 32H35.9998C36.3535 32 36.6926 31.8595 36.9426 31.6095C37.1927 31.3594 37.3332 31.0203 37.3332 30.6667V17.3333C37.3332 16.9797 37.1927 16.6406 36.9426 16.3905C36.6926 16.1405 36.3535 16 35.9998 16Z" fill="#8C30F5"/>
</svg>
