<svg width="765" height="765" viewBox="0 0 765 765" fill="none" xmlns="http://www.w3.org/2000/svg">
<path d="M600.143 410.713L488.866 368.638C487.038 367.947 485.364 366.902 483.94 365.564C482.516 364.225 481.369 362.619 480.567 360.837C479.764 359.055 479.32 357.132 479.261 355.179C479.201 353.225 479.528 351.279 480.221 349.452L538.453 195.442C539.849 191.75 542.655 188.764 546.253 187.14C549.851 185.516 553.947 185.387 557.639 186.782L628.218 213.466L661.541 290.425L619.329 402.115C617.92 405.796 615.11 408.768 611.513 410.38C607.916 411.992 603.827 412.112 600.143 410.713Z" fill="#F5F5F5"/>
<path d="M628.218 213.466L611.816 256.811C611.172 258.511 610.869 260.322 610.925 262.14C610.981 263.958 611.394 265.747 612.141 267.405C612.889 269.063 613.955 270.558 615.281 271.804C616.606 273.049 618.163 274.022 619.864 274.666L661.541 290.425L628.218 213.466Z" fill="#EBEBEB"/>
<path d="M610.944 260.834C610.944 260.834 606.431 271.147 617.064 279.194C617.466 279.494 617.885 279.77 618.319 280.021C623.398 283.081 656.814 302.971 657.12 302.16L661.526 290.501L619.849 274.742C619.849 274.742 609.598 270.382 610.944 260.834Z" fill="#E0E0E0"/>
<path d="M603.157 251.517C602.943 252.083 591.253 248.166 577.04 242.796C562.826 237.425 551.473 232.606 551.688 232.086C551.902 231.566 563.591 235.436 577.805 240.807C592.018 246.177 603.371 250.92 603.157 251.517Z" fill="#E0E0E0"/>
<path d="M627.132 288.604C626.917 289.155 607.792 282.484 584.399 273.595C561.005 264.705 542.201 257.116 542.415 256.55C542.63 255.984 561.755 262.67 585.164 271.575C608.573 280.48 627.3 288.038 627.132 288.604Z" fill="#E0E0E0"/>
<path d="M627.024 311.952C626.81 312.502 605.972 305.143 580.467 295.489C554.961 285.835 534.459 277.573 534.674 277.022C534.888 276.471 555.726 283.83 581.232 293.485C606.737 303.139 627.3 311.386 627.024 311.952Z" fill="#E0E0E0"/>
<path d="M619.726 331.26C619.512 331.811 598.674 324.452 573.169 314.797C547.663 305.143 527.161 296.82 527.376 296.33C527.59 295.841 548.428 303.139 573.934 312.778C599.439 322.417 619.941 330.694 619.726 331.26Z" fill="#E0E0E0"/>
<path d="M612.429 350.569C612.214 351.12 591.36 343.76 565.871 334.106C540.381 324.452 519.864 316.19 520.062 315.639C520.261 315.088 541.115 322.447 566.636 332.086C592.156 341.725 612.627 350.003 612.429 350.569Z" fill="#E0E0E0"/>
<path d="M605.115 369.877C604.916 370.428 584.062 363.054 558.572 353.415C533.082 343.776 512.55 335.498 512.764 334.948C512.978 334.397 533.817 341.756 559.322 351.395C584.827 361.034 605.329 369.311 605.115 369.877Z" fill="#E0E0E0"/>
<path d="M229.142 250.824L82.4449 302.197C77.3728 303.973 74.7009 309.525 76.4772 314.597L150.08 524.773C151.856 529.845 157.408 532.517 162.48 530.741L309.178 479.368C314.25 477.592 316.922 472.04 315.145 466.968L241.543 256.792C239.766 251.719 234.215 249.048 229.142 250.824Z" fill="#EBEBEB"/>
<path d="M231.023 263.888L89.1199 313.582L162.07 521.895L303.974 472.201L231.023 263.888Z" fill="#E0E0E0"/>
<path d="M228.484 262.908L86.5806 312.602L158.14 516.944L300.044 467.25L228.484 262.908Z" fill="#FAFAFA"/>
<path d="M300.018 467.247L228.276 262.976L228.536 263.099L86.6591 312.808L86.7968 312.533C113.541 389.278 138.434 460.163 158.309 516.88L158.08 516.773L300.033 467.247L158.187 517.14H158.018V516.972C138.128 460.255 113.312 389.37 86.4143 312.64V312.426H86.6132L228.505 262.762H228.704V262.946L300.018 467.247Z" fill="#E0E0E0"/>
<path d="M249.696 484.872C249.696 484.872 281.29 458.22 286.768 430.466C283.597 434.865 279.569 438.577 274.925 441.377C270.281 444.178 265.118 446.009 259.748 446.76C259.748 446.76 259.121 475.83 249.696 484.872Z" fill="#E0E0E0"/>
<path d="M135.075 358.134L127.609 360.748C124.882 361.703 123.445 364.689 124.4 367.416L127.015 374.882C127.97 377.609 130.955 379.046 133.683 378.091L141.148 375.477C143.876 374.521 145.313 371.536 144.357 368.809L141.743 361.343C140.788 358.616 137.802 357.179 135.075 358.134Z" fill="#EBEBEB"/>
<path d="M134.166 370.994C134.114 371.021 134.056 371.035 133.997 371.035C133.939 371.035 133.881 371.021 133.829 370.994L130.402 369.005C130.319 368.942 130.262 368.85 130.242 368.748C130.221 368.646 130.239 368.539 130.292 368.449C130.344 368.359 130.428 368.291 130.527 368.258C130.626 368.225 130.734 368.23 130.83 368.271L133.89 370.015L137.501 362.365C137.554 362.263 137.643 362.185 137.75 362.145C137.858 362.106 137.976 362.108 138.082 362.151C138.134 362.175 138.181 362.21 138.219 362.253C138.257 362.296 138.286 362.345 138.305 362.4C138.323 362.454 138.331 362.511 138.327 362.568C138.323 362.626 138.307 362.681 138.281 362.732L134.472 370.872C134.432 370.913 134.385 370.945 134.332 370.966C134.279 370.987 134.222 370.997 134.166 370.994Z" fill="white"/>
<path d="M232.147 326.502C232.147 326.624 213.787 333.188 191.005 341.159C168.223 349.131 149.695 355.496 149.695 355.388C149.695 355.281 168.055 348.702 190.852 340.731C213.649 332.76 232.116 326.395 232.147 326.502Z" fill="#E0E0E0"/>
<path d="M188.878 355.909C188.878 355.909 188.404 356.123 187.547 356.459L183.845 357.836C180.785 358.969 176.378 360.514 171.605 362.197C166.831 363.88 162.425 365.379 159.365 366.435L155.616 367.674C155.162 367.841 154.697 367.974 154.224 368.072C154.652 367.848 155.097 367.659 155.555 367.506L159.258 366.144C162.318 364.997 166.724 363.452 171.498 361.769C176.271 360.086 180.678 358.601 183.738 357.53L187.486 356.291C187.938 356.124 188.404 355.996 188.878 355.909Z" fill="#E0E0E0"/>
<path d="M234.09 332.132C234.09 332.24 215.73 338.803 192.933 346.774C170.136 354.746 151.623 361.126 151.623 361.003C151.623 360.881 169.983 354.333 192.795 346.361C215.608 338.39 234.09 332.01 234.09 332.132Z" fill="#E0E0E0"/>
<path d="M145.732 388.578L138.267 391.192C135.539 392.147 134.102 395.133 135.058 397.86L137.672 405.326C138.627 408.053 141.612 409.49 144.34 408.535L151.806 405.92C154.533 404.965 155.97 401.98 155.015 399.252L152.4 391.787C151.445 389.059 148.46 387.623 145.732 388.578Z" fill="#EBEBEB"/>
<path d="M144.83 401.441C144.775 401.468 144.715 401.482 144.654 401.482C144.593 401.482 144.533 401.468 144.478 401.441L141.066 399.452C141.016 399.425 140.973 399.389 140.938 399.344C140.904 399.3 140.878 399.249 140.864 399.195C140.85 399.14 140.847 399.083 140.855 399.028C140.863 398.972 140.883 398.919 140.913 398.871C140.94 398.822 140.977 398.778 141.021 398.743C141.065 398.709 141.116 398.683 141.171 398.669C141.225 398.655 141.282 398.652 141.338 398.66C141.393 398.668 141.447 398.688 141.494 398.718L144.554 400.462L148.165 392.736C148.215 392.635 148.301 392.557 148.406 392.517C148.511 392.477 148.627 392.479 148.731 392.521C148.835 392.568 148.915 392.654 148.955 392.76C148.996 392.866 148.992 392.984 148.945 393.088L145.136 401.243C145.102 401.295 145.057 401.341 145.004 401.375C144.951 401.409 144.892 401.432 144.83 401.441Z" fill="white"/>
<path d="M242.811 356.949C242.811 357.071 224.451 363.62 201.654 371.606C178.857 379.593 160.344 385.943 160.344 385.835C160.344 385.728 178.704 379.149 201.501 371.178C224.298 363.207 242.78 356.842 242.811 356.949Z" fill="#E0E0E0"/>
<path d="M199.542 386.356C199.542 386.356 199.068 386.57 198.196 386.906L194.509 388.283C191.449 389.416 187.042 390.961 182.269 392.644C177.495 394.327 173.089 395.826 170.029 396.882L166.28 398.121C165.826 398.288 165.361 398.421 164.888 398.519C165.314 398.291 165.759 398.102 166.219 397.953L169.922 396.591C172.982 395.444 177.388 393.899 182.162 392.216C186.935 390.533 191.342 389.048 194.402 387.977L198.15 386.738C198.602 386.571 199.068 386.443 199.542 386.356Z" fill="#E0E0E0"/>
<path d="M244.8 362.61C244.8 362.717 226.44 369.281 203.643 377.252C180.846 385.223 162.333 391.604 162.333 391.481C162.333 391.359 180.693 384.81 203.49 376.839C226.287 368.868 244.8 362.457 244.8 362.61Z" fill="#E0E0E0"/>
<path d="M156.405 419.022L148.939 421.636C146.212 422.591 144.775 425.577 145.73 428.304L148.345 435.77C149.3 438.497 152.285 439.934 155.013 438.979L162.478 436.364C165.206 435.409 166.642 432.424 165.687 429.696L163.073 422.231C162.118 419.503 159.132 418.067 156.405 419.022Z" fill="#EBEBEB"/>
<path d="M155.494 431.888C155.439 431.915 155.379 431.929 155.318 431.929C155.257 431.929 155.196 431.915 155.142 431.888L151.715 429.93C151.659 429.906 151.609 429.871 151.568 429.826C151.526 429.781 151.495 429.728 151.476 429.671C151.457 429.613 151.451 429.552 151.457 429.491C151.463 429.431 151.482 429.373 151.513 429.32C151.544 429.268 151.585 429.222 151.634 429.187C151.684 429.152 151.74 429.128 151.8 429.116C151.859 429.104 151.921 429.105 151.98 429.119C152.039 429.133 152.095 429.159 152.143 429.196L155.203 430.94L158.814 423.213C158.835 423.16 158.867 423.111 158.908 423.07C158.949 423.029 158.998 422.997 159.051 422.975C159.105 422.953 159.162 422.943 159.22 422.944C159.278 422.945 159.335 422.958 159.388 422.982C159.44 423.005 159.488 423.04 159.527 423.082C159.566 423.125 159.596 423.175 159.616 423.229C159.635 423.284 159.643 423.342 159.639 423.399C159.635 423.457 159.62 423.514 159.594 423.565L155.784 431.72C155.71 431.808 155.607 431.867 155.494 431.888Z" fill="white"/>
<path d="M253.475 387.396C253.475 387.518 235.115 394.067 212.318 402.053C189.521 410.04 171.008 416.389 171.008 416.267C171.008 416.145 189.368 409.596 212.18 401.625C234.993 393.654 253.429 387.289 253.475 387.396Z" fill="#E0E0E0"/>
<path d="M210.207 416.787C209.772 417.009 209.322 417.198 208.86 417.353L205.158 418.73C202.098 419.863 197.707 421.408 192.918 423.091C188.129 424.774 183.738 426.258 180.678 427.329L176.929 428.568C176.475 428.732 176.009 428.865 175.537 428.966C175.963 428.738 176.408 428.549 176.868 428.4L180.571 427.023C183.631 425.891 188.037 424.345 192.811 422.662C197.584 420.979 201.991 419.495 205.051 418.424L208.784 417.185C209.25 417.026 209.725 416.893 210.207 416.787Z" fill="#E0E0E0"/>
<path d="M255.51 393.026C255.51 393.134 237.15 399.697 214.353 407.669C191.556 415.64 173.043 422.02 173.043 421.898C173.043 421.775 191.403 415.227 214.2 407.24C236.997 399.254 255.403 392.904 255.51 393.026Z" fill="#E0E0E0"/>
<path d="M167.062 449.465L159.596 452.08C156.869 453.035 155.432 456.02 156.387 458.748L159.002 466.213C159.957 468.941 162.942 470.378 165.67 469.422L173.135 466.808C175.863 465.853 177.3 462.868 176.344 460.14L173.73 452.675C172.775 449.947 169.79 448.51 167.062 449.465Z" fill="#EBEBEB"/>
<path d="M166.143 462.335C166.089 462.358 166.032 462.37 165.974 462.37C165.916 462.37 165.859 462.358 165.806 462.335L162.379 460.346C162.281 460.288 162.211 460.192 162.184 460.082C162.157 459.971 162.175 459.855 162.233 459.757C162.292 459.66 162.387 459.59 162.498 459.563C162.608 459.535 162.725 459.553 162.822 459.612L165.882 461.356L169.493 453.706C169.54 453.603 169.626 453.522 169.732 453.482C169.838 453.442 169.956 453.445 170.059 453.492C170.16 453.542 170.238 453.628 170.278 453.733C170.318 453.838 170.316 453.954 170.274 454.058L166.449 462.213C166.366 462.292 166.257 462.335 166.143 462.335Z" fill="white"/>
<path d="M264.139 417.843C264.139 417.965 245.779 424.514 222.982 432.485C200.185 440.456 181.672 446.837 181.672 446.714C181.672 446.592 200.032 440.043 222.829 432.072C245.626 424.101 264.093 417.69 264.139 417.843Z" fill="#E0E0E0"/>
<path d="M220.855 447.234C220.429 447.462 219.984 447.652 219.524 447.8L215.822 449.177C212.762 450.31 208.355 451.855 203.582 453.538C198.808 455.221 194.402 456.705 191.342 457.776L187.593 459.015C186.706 459.291 186.201 459.428 186.201 459.413C186.627 459.185 187.072 458.996 187.532 458.847L191.235 457.47C194.295 456.338 198.701 454.793 203.475 453.11C208.248 451.427 212.655 449.942 215.715 448.871L219.463 447.632C219.918 447.468 220.383 447.335 220.855 447.234Z" fill="#E0E0E0"/>
<path d="M266.113 423.473C266.113 423.581 247.753 430.144 224.956 438.116C202.159 446.087 183.646 452.452 183.646 452.344C183.646 452.237 202.006 445.674 224.803 437.687C247.6 429.701 266.067 423.351 266.113 423.473Z" fill="#E0E0E0"/>
<path d="M102.648 292.689L106.381 303.399C107.425 306.381 109.61 308.826 112.456 310.197C115.302 311.568 118.576 311.754 121.559 310.712L200.048 283.172C201.523 282.657 202.883 281.856 204.048 280.815C205.214 279.774 206.163 278.513 206.841 277.105C207.519 275.696 207.912 274.168 207.999 272.608C208.085 271.047 207.863 269.485 207.346 268.01L203.612 257.3L102.648 292.689Z" fill="#E0E0E0"/>
<path d="M154.178 278.185C152.093 278.918 149.837 279.017 147.696 278.468C145.555 277.918 143.625 276.746 142.151 275.1C140.676 273.453 139.723 271.406 139.413 269.218C139.102 267.029 139.448 264.798 140.406 262.806C141.365 260.814 142.893 259.152 144.796 258.029C146.7 256.906 148.894 256.373 151.101 256.497C153.308 256.622 155.428 257.399 157.193 258.729C158.959 260.06 160.289 261.884 161.017 263.971C161.991 266.763 161.818 269.827 160.536 272.491C159.254 275.156 156.967 277.203 154.178 278.185ZM148.211 261.156C146.925 261.605 145.801 262.425 144.982 263.513C144.162 264.601 143.683 265.907 143.606 267.267C143.53 268.627 143.858 269.979 144.55 271.153C145.241 272.326 146.266 273.268 147.493 273.859C148.72 274.45 150.095 274.664 151.443 274.473C152.792 274.283 154.054 273.696 155.069 272.789C156.085 271.881 156.808 270.692 157.148 269.373C157.488 268.054 157.428 266.664 156.978 265.378C156.374 263.657 155.112 262.245 153.468 261.453C151.824 260.661 149.934 260.554 148.211 261.156Z" fill="#E0E0E0"/>
<path d="M216.908 306C216.908 306.199 196.284 313.65 170.687 322.601C145.09 331.551 124.282 338.666 124.205 338.467C124.129 338.268 144.83 330.817 170.427 321.866C196.023 312.916 216.831 305.74 216.908 306Z" fill="#E0E0E0"/>
<path d="M190.393 309.748C190.393 309.947 181.366 313.329 170.06 317.291C158.753 321.254 149.527 324.36 149.45 324.085C149.374 323.809 158.493 320.504 169.799 316.542C181.106 312.579 190.332 309.55 190.393 309.748Z" fill="#E0E0E0"/>
<path d="M598.23 619.772C603.863 617.128 610.197 616.361 616.299 617.584C619.573 618.12 623 619.114 625.219 621.562C627.437 624.01 627.881 628.356 625.311 630.467C623.651 631.595 621.646 632.1 619.65 631.89C614.861 631.89 609.567 630.987 605.757 633.864C603.569 635.501 602.131 638.224 599.53 639.035C598.221 639.34 596.848 639.206 595.623 638.653C594.398 638.1 593.389 637.159 592.752 635.975C591.516 633.582 591.242 630.806 591.987 628.218C592.308 626.425 593.038 624.73 594.121 623.265C595.204 621.801 596.61 620.605 598.23 619.772Z" fill="#FF832A"/>
<path d="M585.562 595.476C588.928 600.265 595.461 598.689 598.49 595.751C601.52 592.814 602.789 588.576 603.952 584.536C606.614 575.28 609.307 565.58 607.334 556.155C606.842 553.323 605.589 550.678 603.707 548.505C602.748 547.426 601.523 546.619 600.153 546.162C598.784 545.706 597.319 545.617 595.904 545.904C592.6 546.776 590.565 550.004 589.081 553.064C584.717 562.136 582.433 572.068 582.395 582.134C582.395 586.816 582.93 591.712 585.562 595.583" fill="#FF832A"/>
<path d="M576.336 602.361C578.065 600.105 579.216 597.461 579.691 594.659C580.165 591.856 579.949 588.98 579.059 586.281C577.21 580.905 573.918 576.141 569.543 572.511C564.568 568.085 558.779 564.67 552.498 562.459C550.072 561.478 547.462 561.035 544.848 561.158C543.541 561.232 542.272 561.625 541.152 562.302C540.032 562.98 539.095 563.921 538.422 565.044C536.617 568.472 538.422 572.618 540.197 575.999C543.472 581.969 547.217 587.668 551.397 593.043C554.748 597.373 558.588 601.642 563.713 603.6C568.839 605.559 574.133 605.314 576.841 601.78" fill="#FF832A"/>
<path d="M585.347 667.86C585.516 667.148 585.613 666.42 585.638 665.688C585.806 664.158 585.99 662.108 586.22 659.736C586.513 656.802 586.963 653.886 587.566 651C588.343 647.488 589.402 644.045 590.733 640.703C592.04 637.365 593.812 634.228 595.996 631.385C597.776 629.068 600.05 627.176 602.652 625.847C604.414 624.971 606.304 624.383 608.252 624.102C608.984 624.076 609.713 623.974 610.424 623.796C609.687 623.717 608.943 623.717 608.206 623.796C606.188 623.959 604.214 624.477 602.376 625.326C599.636 626.614 597.232 628.521 595.354 630.896C593.08 633.783 591.245 636.99 589.907 640.412C588.549 643.801 587.495 647.303 586.755 650.877C586.192 653.799 585.803 656.752 585.592 659.721C585.393 662.245 585.332 664.311 585.302 665.703C585.232 666.422 585.247 667.146 585.347 667.86Z" fill="#263238"/>
<path d="M585.745 663.286C585.791 662.951 585.791 662.611 585.745 662.276V659.43C585.745 656.921 585.745 653.31 585.867 648.72C586.097 639.739 586.862 630.085 588.361 616.468C589.769 603.662 591.666 588.759 593.67 579.074C594.099 576.871 594.527 574.882 594.94 573.153C595.353 571.424 595.659 569.91 595.981 568.701C596.302 567.492 596.47 566.62 596.654 565.886C596.738 565.554 596.799 565.216 596.837 564.876C596.684 565.178 596.566 565.496 596.486 565.825C596.256 566.559 595.981 567.477 595.644 568.609C595.307 569.741 594.879 571.302 594.451 573.031C594.022 574.76 593.517 576.734 593.043 578.937C590.591 590.408 588.747 602.001 587.52 613.668C585.99 627.315 585.347 639.678 585.301 648.735C585.301 653.234 585.301 656.875 585.454 659.445C585.454 660.623 585.577 661.587 585.623 662.337C585.635 662.656 585.676 662.974 585.745 663.286Z" fill="#263238"/>
<path d="M585.806 639.326C585.892 638.308 585.892 637.284 585.806 636.266C585.633 633.523 585.321 630.791 584.873 628.08C584.217 624.054 583.328 620.069 582.211 616.146C580.916 611.317 579.249 606.596 577.223 602.024C573.761 593.598 568.8 585.869 562.581 579.212C561.497 578.074 560.342 577.006 559.123 576.014C558.603 575.555 558.129 575.112 557.593 574.76L556.262 573.842C555.46 573.227 554.605 572.684 553.707 572.22C556.645 574.515 559.43 576.999 562.046 579.656C568.077 586.359 572.911 594.05 576.336 602.392C578.319 606.935 579.996 611.607 581.354 616.376C582.505 620.26 583.45 624.203 584.185 628.187C584.812 631.599 585.179 634.307 585.393 636.296C585.457 637.315 585.595 638.327 585.806 639.326Z" fill="#263238"/>
<path d="M562.642 681.6L565.044 714.495H607.318L609.705 681.6H562.642Z" fill="#263238"/>
<path d="M614.769 668.625H558.572V681.6H614.769V668.625Z" fill="#263238"/>
<path d="M558.572 713.24V716.82H561.204H613.821V713.24H558.572Z" fill="#455A64"/>
<path d="M563.79 723.155L561.204 716.82H611.817L608.787 723.155H563.79Z" fill="#455A64"/>
<path d="M608.94 692.34C608.94 692.34 608.94 692.463 608.741 692.646L608.114 693.488L605.651 696.64L605.544 696.777L605.436 696.624L599.393 688.27H599.76L593.793 696.701L593.61 696.961L593.395 696.716L586.342 688.301H586.74L586.357 688.791L580.038 696.701L579.84 696.976L579.641 696.701C577.499 693.641 575.494 690.826 573.674 688.27H574.026L566.697 696.624L566.559 696.777L566.452 696.609C565.488 694.987 564.723 693.687 564.157 692.753L563.576 691.728C563.498 691.615 563.437 691.491 563.392 691.361C563.392 691.361 563.484 691.453 563.637 691.682L564.295 692.677L566.697 696.456H566.467L573.689 687.995L573.873 687.781L574.041 688.01L580.054 696.41H579.641L585.99 688.5L586.388 688.01L586.587 687.75L586.786 687.995L593.839 696.425H593.441L599.454 688.026L599.622 687.781L599.806 688.026C602.178 691.438 604.212 694.329 605.727 696.487H605.498L608.068 693.427L608.757 692.631L608.94 692.34Z" fill="#E0E0E0"/>
<path d="M610.302 681.37C610.302 681.523 599.714 681.646 586.648 681.646C573.582 681.646 562.994 681.523 562.994 681.37C562.994 681.217 573.582 681.11 586.648 681.11C599.714 681.11 610.302 681.232 610.302 681.37Z" fill="#455A64"/>
<path d="M612.444 717.188C612.444 717.325 600.923 717.448 586.74 717.448C572.557 717.448 561.036 717.325 561.036 717.188C561.036 717.05 572.541 716.912 586.74 716.912C600.938 716.912 612.444 717.035 612.444 717.188Z" fill="#263238"/>
<path d="M195.534 612.229C195.412 612.367 194.448 611.786 193.377 610.929C192.306 610.072 191.525 609.261 191.648 609.108C191.77 608.955 192.719 609.552 193.79 610.409C194.861 611.266 195.641 612.076 195.534 612.229Z" fill="#263238"/>
<path d="M224.91 568.41C225.327 564.329 224.989 560.206 223.915 556.247C222.63 552.345 219.631 548.781 215.623 547.939C211.033 546.99 206.351 549.882 203.781 553.799C201.21 557.716 200.338 562.459 199.573 567.064C194.353 598.886 192.43 631.161 193.836 663.377L212.563 666.009C220.718 632.395 223.38 603.004 224.91 568.41Z" fill="#455A64"/>
<path d="M212.945 547.74L212.853 548.046L212.547 548.887L211.293 552.131C211.033 552.835 210.681 553.661 210.405 554.472L209.503 557.302L208.447 560.561L207.483 564.279C205.911 570.42 204.7 576.648 203.857 582.93C202.847 589.968 202.189 597.771 201.654 605.972C200.705 622.389 200.552 637.291 200.124 648.062C199.925 653.463 199.741 657.823 199.542 660.822C199.435 662.352 199.359 663.439 199.298 664.295C199.298 664.647 199.298 664.953 199.298 665.183C199.298 665.412 199.298 665.489 199.298 665.489C199.298 665.489 199.298 665.397 199.298 665.183C199.298 664.969 199.298 664.647 199.298 664.28C199.298 663.439 199.298 662.276 199.405 660.807C199.527 657.747 199.634 653.448 199.772 648.047C200.078 637.337 200.154 622.373 201.118 605.941C201.639 597.725 202.327 589.907 203.367 582.838C204.245 576.575 205.507 570.372 207.147 564.264L208.156 560.546C208.554 559.404 208.921 558.317 209.258 557.287L210.237 554.457C210.528 553.6 210.895 552.835 211.17 552.131L212.547 548.949C212.69 548.612 212.813 548.337 212.915 548.122C212.904 547.994 212.914 547.865 212.945 547.74Z" fill="#263238"/>
<path d="M214.674 547.817C215.65 548.969 216.426 550.278 216.969 551.687C218.401 555.557 218.98 559.691 218.668 563.805C218.178 574.163 217.245 588.423 216.021 604.182C214.797 619.941 213.404 634.17 212.303 644.467C211.737 649.607 211.262 653.769 210.91 656.707C210.727 658.099 210.589 659.201 210.482 660.011L210.36 660.868C210.367 660.965 210.367 661.062 210.36 661.159C210.36 661.159 210.36 661.067 210.36 660.868C210.36 660.669 210.36 660.348 210.36 659.996C210.36 659.185 210.528 658.084 210.65 656.676C210.941 653.738 211.339 649.592 211.828 644.436C212.808 634.124 214.108 619.956 215.347 604.136C216.587 588.316 217.581 574.133 218.193 563.805C218.526 559.739 218.005 555.648 216.663 551.795C216.119 550.412 215.454 549.081 214.674 547.817Z" fill="#263238"/>
<path d="M227.664 596.302C226.435 596.213 225.232 595.902 224.114 595.384C222.926 595.075 221.802 594.557 220.794 593.854C222.025 593.934 223.229 594.246 224.344 594.772C225.534 595.078 226.658 595.597 227.664 596.302Z" fill="#263238"/>
<path d="M229.928 577.208C228.914 578.019 227.771 578.655 226.547 579.09C225.41 579.719 224.173 580.149 222.89 580.36C225.036 578.909 227.417 577.842 229.928 577.208Z" fill="#263238"/>
<path d="M228.75 561.617C226.901 561.951 224.998 561.82 223.212 561.235C224.117 560.975 225.07 560.928 225.996 561.097C226.942 561.055 227.885 561.233 228.75 561.617Z" fill="#263238"/>
<path d="M209.411 551.641C209.258 551.733 208.432 550.708 207.59 549.362C206.978 548.583 206.544 547.68 206.321 546.715C206.474 546.623 207.3 547.633 208.157 548.995C209.013 550.356 209.61 551.534 209.411 551.641Z" fill="#263238"/>
<path d="M203.031 561.066C202.179 561.373 201.265 561.467 200.369 561.342C199.467 561.428 198.558 561.292 197.722 560.944C198.574 560.638 199.488 560.543 200.384 560.669C201.286 560.582 202.195 560.719 203.031 561.066Z" fill="#263238"/>
<path d="M198.441 579.87C197.462 579.831 196.504 579.569 195.641 579.105C194.696 578.836 193.824 578.361 193.086 577.713C194.065 577.752 195.023 578.014 195.886 578.478C196.83 578.746 197.703 579.222 198.441 579.87Z" fill="#263238"/>
<path d="M197.951 595.767C197.951 595.95 196.926 596.333 195.564 596.608C194.203 596.884 193.086 596.991 193.04 596.807C192.994 596.624 194.08 596.241 195.427 595.966C196.239 595.691 197.106 595.623 197.951 595.767Z" fill="#263238"/>
<path d="M195.84 621.716C195.84 621.899 194.738 622.251 193.3 622.511C192.441 622.767 191.532 622.809 190.653 622.634C191.425 622.173 192.296 621.906 193.193 621.853C194.05 621.588 194.96 621.541 195.84 621.716Z" fill="#263238"/>
<path d="M194.31 636.036C194.402 636.189 193.453 636.863 192.199 637.566C190.944 638.27 189.858 638.637 189.781 638.469C189.705 638.301 190.638 637.643 191.893 636.939C193.147 636.235 194.31 635.868 194.31 636.036Z" fill="#263238"/>
<path d="M206.045 652.285C205.892 652.377 205.066 651.245 204.209 649.745C203.589 648.887 203.161 647.906 202.954 646.869C203.107 646.777 203.934 647.909 204.79 649.409C205.41 650.266 205.838 651.247 206.045 652.285Z" fill="#263238"/>
<path d="M209.426 625.28C209.549 625.403 208.631 626.52 207.376 627.759C206.122 628.998 204.989 629.886 204.852 629.748C204.714 629.61 205.647 628.509 206.902 627.269C208.156 626.03 209.289 625.143 209.426 625.28Z" fill="#263238"/>
<path d="M208.677 611.097C208.539 611.235 207.697 610.531 206.779 609.567C205.861 608.603 205.249 607.67 205.372 607.548C205.494 607.425 206.351 608.114 207.269 609.078C208.187 610.042 208.814 610.975 208.677 611.097Z" fill="#263238"/>
<path d="M211.002 592.997C211.14 593.12 210.375 594.206 209.289 595.4C208.202 596.593 207.223 597.496 207.085 597.373C206.948 597.251 207.713 596.164 208.784 594.956C209.855 593.747 210.864 592.875 211.002 592.997Z" fill="#263238"/>
<path d="M212.303 579.87C212.165 580.008 211.109 579.166 209.916 578.003C208.723 576.841 207.881 575.785 208.004 575.647C208.126 575.509 209.197 576.351 210.39 577.529C211.584 578.707 212.425 579.732 212.303 579.87Z" fill="#263238"/>
<path d="M214.873 562.091C214.671 563.057 214.258 563.966 213.664 564.754C212.853 566.131 212.058 567.171 211.905 567.079C211.752 566.987 212.272 565.794 213.098 564.417C213.924 563.04 214.705 562 214.873 562.091Z" fill="#263238"/>
<path d="M219.693 545.629C219.861 545.72 219.387 546.914 218.637 548.291C217.887 549.668 217.107 550.724 216.985 550.647C217.13 549.691 217.491 548.781 218.04 547.985C218.79 546.593 219.524 545.552 219.693 545.629Z" fill="#263238"/>
<path d="M225.17 553.11C225.246 553.279 224.497 553.799 223.487 554.288C222.477 554.778 221.605 555.023 221.529 554.855C221.452 554.686 222.202 554.166 223.212 553.676C224.221 553.187 225.093 552.942 225.17 553.11Z" fill="#263238"/>
<path d="M225.292 612.229C222.751 612.044 220.344 611.015 218.453 609.307C219.645 609.668 220.798 610.144 221.896 610.73C223.076 611.113 224.214 611.615 225.292 612.229Z" fill="#263238"/>
<path d="M223.059 624.745C223.059 624.928 221.972 625.296 220.534 625.571C219.679 625.845 218.77 625.903 217.887 625.739C218.652 625.27 219.517 624.987 220.412 624.913C221.85 624.638 223.028 624.561 223.059 624.745Z" fill="#263238"/>
<path d="M220.32 646.211C220.213 646.364 218.79 645.369 217.474 643.717C216.598 642.773 215.981 641.619 215.684 640.366C216.539 641.275 217.312 642.258 217.994 643.304C218.857 644.199 219.636 645.172 220.32 646.211Z" fill="#263238"/>
<path d="M190.194 656.033C190.072 655.896 190.837 655.039 191.893 654.136C192.948 653.233 193.912 652.606 194.035 652.759C194.157 652.912 193.392 653.738 192.336 654.656C191.281 655.574 190.317 656.171 190.194 656.033Z" fill="#263238"/>
<path d="M181.534 609.185C180.31 605.375 178.031 600.938 174.037 600.877C172.847 600.941 171.697 601.325 170.706 601.987C169.716 602.649 168.921 603.566 168.407 604.641C167.308 606.764 166.781 609.137 166.877 611.526C167.37 628.483 170.26 645.286 175.46 661.434H190.102C189.925 643.683 187.036 626.063 181.534 609.185Z" fill="#455A64"/>
<path d="M155.081 585.21C154.357 581.641 152.455 578.419 149.68 576.061C146.906 573.703 143.419 572.345 139.781 572.205C133.309 573.337 130.8 579.702 130.035 586.22C129.27 592.737 131.289 599.225 133.294 605.482C139.699 625.556 146.115 645.635 152.541 665.718L170.748 663.729C165.056 636.832 161.752 611.893 155.081 585.21Z" fill="#455A64"/>
<path d="M174.037 600.877C173.564 601.527 173.15 602.219 172.798 602.942C172.043 605.011 171.807 607.233 172.11 609.414C172.385 612.199 172.706 615.534 173.181 619.206C173.655 622.878 174.313 626.856 175.139 631.11C176.791 639.525 178.658 647.052 179.836 652.53C180.433 655.268 180.892 657.502 181.167 659.047C181.29 659.767 181.397 660.348 181.473 660.838C181.55 661.327 181.565 661.465 181.473 661.465C181.394 661.272 181.332 661.072 181.29 660.868L180.861 659.109C180.463 657.472 179.943 655.284 179.331 652.637C178.031 647.159 176.088 639.647 174.435 631.217C173.609 626.994 172.905 622.955 172.523 619.252C172.278 617.416 172.125 615.641 171.972 614.004C171.819 612.367 171.666 610.822 171.589 609.414C171.328 607.169 171.644 604.894 172.507 602.805C172.872 602.059 173.394 601.401 174.037 600.877Z" fill="#263238"/>
<path d="M140.117 571.685C139.306 572.609 138.569 573.596 137.914 574.637C136.238 577.546 135.288 580.816 135.145 584.169C135.069 589.142 135.829 594.091 137.394 598.811C138.924 604.228 140.744 610.179 142.596 616.407C146.222 628.891 149.496 640.183 151.898 648.429L154.652 658.16C154.958 659.262 155.188 660.134 155.371 660.807C155.471 661.11 155.538 661.423 155.57 661.74C155.43 661.456 155.317 661.159 155.234 660.853C155.035 660.18 154.744 659.323 154.407 658.221C153.688 655.88 152.678 652.591 151.454 648.567L141.953 616.59C140.117 610.332 138.388 604.35 136.797 598.965C135.238 594.177 134.519 589.156 134.67 584.123C134.868 580.705 135.92 577.391 137.73 574.484C138.366 573.426 139.172 572.48 140.117 571.685Z" fill="#263238"/>
<path d="M166.846 661.786C166.692 661.504 166.554 661.212 166.433 660.914C166.204 660.317 165.821 659.476 165.408 658.344C164.536 656.11 163.419 652.82 162.348 648.689C161.277 644.558 160.053 639.509 158.952 634.001C157.85 628.493 156.748 622.328 155.524 615.902C154.3 609.476 152.862 603.432 151.225 598.031C149.805 593.23 148.03 588.54 145.916 584.001C144.479 580.947 142.838 577.992 141.005 575.158C140.377 574.148 139.811 573.398 139.475 572.878C139.283 572.617 139.114 572.341 138.97 572.052C139.194 572.279 139.399 572.524 139.582 572.786C139.964 573.306 140.561 574.01 141.219 575.02C143.154 577.809 144.868 580.746 146.344 583.802C148.539 588.33 150.366 593.027 151.806 597.848C153.534 603.747 154.954 609.732 156.06 615.779C157.269 622.19 158.401 628.31 159.441 633.894C160.482 639.479 161.583 644.421 162.685 648.567C163.786 652.713 164.811 656.003 165.607 658.252C165.974 659.399 166.326 660.256 166.525 660.853C166.667 661.151 166.775 661.464 166.846 661.786Z" fill="#263238"/>
<path d="M133.691 602.483C133.691 602.652 132.743 603.05 131.473 603.356C130.203 603.662 129.147 603.769 129.117 603.585C129.086 603.401 130.05 603.019 131.32 602.713C132.59 602.407 133.645 602.3 133.691 602.483Z" fill="#263238"/>
<path d="M131.764 590.06C130.769 590.339 129.735 590.453 128.704 590.396C127.686 590.54 126.651 590.509 125.644 590.305C126.596 589.85 127.65 589.65 128.704 589.723C129.736 589.573 130.789 589.689 131.764 590.06Z" fill="#263238"/>
<path d="M133.814 578.707C133.691 578.86 132.697 578.218 131.611 577.284C130.524 576.351 129.713 575.479 129.836 575.341C129.958 575.204 130.937 575.831 132.039 576.764C133.141 577.697 133.936 578.569 133.814 578.707Z" fill="#263238"/>
<path d="M139.368 568.211C139.551 568.211 139.49 569.145 139.475 570.2C139.46 571.256 139.475 572.159 139.245 572.189C139.016 572.22 138.771 571.333 138.802 570.185C138.832 569.038 139.23 568.166 139.368 568.211Z" fill="#263238"/>
<path d="M150.705 573.153C150.858 573.26 150.414 574.163 149.71 575.158C149.007 576.152 148.318 576.887 148.18 576.779C148.043 576.672 148.471 575.785 149.16 574.775C149.848 573.765 150.552 573.046 150.705 573.153Z" fill="#263238"/>
<path d="M158.064 585.99C158.064 586.174 157.192 586.709 155.968 587.214C154.744 587.719 153.673 587.979 153.612 587.811C153.551 587.642 154.484 587.092 155.708 586.602C156.932 586.112 158.003 585.776 158.064 585.99Z" fill="#263238"/>
<path d="M162.532 599.102C161.722 599.804 160.72 600.247 159.655 600.372C158.636 600.702 157.544 600.739 156.504 600.479C157.485 600.09 158.514 599.833 159.564 599.714C160.525 599.39 161.521 599.185 162.532 599.102Z" fill="#263238"/>
<path d="M142.03 595.369C141.862 595.369 142.03 594.405 142.321 593.334C142.611 592.263 143.07 591.452 143.239 591.513C143.407 591.574 143.239 592.477 142.948 593.548C142.657 594.619 142.29 595.43 142.03 595.369Z" fill="#263238"/>
<path d="M144.891 611.893C144.953 610.929 145.235 609.992 145.717 609.154C146.344 607.716 146.987 606.614 147.155 606.691C147.093 607.655 146.811 608.592 146.329 609.43C145.702 610.868 145.059 612 144.891 611.893Z" fill="#263238"/>
<path d="M137.822 616.422C136.921 616.4 136.032 616.203 135.206 615.84C133.814 615.397 132.682 614.999 132.727 614.815C133.638 614.698 134.563 614.831 135.405 615.198C136.828 615.641 137.899 616.254 137.822 616.422Z" fill="#263238"/>
<path d="M141.892 629.886C141.999 630.039 141.219 630.773 140.163 631.538C139.108 632.303 138.128 632.793 138.021 632.655C137.914 632.517 138.695 631.752 139.766 630.987C140.837 630.222 141.785 629.733 141.892 629.886Z" fill="#263238"/>
<path d="M145.166 643.319C145.166 643.487 144.248 643.885 143.009 644.176C141.77 644.467 140.744 644.574 140.699 644.405C140.653 644.237 141.617 643.839 142.856 643.533C144.095 643.227 145.12 643.135 145.166 643.319Z" fill="#263238"/>
<path d="M162.899 610.332C162.991 610.485 162.165 611.143 160.971 611.587C159.778 612.031 158.707 612.092 158.676 611.924C158.646 611.755 159.594 611.403 160.726 610.96C161.859 610.516 162.807 610.164 162.899 610.332Z" fill="#263238"/>
<path d="M165.423 631.217C165.347 631.385 164.368 631.094 163.236 630.559C162.103 630.023 161.247 629.457 161.323 629.289C161.4 629.121 162.394 629.427 163.526 629.947C164.658 630.467 165.515 631.049 165.423 631.217Z" fill="#263238"/>
<path d="M169.907 646.18C168.893 646.129 167.902 645.863 167 645.4C165.47 644.803 164.291 644.176 164.353 643.992C165.361 644.044 166.347 644.31 167.244 644.773C168.774 645.369 169.968 645.997 169.907 646.18Z" fill="#263238"/>
<path d="M145.885 657.9C145.794 657.732 146.987 656.936 148.364 655.85C149.741 654.764 150.812 653.784 150.95 653.922C151.087 654.06 150.215 655.238 148.777 656.37C147.977 657.143 146.974 657.673 145.885 657.9Z" fill="#263238"/>
<path d="M157.697 650.25C157.513 650.25 157.253 649.271 156.794 648.108C156.335 646.945 155.876 646.012 156.029 645.905C156.182 645.798 156.947 646.593 157.422 647.863C157.896 649.133 157.881 650.25 157.697 650.25Z" fill="#263238"/>
<path d="M154.53 632.303C154.423 632.456 153.658 632.089 152.816 631.492C151.975 630.895 151.393 630.283 151.5 630.13C151.608 629.977 152.373 630.345 153.214 630.941C154.056 631.538 154.683 632.15 154.53 632.303Z" fill="#263238"/>
<path d="M182.07 604.121C182.177 604.274 181.427 605.008 180.402 605.758C179.377 606.507 178.459 607.012 178.352 606.859C178.245 606.706 178.979 605.987 180.004 605.222C181.029 604.457 182.07 603.968 182.07 604.121Z" fill="#263238"/>
<path d="M186.277 615.473C186.277 615.657 185.13 615.901 183.692 615.748C182.253 615.595 181.167 615.106 181.213 614.938C181.259 614.769 182.391 614.938 183.768 615.075C185.145 615.213 186.262 615.289 186.277 615.473Z" fill="#263238"/>
<path d="M168.422 618.028C168.422 618.196 167.397 618.579 165.99 618.671C164.582 618.762 163.48 618.533 163.496 618.349C163.511 618.166 164.613 618.105 165.959 618.013C167.305 617.921 168.392 617.845 168.422 618.028Z" fill="#263238"/>
<path d="M169.968 607.288C169.968 607.471 168.866 607.502 167.673 606.936C166.479 606.37 165.791 605.559 165.913 605.406C166.036 605.253 166.862 605.834 167.948 606.324C169.034 606.813 169.983 607.104 169.968 607.288Z" fill="#263238"/>
<path d="M187.807 627.667C187.716 627.82 186.599 627.3 185.313 626.489C184.028 625.678 183.08 624.959 183.187 624.745C183.294 624.531 184.395 625.127 185.681 625.923C186.966 626.719 187.914 627.514 187.807 627.667Z" fill="#263238"/>
<path d="M231.367 659.522H136.124V676.398H231.367V659.522Z" fill="#FF832A"/>
<path d="M143.239 673.062L154.821 723.506H211.584L224.252 673.062H143.239Z" fill="#FF832A"/>
<path d="M231.321 676.428C231.321 676.612 209.901 676.765 183.34 676.765C156.779 676.765 135.359 676.612 135.359 676.428C135.359 676.245 156.779 676.092 183.34 676.092C209.901 676.092 231.321 676.26 231.321 676.428Z" fill="#263238"/>
<path d="M178.352 618.395C178.199 618.487 177.541 617.737 176.899 616.697C176.256 615.657 175.858 614.739 176.011 614.647C176.164 614.555 176.822 615.305 177.465 616.345C178.107 617.386 178.505 618.288 178.352 618.395Z" fill="#263238"/>
<path d="M178.383 631.966C178.337 631.086 178.51 630.208 178.888 629.411C179.331 628.05 179.852 626.994 180.02 627.055C180.067 627.941 179.893 628.824 179.515 629.626C179.01 630.972 178.566 632.028 178.383 631.966Z" fill="#263238"/>
<path d="M183.034 646.226C182.866 646.318 182.162 645.17 181.504 643.686C180.976 642.825 180.642 641.859 180.525 640.856C180.693 640.764 181.397 641.911 182.055 643.396C182.583 644.257 182.917 645.223 183.034 646.226Z" fill="#263238"/>
<path d="M172.982 657.701C172.844 657.579 173.41 656.707 174.252 655.727C175.093 654.748 175.874 654.075 176.027 654.197C176.18 654.32 175.598 655.207 174.757 656.171C173.915 657.135 173.12 657.9 172.982 657.701Z" fill="#263238"/>
<path d="M170.87 636.878C170.87 637.061 169.922 637.046 168.82 636.878C167.719 636.709 166.862 636.388 166.892 636.205C166.923 636.021 167.841 636.036 168.927 636.205C170.014 636.373 170.901 636.694 170.87 636.878Z" fill="#263238"/>
<path d="M502.222 543.517H276.364V723.629H502.222V543.517Z" fill="#E0E0E0"/>
<g opacity="0.3">
<path opacity="0.3" d="M292.812 543.884C319.403 553.37 348.733 555.405 377.268 555.941C383.189 556.048 389.171 556.033 394.893 557.471C400.615 558.909 406.139 562.168 409.076 567.293C412.274 572.878 411.937 579.87 410.117 586.036C408.296 592.202 405.159 597.909 402.895 603.922C398.886 614.56 397.659 626.046 399.33 637.291C399.845 642.081 401.457 646.689 404.042 650.755C405.352 652.775 407.116 654.461 409.194 655.677C411.271 656.894 413.605 657.608 416.007 657.762C424.59 657.885 430.466 649.454 434.719 641.988C452.176 611.388 471.057 576.657 482.225 543.257L292.812 543.884Z" fill="black"/>
</g>
<path d="M353.323 722.665C353.094 722.665 352.925 682.747 352.925 633.512C352.925 584.276 353.094 544.343 353.323 544.343C353.553 544.343 353.721 584.261 353.721 633.512C353.721 682.762 353.537 722.665 353.323 722.665Z" fill="#455A64"/>
<path d="M445.873 410.407C445.199 405.909 431.766 391.068 431.766 391.068C431.766 391.068 425.065 364.125 423.045 356.184C422.373 353.888 421.39 351.695 420.123 349.666C415.373 341.753 408.617 335.235 400.539 330.771L381.949 320.321L377.512 310.437L332.867 287.487L320.765 308.907C320.765 308.907 291.373 318.24 287.487 324.865C283.601 331.49 289.415 420.949 289.415 420.949C289.415 420.949 277.175 472.54 274.528 483.22C271.881 493.899 275.354 506.629 275.354 506.629L297.248 479.165C304.057 470.628 318.99 466.696 329.715 466.849L421.377 467.262L417.69 441.589L491.849 455.94C491.849 455.94 504.594 431.062 505.619 430.573C506.644 430.083 445.873 410.407 445.873 410.407Z" fill="#FF832A"/>
<path d="M330.969 317.245C330.327 316.588 336.141 336.248 343.454 356.276C347.389 367.098 349.393 378.527 349.375 390.043V462.565L393.317 459.581L386.753 411.815C386.753 411.815 381.398 381.001 379.899 369.281C378.522 358.571 373.779 329.501 373.779 329.501C373.779 329.501 349.375 335.988 330.969 317.245Z" fill="white"/>
<path d="M428.492 428.4C428.423 428.031 428.423 427.652 428.492 427.283C428.593 426.283 428.787 425.294 429.073 424.33C430.002 421.112 431.728 418.181 434.092 415.808C436.468 413.442 439.397 411.707 442.614 410.759C443.578 410.473 444.566 410.279 445.567 410.178C445.931 410.108 446.304 410.108 446.668 410.178C446.668 410.315 445.138 410.484 442.782 411.295C439.724 412.344 436.947 414.079 434.663 416.368C432.38 418.657 430.651 421.438 429.609 424.498C428.798 426.87 428.63 428.4 428.492 428.4Z" fill="#263238"/>
<path d="M430.756 411.019C432.797 409.821 435.106 409.152 437.473 409.076C439.815 408.752 442.202 409.036 444.403 409.902C444.403 410.147 441.343 409.55 437.534 409.902C433.724 410.254 430.848 411.249 430.756 411.019Z" fill="#263238"/>
<g opacity="0.3">
<path opacity="0.3" d="M284.993 450.6L281.168 454.915C285.156 459.838 290.562 463.417 296.652 465.166C302.79 466.468 309.061 467.033 315.333 466.849C317.874 466.972 320.419 466.73 322.891 466.13C325.385 465.411 327.695 464.003 330.281 463.85C332.015 463.858 333.74 464.105 335.407 464.585C337.084 465.06 338.857 465.087 340.547 464.661C341.384 464.435 342.126 463.945 342.664 463.265C343.201 462.584 343.505 461.749 343.531 460.882C324.457 455.307 304.825 451.859 284.993 450.6Z" fill="black"/>
</g>
<path d="M410.453 456.139L399.743 444.694L377.482 439.11C377.482 439.11 357.163 445.23 356.674 445.23C356.184 445.23 338.987 440.518 338.987 440.518L332.974 462.58L363.957 464.707L399.33 463.284C399.33 463.284 401.181 461.57 400.08 460.392C398.978 459.214 406.001 462.381 406.827 462.412C407.653 462.443 409.245 463.085 410.346 461.769C411.096 460.79 412.106 457.898 410.453 456.139Z" fill="#FFBE9D"/>
<path d="M400.08 460.316C398.878 460.089 397.7 459.751 396.561 459.306C394.419 458.633 391.435 457.776 388.115 456.858C384.795 455.94 381.735 455.328 379.517 454.945C378.303 454.787 377.108 454.505 375.952 454.104C377.177 454.05 378.405 454.143 379.608 454.379C382.535 454.788 385.436 455.36 388.299 456.093C391.165 456.82 393.986 457.72 396.744 458.786C397.917 459.152 399.038 459.666 400.08 460.316Z" fill="#EB996E"/>
<path d="M410.453 456.139C408.785 455.717 407.14 455.206 405.527 454.609C402.467 453.599 398.29 452.345 393.593 451.044C388.895 449.744 384.734 448.259 381.567 448.076C379.861 447.988 378.15 448.055 376.457 448.275C376.871 448.047 377.321 447.892 377.788 447.816C379.038 447.546 380.32 447.443 381.597 447.51C384.872 447.51 389.247 448.902 393.837 450.279C398.427 451.656 402.742 452.926 405.741 454.089C407.271 454.655 408.418 455.175 409.244 455.542C409.675 455.681 410.082 455.882 410.453 456.139Z" fill="#EB996E"/>
<path d="M287.487 324.865C287.487 324.865 271.498 335.988 267.597 351.992C263.695 367.996 246.85 433.403 250.308 443.18C253.766 452.956 320.994 462.565 320.994 462.565L328.965 428.905L294.816 419.557C294.816 419.557 295.259 388.421 295.688 375.523C296.116 362.625 287.487 324.865 287.487 324.865Z" fill="#FF832A"/>
<path d="M328.537 433.969L339.538 436.677L332.913 462.045L322.111 460.316L328.537 433.969Z" fill="white"/>
<path d="M250.063 439.722C250.063 439.722 250.063 440.288 250.231 441.252C250.603 442.732 251.42 444.061 252.572 445.062C255.495 447.785 261.079 450.049 268.148 451.319C271.376 452.39 275.063 453.232 278.995 454.119C282.927 455.007 287.181 455.909 291.648 456.812C300.599 458.648 310.498 460.576 320.994 462.534L320.535 462.825C321.285 459.765 322.065 456.414 322.906 453.064C324.788 445.414 326.624 437.886 328.353 430.802L328.629 431.261L298.35 422.678C294.169 420.918 289.646 420.123 285.115 420.352C281.672 420.544 278.29 421.342 275.124 422.708C273.112 423.579 271.191 424.645 269.387 425.891L267.995 426.901C267.842 427.024 267.678 427.131 267.505 427.222C267.505 427.222 267.643 427.069 267.933 426.824C268.224 426.579 268.668 426.197 269.28 425.738C271.057 424.42 272.97 423.297 274.987 422.387C278.173 420.943 281.594 420.088 285.085 419.863C289.694 419.569 294.31 420.333 298.579 422.096L328.95 430.603L329.317 430.695L329.225 431.062C327.496 438.146 325.676 445.612 323.809 453.339C322.983 456.674 322.187 459.979 321.422 463.085L321.33 463.452H320.963C310.467 461.479 300.584 459.52 291.633 457.654C287.166 456.72 282.927 455.787 278.98 454.869C275.033 453.951 271.33 453.079 268.086 451.962C260.926 450.6 255.342 448.244 252.389 445.383C251.218 444.33 250.414 442.931 250.094 441.39C249.983 440.84 249.973 440.275 250.063 439.722Z" fill="#263238"/>
<path d="M296.682 421.836C296.59 421.943 295.443 420.888 293.393 419.526C288.023 415.93 281.677 414.077 275.216 414.217C272.738 414.217 271.223 414.553 271.192 414.416C272.474 413.952 273.823 413.699 275.186 413.666C281.824 413.185 288.415 415.101 293.76 419.067C294.88 419.822 295.868 420.758 296.682 421.836Z" fill="#263238"/>
<path d="M301.165 367.062C301.221 367.745 301.221 368.43 301.165 369.112C301.165 370.444 301.028 372.341 300.844 374.697C300.461 379.394 299.773 385.866 298.534 392.965C297.565 399.039 296.149 405.032 294.296 410.897C293.928 412.014 293.531 413.023 293.209 413.957L292.23 416.16C291.943 416.788 291.589 417.383 291.174 417.935C291.366 417.279 291.622 416.643 291.939 416.038C292.199 415.38 292.475 414.63 292.796 413.804C293.117 412.978 293.423 411.907 293.76 410.744C295.432 404.858 296.766 398.881 297.753 392.843C298.977 385.774 299.758 379.333 300.278 374.651C300.507 372.433 300.706 370.581 300.859 369.112C300.879 368.419 300.982 367.731 301.165 367.062Z" fill="#263238"/>
<path d="M340.15 349.727C340.15 349.727 339.997 349.314 339.63 348.595C339.085 347.576 338.29 346.712 337.319 346.086C336.601 345.593 335.78 345.271 334.918 345.144C334.056 345.016 333.177 345.087 332.347 345.352C331.295 345.712 330.355 346.34 329.619 347.175C328.884 348.009 328.379 349.021 328.155 350.11L327.94 351.196L327.466 350.186C325.677 346.346 324.118 342.401 322.8 338.375C320.462 331.667 319.292 324.609 319.342 317.506C319.342 316.144 319.525 314.92 319.602 313.834C319.678 312.747 319.923 311.845 320.092 311.11C320.253 310.338 320.478 309.581 320.765 308.846C320.243 311.704 319.951 314.6 319.893 317.506C320.019 324.53 321.253 331.49 323.549 338.13C324.869 342.126 326.401 346.048 328.139 349.88L327.451 349.972C327.715 348.769 328.291 347.656 329.12 346.746C329.95 345.836 331.005 345.159 332.179 344.785C333.089 344.511 334.052 344.452 334.989 344.614C335.927 344.776 336.814 345.154 337.579 345.719C338.573 346.417 339.357 347.375 339.844 348.488C339.978 348.781 340.075 349.089 340.135 349.406C340.165 349.605 340.18 349.727 340.15 349.727Z" fill="#263238"/>
<path d="M377.451 353.17C377.287 352.573 377.169 351.964 377.099 351.349C376.764 349.663 376.656 347.939 376.778 346.224C377.122 343.585 378.436 341.169 380.465 339.446C381.72 338.413 383.292 337.846 384.917 337.839C385.803 337.829 386.68 338.011 387.488 338.373C388.297 338.735 389.017 339.268 389.599 339.935L388.926 340.333L387.472 336.677C384.611 329.47 382.072 322.907 380.266 318.179L378.17 312.533C377.879 311.859 377.658 311.157 377.512 310.437C377.889 311.07 378.206 311.735 378.461 312.426C379.073 313.956 379.853 315.746 380.802 317.98C382.745 322.677 385.392 329.18 388.222 336.34L389.66 340.012L390.594 342.368L389.064 340.394C388.558 339.808 387.931 339.34 387.225 339.023C386.519 338.706 385.752 338.547 384.978 338.558C383.522 338.549 382.107 339.041 380.97 339.951C379.058 341.549 377.782 343.78 377.374 346.239C377.21 347.915 377.241 349.604 377.466 351.273C377.539 351.903 377.534 352.541 377.451 353.17Z" fill="#263238"/>
<path d="M405.832 356.964C406.046 356.964 409.504 380.19 413.559 408.908C417.613 437.626 420.704 460.928 420.49 460.928C420.275 460.928 416.818 437.702 412.763 408.908C408.709 380.113 405.618 356.995 405.832 356.964Z" fill="#263238"/>
<g opacity="0.3">
<path opacity="0.3" d="M323.258 338.62C323.444 344.569 324.736 350.432 327.068 355.909C328.736 353.843 330.587 351.671 333.188 351.059C336.34 350.309 339.538 352.252 341.817 354.639C341.422 352.252 340.48 349.99 339.063 348.029C338.356 347.065 337.436 346.278 336.374 345.729C335.313 345.179 334.138 344.883 332.943 344.862C331.752 344.89 330.604 345.314 329.681 346.068C328.759 346.822 328.114 347.862 327.848 349.024L323.457 338.727" fill="black"/>
</g>
<path d="M297.417 355.434C297.279 355.434 297.325 353.828 296.866 351.334C296.237 348.084 294.974 344.991 293.148 342.23C292.12 340.736 290.946 339.347 289.644 338.084C288.565 337.063 287.392 336.146 286.14 335.345C283.983 333.984 282.468 333.464 282.53 333.326C282.905 333.353 283.273 333.446 283.616 333.601C284.044 333.716 284.459 333.875 284.855 334.076C285.384 334.303 285.895 334.569 286.385 334.871C287.716 335.623 288.962 336.516 290.103 337.533C291.475 338.812 292.702 340.238 293.76 341.787C295.656 344.628 296.89 347.86 297.371 351.242C297.523 352.255 297.574 353.28 297.524 354.302C297.524 355.037 297.478 355.434 297.417 355.434Z" fill="#263238"/>
<path d="M386.233 246.33C385.359 238.137 381.433 230.574 375.236 225.145C369.038 219.716 361.024 216.819 352.787 217.03H351.089C332.806 218.56 323.901 234.947 325.951 253.169L330.97 317.276L333.096 319.877C337.871 325.743 344.451 329.864 351.813 331.599C359.174 333.334 366.903 332.586 373.794 329.47L372.387 308.846C372.387 308.846 389.92 305.663 389.676 288.068C389.569 279.531 387.916 262.058 386.233 246.33Z" fill="#FFBE9D"/>
<path d="M372.525 308.8C364.361 309.027 356.305 306.903 349.314 302.68C349.314 302.68 355.052 315.211 372.57 313.176L372.525 308.8Z" fill="#EB996E"/>
<path d="M380.664 260.804C380.682 261.457 380.446 262.092 380.008 262.577C379.569 263.061 378.96 263.358 378.308 263.405C377.989 263.436 377.667 263.404 377.361 263.31C377.054 263.216 376.77 263.062 376.523 262.857C376.277 262.652 376.074 262.4 375.926 262.116C375.778 261.832 375.688 261.521 375.661 261.202C375.64 260.547 375.874 259.91 376.313 259.425C376.753 258.939 377.364 258.644 378.017 258.601C378.337 258.567 378.659 258.598 378.967 258.691C379.274 258.784 379.559 258.938 379.806 259.143C380.053 259.349 380.256 259.601 380.403 259.887C380.551 260.172 380.639 260.484 380.664 260.804Z" fill="#263238"/>
<path d="M381.781 251.241C381.582 251.547 379.593 251.761 377.191 253.047C374.788 254.332 373.381 255.938 373.06 255.908C372.738 255.877 373.06 255.464 373.656 254.745C374.571 253.73 375.659 252.886 376.869 252.251C378.024 251.606 379.291 251.185 380.603 251.012C381.505 250.92 381.888 251.088 381.781 251.241Z" fill="#263238"/>
<path d="M355.266 262.135C355.295 262.791 355.064 263.433 354.623 263.92C354.182 264.407 353.566 264.7 352.91 264.736C352.591 264.77 352.268 264.739 351.961 264.646C351.653 264.553 351.368 264.399 351.121 264.193C350.874 263.988 350.671 263.735 350.524 263.45C350.377 263.165 350.288 262.853 350.263 262.533C350.242 261.878 350.476 261.241 350.915 260.756C351.355 260.271 351.966 259.975 352.619 259.932C352.939 259.898 353.261 259.929 353.569 260.022C353.876 260.115 354.161 260.269 354.408 260.474C354.655 260.68 354.858 260.933 355.005 261.218C355.153 261.503 355.241 261.815 355.266 262.135Z" fill="#263238"/>
<path d="M354.96 254.929C354.608 254.929 352.971 253.903 350.37 253.261C347.769 252.618 345.612 252.756 345.382 252.542C345.153 252.328 345.658 252.236 346.591 252.159C347.954 252.073 349.322 252.202 350.645 252.542C351.926 252.846 353.147 253.363 354.256 254.072C354.868 254.561 355.052 254.898 354.96 254.929Z" fill="#263238"/>
<path d="M365.486 275.935C366.904 275.462 368.373 275.159 369.862 275.033C370.551 275.033 371.193 274.788 371.3 274.314C371.344 273.605 371.167 272.899 370.796 272.294L368.608 267.077C365.548 259.672 363.375 253.567 363.681 253.46C363.987 253.353 366.741 259.243 369.694 266.648C370.428 268.484 371.132 270.229 371.79 271.896C372.242 272.717 372.393 273.669 372.218 274.589C372.123 274.836 371.973 275.058 371.78 275.238C371.586 275.418 371.354 275.552 371.102 275.629C370.725 275.748 370.334 275.815 369.939 275.828C368.465 276.055 366.969 276.091 365.486 275.935Z" fill="#263238"/>
<path d="M354.96 244.494C354.654 245.213 351.976 244.739 348.84 244.953C345.703 245.167 343.041 245.932 342.72 245.244C342.536 244.922 343.026 244.249 344.082 243.591C345.502 242.783 347.088 242.31 348.719 242.21C350.35 242.109 351.982 242.383 353.491 243.01C354.501 243.545 355.052 244.142 354.96 244.494Z" fill="#263238"/>
<path d="M381.72 245.091C381.123 245.718 378.797 245.091 376.013 245.091C373.228 245.091 370.857 245.565 370.306 244.922C370.061 244.616 370.428 243.989 371.453 243.392C372.867 242.651 374.448 242.288 376.043 242.337C377.652 242.326 379.234 242.737 380.633 243.53C381.643 244.157 381.98 244.8 381.72 245.091Z" fill="#263238"/>
<path d="M391.359 230.693C391.204 229.89 390.761 229.172 390.112 228.673C389.464 228.174 388.656 227.929 387.84 227.985C388.719 227.735 389.54 227.313 390.257 226.746C390.614 226.459 390.882 226.076 391.031 225.643C391.18 225.21 391.203 224.744 391.099 224.298C390.64 222.936 388.896 222.646 387.519 222.263C385.711 221.738 384.109 220.67 382.929 219.203C381.261 217.092 380.618 214.338 379.165 212.058C378.226 210.586 376.969 209.344 375.487 208.422C374.004 207.5 372.334 206.923 370.599 206.732C368.864 206.541 367.108 206.742 365.461 207.319C363.813 207.897 362.316 208.836 361.08 210.069C359.73 208.681 358.069 207.636 356.233 207.02C354.398 206.403 352.442 206.234 350.528 206.526C348.614 206.818 346.798 207.562 345.229 208.697C343.661 209.832 342.387 211.326 341.511 213.052C339.164 212.074 336.597 211.744 334.079 212.098C331.561 212.451 329.184 213.476 327.197 215.063C325.211 216.651 323.688 218.744 322.788 221.122C321.887 223.5 321.643 226.077 322.08 228.582L333.035 235.299C333.124 234.466 333.389 233.661 333.812 232.937C334.235 232.214 334.807 231.589 335.489 231.103C336.172 230.617 336.95 230.282 337.772 230.119C338.593 229.956 339.441 229.969 340.257 230.158C343.562 231.122 345.673 234.947 349.1 235.207C351.778 235.406 354.057 233.34 356.643 232.652C359.78 231.81 363.1 233.065 365.93 234.656C368.761 236.247 371.469 238.236 374.621 239.032C378.385 239.787 382.293 239.32 385.774 237.701C387.32 237.158 388.73 236.287 389.905 235.146C390.485 234.573 390.919 233.87 391.172 233.096C391.425 232.321 391.489 231.498 391.359 230.693Z" fill="#263238"/>
<path d="M334.886 230.127L385.07 229.852C383.259 226.479 380.629 223.617 377.42 221.529C370.756 216.659 362.724 214.019 354.47 213.986C346.285 213.986 329.914 224.497 324.146 230.296C319.556 234.886 319.678 238.848 319.678 238.848C319.097 245.366 322.937 252.618 324.574 258.998C325.4 262.273 327.129 272.187 327.129 272.187C329.883 272.11 330.847 269.877 330.357 267.153L329.547 256.443C332.254 254.184 334.151 251.103 334.949 247.668C335.747 244.233 335.403 240.632 333.968 237.41C333.28 236.461 331.627 232.04 334.886 230.127Z" fill="#263238"/>
<path d="M328.828 255.739C326.273 246.865 323.916 237.379 326.64 228.505H325.11L324.498 228.949C323.083 228.474 321.554 228.461 320.131 228.914C318.709 229.367 317.468 230.26 316.588 231.466C315.708 232.672 315.235 234.126 315.238 235.619C315.241 237.111 315.719 238.564 316.603 239.766C315.111 239.753 313.666 240.285 312.539 241.263C311.412 242.241 310.681 243.597 310.483 245.075C310.488 247.136 311.054 249.156 312.12 250.92C313.188 252.689 313.842 254.676 314.033 256.734C314.097 257.759 313.798 258.773 313.187 259.599C312.577 260.424 311.695 261.008 310.697 261.247C311.181 262.291 312.009 263.137 313.043 263.641C314.077 264.145 315.253 264.278 316.373 264.017C315.659 265.761 314.465 267.267 312.931 268.362C316.205 270.596 320.688 269.892 324.238 268.102C326.44 267.216 328.237 265.549 329.287 263.42C330.266 260.957 329.531 258.249 328.828 255.739Z" fill="#263238"/>
<path d="M328.001 266.098C327.695 265.975 315.761 262.839 316.511 274.849C317.261 286.86 329.133 283.693 329.133 283.341C329.133 282.989 328.001 266.098 328.001 266.098Z" fill="#FFBE9D"/>
<path d="M326.257 278.98C326.257 278.98 326.058 279.133 325.706 279.317C325.231 279.553 324.683 279.596 324.176 279.439C322.876 279.041 321.698 277.098 321.514 274.926C321.421 273.888 321.562 272.842 321.927 271.866C322.025 271.479 322.215 271.123 322.482 270.827C322.748 270.531 323.083 270.305 323.457 270.167C323.695 270.093 323.95 270.103 324.181 270.195C324.412 270.287 324.605 270.455 324.727 270.672C324.911 270.994 324.834 271.238 324.911 271.269C324.987 271.3 325.155 271.039 325.033 270.55C324.934 270.264 324.753 270.014 324.513 269.831C324.343 269.712 324.151 269.63 323.949 269.588C323.746 269.546 323.537 269.545 323.335 269.586C322.848 269.714 322.401 269.963 322.037 270.311C321.673 270.659 321.403 271.094 321.254 271.575C320.812 272.65 320.629 273.813 320.718 274.972C320.948 277.389 322.248 279.562 324.084 279.99C324.41 280.062 324.748 280.06 325.073 279.986C325.399 279.912 325.703 279.767 325.966 279.562C326.257 279.271 326.303 278.995 326.257 278.98Z" fill="#EB996E"/>
<path d="M315.532 256.137C315.532 256.137 315.195 255.678 315.302 254.73C315.43 254.086 315.698 253.479 316.087 252.95C316.475 252.421 316.975 251.984 317.551 251.67C319.275 250.849 321.151 250.396 323.059 250.339C324.127 250.339 325.18 250.087 326.132 249.603C327.084 249.119 327.908 248.417 328.537 247.554C329.536 245.608 329.869 243.388 329.485 241.235C329.195 239.215 328.659 237.395 328.399 235.819C327.915 234.13 327.941 232.336 328.476 230.663C328.486 232.351 328.676 234.033 329.042 235.681C329.378 237.211 329.975 239.001 330.342 241.128C330.804 243.481 330.448 245.921 329.332 248.044C328.669 249.141 327.664 249.99 326.471 250.461C325.404 250.857 324.286 251.104 323.151 251.195C321.342 251.206 319.551 251.559 317.873 252.236C317.347 252.506 316.881 252.878 316.5 253.329C316.119 253.781 315.832 254.304 315.654 254.867C315.586 255.288 315.545 255.712 315.532 256.137Z" fill="#455A64"/>
<path d="M312.625 250.92C312.625 250.92 312.364 250.583 312.257 249.834C312.134 248.776 312.342 247.707 312.854 246.774C313.205 246.111 313.69 245.527 314.277 245.06C314.963 244.545 315.751 244.18 316.587 243.989C317.399 243.815 318.172 243.494 318.867 243.04C319.174 242.766 319.415 242.424 319.572 242.043C319.728 241.661 319.796 241.249 319.77 240.837C319.77 239.935 319.663 238.971 319.693 238.007C319.706 237.086 319.808 236.169 319.999 235.268C320.308 233.746 320.894 232.294 321.728 230.984C321.993 230.503 322.374 230.096 322.837 229.8C323.299 229.503 323.827 229.327 324.375 229.286C325.171 229.286 325.507 229.653 325.477 229.684C325.446 229.714 325.079 229.546 324.406 229.684C323.946 229.782 323.514 229.985 323.146 230.277C322.777 230.568 322.48 230.941 322.279 231.367C321.588 232.65 321.103 234.033 320.841 235.467C320.693 236.316 320.616 237.176 320.611 238.037C320.611 238.925 320.749 239.873 320.703 240.914C320.725 241.458 320.622 242.001 320.402 242.5C320.182 242.998 319.851 243.44 319.433 243.79C318.643 244.319 317.752 244.678 316.817 244.846C316.12 244.965 315.457 245.231 314.871 245.627C314.285 246.023 313.791 246.539 313.42 247.141C312.792 248.296 312.515 249.61 312.625 250.92Z" fill="#455A64"/>
<path d="M382.944 219.203C383.02 219.203 382.041 219.861 380.465 219.127C379.578 218.645 378.801 217.983 378.185 217.184C377.427 216.188 376.481 215.352 375.401 214.72C373.996 213.93 372.392 213.566 370.783 213.672C369.175 213.778 367.632 214.35 366.343 215.317C364.813 216.388 363.543 217.903 361.753 219.157C360.843 219.832 359.8 220.307 358.693 220.55C357.548 220.75 356.369 220.639 355.281 220.228C353.109 219.448 351.395 218.117 349.529 217.444C347.727 216.752 345.812 216.404 343.883 216.419C340.559 216.414 337.329 217.518 334.703 219.555C332.949 220.925 331.491 222.638 330.419 224.589C329.669 225.981 329.394 226.838 329.317 226.807C329.241 226.777 329.317 226.578 329.44 226.165C329.613 225.569 329.828 224.986 330.082 224.42C331.07 222.337 332.507 220.498 334.29 219.035C336.975 216.84 340.323 215.616 343.791 215.562C345.833 215.509 347.866 215.857 349.773 216.587C351.793 217.321 353.537 218.652 355.511 219.341C356.446 219.701 357.461 219.801 358.448 219.632C359.406 219.412 360.308 218.995 361.095 218.408C362.702 217.26 364.048 215.745 365.685 214.613C367.199 213.479 369.042 212.872 370.933 212.884C372.546 212.896 374.128 213.328 375.523 214.139C376.641 214.851 377.612 215.77 378.384 216.847C378.92 217.633 379.613 218.3 380.419 218.805C381.179 219.257 382.082 219.399 382.944 219.203Z" fill="#455A64"/>
<path d="M358.816 279.087C359.198 279.087 359.627 281.566 362.136 283.019C364.645 284.473 367.323 283.738 367.414 284.09C367.506 284.442 366.879 284.702 365.731 284.917C364.232 285.195 362.682 284.935 361.356 284.182C360.085 283.447 359.143 282.254 358.724 280.847C358.449 279.791 358.632 279.103 358.816 279.087Z" fill="#263238"/>
<path d="M517.14 518.15C512.482 514.148 506.437 512.137 500.31 512.55L489.967 545.399C497.541 545.736 505.099 549.637 512.412 547.633C515.333 546.732 517.935 545.015 519.912 542.683C521.888 540.352 523.156 537.504 523.566 534.475C523.884 531.438 523.467 528.369 522.348 525.527C521.23 522.685 519.443 520.155 517.14 518.15Z" fill="#FF832A"/>
<path d="M500.432 511.8C500.432 511.54 501.549 511.326 503.492 511.341C506.383 511.394 509.244 511.937 511.953 512.948C516.093 514.561 519.675 517.34 522.266 520.95C523.848 523.09 525.016 525.509 525.708 528.079C526.457 530.893 526.541 533.842 525.953 536.693C525.383 539.583 524.094 542.283 522.204 544.542C520.395 546.6 518.103 548.177 515.534 549.132C511.359 550.608 506.858 550.899 502.529 549.974C499.742 549.428 497.023 548.581 494.419 547.449C492.599 546.669 491.635 546.088 491.727 545.827C491.819 545.567 492.92 545.644 494.787 545.965C496.653 546.286 499.484 546.883 502.85 547.189C506.667 547.612 510.53 547.087 514.095 545.659C516.05 544.833 517.781 543.553 519.144 541.926C520.574 540.146 521.551 538.046 521.99 535.806C522.41 533.585 522.379 531.303 521.898 529.095C521.417 526.887 520.496 524.798 519.19 522.954C517.082 519.761 514.183 517.167 510.775 515.426C508.36 514.287 505.832 513.405 503.232 512.795C501.473 512.397 500.402 512.076 500.432 511.8Z" fill="#F5F5F5"/>
<path d="M404.608 635.042L382.117 698.062L460.377 726.444C462.641 718.794 427.589 689.112 427.589 689.112L443.654 649.332L404.608 635.042Z" fill="#FF832A"/>
<g opacity="0.6">
<path opacity="0.6" d="M404.624 676.949C403.787 676.904 402.964 677.169 402.312 677.695C401.659 678.22 401.224 678.968 401.089 679.794C401.014 680.626 401.261 681.455 401.78 682.109C402.298 682.764 403.047 683.195 403.874 683.313C404.766 683.361 405.643 683.073 406.334 682.507C407.025 681.941 407.479 681.137 407.607 680.253C407.607 678.586 405.955 676.673 404.302 676.903" fill="white"/>
</g>
<path d="M382.117 698.062L384.397 691.713L458.724 721.364C458.724 721.364 461.662 724.134 460.377 726.444L382.117 698.062Z" fill="white"/>
<path d="M429.012 689.173C428.859 689.556 426.885 689.035 424.559 689.586C422.234 690.137 420.643 691.376 420.352 691.116C420.061 690.856 421.423 688.837 424.253 688.225C427.084 687.613 429.211 688.852 429.012 689.173Z" fill="#263238"/>
<path d="M436.05 695.553C436.05 695.951 434.107 695.997 432.225 697.083C430.343 698.17 429.348 699.807 428.966 699.654C428.583 699.501 429.134 697.252 431.506 695.859C433.877 694.467 436.05 695.186 436.05 695.553Z" fill="#263238"/>
<path d="M437.075 707.059C436.708 707.059 436.861 704.917 438.605 703.173C440.349 701.428 442.43 701.26 442.476 701.643C442.522 702.025 441.022 702.729 439.615 704.182C438.207 705.636 437.473 707.166 437.075 707.059Z" fill="#263238"/>
<path d="M431.659 679.703C431.368 679.993 429.807 678.83 427.604 678.173C425.401 677.515 423.458 677.606 423.381 677.209C423.305 676.811 425.401 676.031 427.971 676.826C430.542 677.622 431.965 679.473 431.659 679.703Z" fill="#263238"/>
<path d="M433.158 669.742C431.753 669.619 430.406 669.122 429.257 668.304C427.931 667.545 426.707 666.619 425.615 665.55C424.962 664.925 424.354 664.256 423.795 663.546C423.442 663.143 423.153 662.689 422.938 662.199C422.784 661.837 422.757 661.434 422.859 661.054C422.962 660.674 423.189 660.339 423.504 660.103C423.792 659.906 424.121 659.779 424.466 659.731C424.811 659.683 425.163 659.717 425.493 659.828C425.989 660.006 426.458 660.253 426.885 660.562C427.65 661.073 428.367 661.652 429.027 662.291C430.133 663.363 431.062 664.602 431.781 665.963C432.567 667.155 432.968 668.56 432.929 669.987C432.715 669.987 432.256 668.534 430.925 666.468C430.135 665.28 429.199 664.195 428.14 663.24C427.513 662.678 426.843 662.166 426.136 661.71C425.386 661.189 424.682 660.929 424.346 661.22C424.009 661.511 424.177 661.388 424.269 661.694C424.428 662.055 424.64 662.39 424.896 662.689C425.398 663.368 425.945 664.012 426.533 664.617C427.526 665.663 428.618 666.611 429.792 667.447C431.812 668.901 433.25 669.543 433.158 669.742Z" fill="#263238"/>
<path d="M432.47 670.14C432.138 668.752 432.256 667.295 432.806 665.978C433.27 664.504 433.978 663.117 434.902 661.878C435.457 661.15 436.076 660.474 436.754 659.858C437.156 659.42 437.664 659.092 438.229 658.905C438.794 658.718 439.397 658.677 439.982 658.787C440.327 658.925 440.627 659.157 440.846 659.458C441.066 659.758 441.196 660.115 441.221 660.486C441.25 660.999 441.208 661.514 441.099 662.016C440.858 663.258 440.371 664.439 439.667 665.49C438.963 666.541 438.055 667.441 436.998 668.136C434.734 669.666 432.974 669.482 432.99 669.344C433.005 669.207 434.52 668.855 436.417 667.325C437.496 666.446 438.373 665.345 438.987 664.097C439.344 663.371 439.596 662.598 439.737 661.802C439.921 660.929 439.844 660.134 439.508 660.119C439.163 660.105 438.82 660.168 438.502 660.303C438.185 660.438 437.901 660.642 437.672 660.899C437.037 661.436 436.453 662.03 435.927 662.674C435.031 663.77 434.299 664.992 433.755 666.3C432.806 668.61 432.699 670.14 432.47 670.14Z" fill="#263238"/>
<path d="M328.797 466.742C316.924 467.017 305.663 468.685 297.478 477.299C286.63 488.728 273.227 504.992 272.462 516.268C271.33 533.098 281.505 538.147 288.925 542.278C292.207 544.053 295.906 544.914 299.635 544.772L436.846 543.731L441.145 520.491L352.405 498.612L356.092 465.212L328.797 466.742Z" fill="#263238"/>
<path d="M356.169 465.197L399.33 463.208C399.33 463.208 473.902 467.354 489.799 481.935C505.696 496.516 503.722 513.086 498.413 528.982C493.104 544.879 446.393 646.609 446.393 646.609C446.393 646.609 450.187 653.081 448.061 659.537C447.2 662.365 445.619 664.921 443.474 666.954C441.328 668.987 438.691 670.428 435.821 671.135L394.327 655.835C394.327 655.835 388.697 653.846 392.675 648.536C396.653 643.227 399.299 642.248 399.299 642.248V631.645C399.299 631.645 413.88 605.13 415.196 601.489C416.512 597.848 430.496 543.9 430.496 543.9L439.783 527.942C439.783 527.942 417.338 517.385 397.877 509.735L352.436 498.535L356.169 465.197Z" fill="#263238"/>
<path d="M426.181 653.968C424.926 653.238 423.71 652.441 422.54 651.581C416.678 647.783 410.075 645.274 403.17 644.222C401.722 644.081 400.282 643.867 398.855 643.579C400.311 643.411 401.782 643.437 403.231 643.656C410.309 644.412 417.07 646.984 422.861 651.122C424.088 651.921 425.205 652.877 426.181 653.968Z" fill="#455A64"/>
<path d="M446.913 646.685C446.008 645.943 445.201 645.09 444.511 644.145C443.103 642.508 441.236 640.183 439.293 637.52C437.35 634.858 435.667 632.395 434.52 630.574C433.836 629.622 433.261 628.595 432.806 627.514C433.628 628.345 434.356 629.264 434.979 630.253L439.936 637.046C441.787 639.555 443.486 641.82 444.954 643.793C445.71 644.683 446.367 645.653 446.913 646.685Z" fill="#455A64"/>
<path d="M462.06 513.437C462.06 513.56 460.53 513.896 458.128 514.692C451.838 516.768 446.139 520.325 441.512 525.065C440.609 526.107 439.654 527.103 438.651 528.049C439.298 526.813 440.123 525.679 441.099 524.683C443.325 522.169 445.901 519.989 448.749 518.211C451.595 516.42 454.688 515.054 457.929 514.156C459.262 513.709 460.654 513.467 462.06 513.437Z" fill="#455A64"/>
<path d="M419.679 585.47C419.696 585.163 419.753 584.86 419.847 584.567L420.49 582.043L422.968 572.786L431.46 542.324C433.189 536.372 434.657 530.711 436.325 525.57C438.086 521.103 440.747 517.046 444.143 513.652C446.385 511.352 448.868 509.3 451.549 507.532C452.513 506.92 453.262 506.461 453.798 506.185C454.055 506.022 454.326 505.884 454.609 505.772C454.609 505.772 453.568 506.476 451.732 507.776C449.14 509.627 446.732 511.723 444.541 514.034C441.265 517.415 438.705 521.422 437.014 525.815C435.484 530.879 433.954 536.617 432.225 542.538L423.519 572.924C422.387 576.733 421.454 579.839 420.78 582.104C420.459 583.114 420.214 583.94 420 584.582C419.933 584.891 419.825 585.19 419.679 585.47Z" fill="#455A64"/>
<path d="M381.505 507.761C381.276 507.761 380.373 499.713 379.47 489.738C378.568 479.762 377.94 471.653 378.246 471.638C378.552 471.623 379.363 479.686 380.266 489.661C381.169 499.637 381.719 507.746 381.505 507.761Z" fill="#455A64"/>
<path d="M309.657 529.38C309.534 529.38 308.876 528.141 307.515 526.228C305.757 523.741 303.649 521.52 301.257 519.634C298.846 517.772 296.183 516.263 293.347 515.151C291.159 514.294 289.736 513.973 289.767 513.835C291.054 513.895 292.325 514.159 293.53 514.616C299.514 516.588 304.625 520.58 307.989 525.907C308.732 526.965 309.295 528.139 309.657 529.38Z" fill="#455A64"/>
<path d="M336.095 500.004C336.095 500.126 334.198 498.964 331.031 497.51C322.721 493.735 313.504 492.419 304.47 493.716C301.028 494.205 298.931 494.817 298.901 494.68C299.346 494.428 299.825 494.243 300.324 494.129C301.653 493.718 303.008 493.39 304.378 493.15C313.516 491.546 322.927 492.897 331.245 497.005C332.492 497.621 333.698 498.316 334.856 499.086C335.31 499.333 335.727 499.642 336.095 500.004Z" fill="#455A64"/>
<path d="M439.462 520.445C439.094 520.426 438.729 520.365 438.376 520.261L435.316 519.603L424.147 517.14C414.706 515.029 401.64 512.183 387.151 509.322C372.662 506.461 359.504 504.089 349.972 502.452L338.666 500.509L335.606 499.973C335.244 499.931 334.89 499.844 334.55 499.713C334.913 499.723 335.276 499.754 335.636 499.805L338.696 500.203C341.374 500.57 345.244 501.151 350.033 501.901C359.596 503.431 372.785 505.665 387.289 508.541C401.793 511.418 414.829 514.34 424.254 516.589C428.951 517.721 432.76 518.67 435.377 519.359L438.437 520.154C438.787 520.22 439.13 520.317 439.462 520.445Z" fill="#455A64"/>
<path d="M352.481 502.529C352.328 502.529 352.007 500.723 350.584 498.153C349.752 496.669 348.722 495.306 347.524 494.098C346.013 492.61 344.408 491.22 342.72 489.937C339.609 487.638 336.319 485.592 332.882 483.817C331.428 483.125 330.027 482.327 328.69 481.43C330.23 481.917 331.72 482.547 333.142 483.312C336.693 484.958 340.066 486.962 343.21 489.294C344.921 490.6 346.537 492.026 348.044 493.563C349.273 494.835 350.305 496.284 351.104 497.862C351.654 498.929 352.07 500.059 352.344 501.228C352.47 501.649 352.516 502.09 352.481 502.529Z" fill="#455A64"/>
<path d="M505.313 523.26C505.482 523.444 503.187 525.754 501.396 529.288C499.606 532.823 499.025 536.005 498.795 535.959C498.79 533.486 499.445 531.056 500.693 528.921C501.707 526.66 503.301 524.707 505.313 523.26Z" fill="#263238"/>
<g opacity="0.3">
<path opacity="0.3" d="M407.102 366.496L416.925 435.683L417.414 436.784C419.718 412.866 416.179 388.745 407.102 366.496Z" fill="black"/>
</g>
<path d="M459.995 406.246L428.064 462.06L349.376 463.774L349.177 467.339L425.371 466.772L427.788 466.681L508.236 466.849L524.499 438.804L545.277 409.03C545.577 408.588 545.752 408.073 545.781 407.539C545.811 407.006 545.694 406.474 545.444 406.002C545.193 405.53 544.819 405.135 544.361 404.86C543.903 404.585 543.378 404.439 542.844 404.44L462.534 404.746C462.016 404.75 461.509 404.891 461.063 405.154C460.617 405.417 460.248 405.794 459.995 406.246Z" fill="#E0E0E0"/>
<path d="M524.499 438.85C524.499 438.85 528.63 442.644 527.988 445.857C527.345 449.07 527.544 451.472 524.499 451.687C524.556 452.862 524.159 454.015 523.39 454.906C522.621 455.797 521.539 456.359 520.368 456.475C520.368 456.475 521.301 461.524 515.426 462.397C515.426 462.397 513.621 467.798 509.918 466.482C507.784 465.756 505.733 464.807 503.798 463.651L502.712 461.693C502.712 461.693 497.25 459.643 498.596 456.567C499.423 454.701 502.238 454.211 502.238 454.211C501.914 453.444 501.777 452.612 501.838 451.782C501.899 450.952 502.157 450.148 502.59 449.437C503.89 447.678 508.143 449.131 508.143 449.131C508.055 447.625 508.536 446.14 509.49 444.97C511.02 443.241 517.721 447.907 517.721 447.907L521.409 443.501L524.499 438.85Z" fill="#FFBE9D"/>
<path d="M515.427 462.397C513.041 461.381 510.765 460.125 508.633 458.648C506.363 457.395 504.23 455.908 502.269 454.211C504.652 455.237 506.928 456.498 509.062 457.975C511.327 459.231 513.459 460.712 515.427 462.397Z" fill="#EB996E"/>
<path d="M520.368 456.476C518.149 455.603 516.035 454.484 514.065 453.14C511.96 452.025 509.984 450.68 508.174 449.131C510.397 449.996 512.512 451.116 514.478 452.467C516.583 453.582 518.558 454.927 520.368 456.476Z" fill="#EB996E"/>
<path d="M513.636 445.398C513.759 445.169 516.283 446.5 519.221 448.367C521.042 449.418 522.794 450.583 524.469 451.855C524.362 452.115 521.73 450.922 518.792 449.04C516.95 448.011 515.222 446.79 513.636 445.398Z" fill="#EB996E"/>
<path d="M545.277 406.582C545.15 406.603 545.021 406.603 544.894 406.582H543.762H539.417L523.443 406.705L470.735 406.827H466.895C466.329 406.773 465.759 406.873 465.245 407.115C464.731 407.357 464.291 407.733 463.972 408.204C462.748 410.387 461.555 412.539 460.392 414.661L453.599 426.901L442.078 447.601C438.804 453.446 436.126 458.189 434.244 461.54C433.342 463.07 432.607 464.386 432.087 465.304L431.506 466.267L431.292 466.589C431.292 466.589 431.291 466.451 431.429 466.222L431.949 465.212L433.984 461.387L441.634 447.326L453.017 426.533C455.159 422.632 457.424 418.532 459.749 414.293L463.345 407.791C463.737 407.209 464.276 406.741 464.908 406.435C465.539 406.128 466.241 405.994 466.94 406.047H470.781L523.489 406.154L539.463 406.292L543.808 406.368H544.94C545.063 406.42 545.177 406.493 545.277 406.582Z" fill="#263238"/>
<path d="M488.666 434.658C488.295 435.195 488.087 435.829 488.066 436.482C488.046 437.135 488.214 437.78 488.551 438.34C488.888 438.899 489.379 439.35 489.966 439.638C490.552 439.925 491.21 440.038 491.859 439.961C492.507 439.885 493.12 439.623 493.624 439.207C494.128 438.791 494.501 438.238 494.699 437.615C494.896 436.992 494.91 436.326 494.738 435.695C494.567 435.065 494.217 434.498 493.731 434.061C492.978 433.474 492.024 433.207 491.076 433.319C490.128 433.43 489.262 433.912 488.666 434.658Z" fill="white"/>
<g opacity="0.3">
<path opacity="0.3" d="M265.287 413.1C264.614 413.375 263.833 413.834 263.833 414.63C263.858 414.926 263.981 415.205 264.184 415.421C264.387 415.638 264.657 415.78 264.95 415.823C266.072 415.664 267.172 415.372 268.224 414.951C276.502 413.131 283.31 414.875 291.174 418.011L291.434 417.751C288.313 410.973 274.191 409.474 265.287 413.1Z" fill="black"/>
</g>
<path d="M691.56 723.69C691.56 723.904 553.171 724.088 382.5 724.088C211.828 724.088 73.4399 723.843 73.4399 723.69C73.4399 723.537 211.798 723.292 382.5 723.292C553.202 723.292 691.56 723.399 691.56 723.69Z" fill="#263238"/>
<path d="M222.493 235.941C222.753 236.201 273.564 218.744 273.564 218.744L253.98 173.915L208.799 191.25L233.677 205.54L222.493 235.941Z" fill="#455A64"/>
<path d="M246.33 187.41V126.378C246.33 126.378 316.419 113.557 366.925 114.322C417.43 115.087 469.435 123.364 469.435 123.364V181.963C469.435 181.963 311.141 167.826 246.33 187.41Z" fill="#455A64"/>
<path d="M245.963 187.471L273.503 219.004V181.963C273.503 181.963 250.476 184.717 245.963 187.471Z" fill="#263238"/>
<path d="M246.33 126.363C246.56 126.363 246.651 140.133 246.56 156.963C246.468 173.793 246.192 187.563 245.978 187.563C245.764 187.563 245.657 173.884 245.749 156.963C245.84 140.041 246.1 126.363 246.33 126.363Z" fill="#263238"/>
<path d="M493.15 231.26C492.889 231.52 442.078 214.062 442.078 214.062L461.616 169.218L506.843 186.522L481.95 200.813L493.15 231.26Z" fill="#455A64"/>
<path d="M469.71 182.789L442.17 214.322V179.959C451.404 180.275 460.605 181.22 469.71 182.789Z" fill="#263238"/>
<path d="M469.404 123.364C469.618 123.364 469.863 136.66 469.939 153.076C470.016 169.493 469.939 182.789 469.679 182.789C469.419 182.789 469.22 169.493 469.144 153.076C469.067 136.66 469.174 123.364 469.404 123.364Z" fill="#263238"/>
<path d="M285.85 153.138C285.706 151.381 286.082 149.62 286.933 148.076C287.784 146.532 289.071 145.273 290.634 144.456C292.197 143.64 293.965 143.302 295.719 143.486C297.472 143.669 299.132 144.366 300.492 145.488L298.35 148.058C297.774 147.532 297.088 147.14 296.342 146.909C295.596 146.679 294.808 146.617 294.036 146.727C292.664 146.918 291.424 147.645 290.589 148.75C289.755 149.855 289.393 151.246 289.583 152.618C289.774 153.989 290.502 155.229 291.606 156.064C292.711 156.899 294.102 157.261 295.474 157.07C296.252 156.968 296.996 156.692 297.653 156.263C298.31 155.834 298.862 155.262 299.268 154.591L301.961 156.473C300.963 157.925 299.56 159.049 297.926 159.707C296.292 160.364 294.5 160.525 292.775 160.169C291.051 159.813 289.469 158.956 288.229 157.705C286.989 156.454 286.146 154.866 285.804 153.138H285.85Z" fill="white"/>
<path d="M302.542 150.843C302.257 149.076 302.509 147.265 303.266 145.643C304.022 144.022 305.248 142.665 306.784 141.748C308.321 140.831 310.097 140.396 311.883 140.5C313.669 140.604 315.383 141.242 316.803 142.331C318.222 143.421 319.282 144.911 319.845 146.609C320.408 148.308 320.448 150.136 319.96 151.857C319.472 153.579 318.478 155.114 317.108 156.264C315.737 157.415 314.053 158.127 312.273 158.309C311.139 158.49 309.981 158.438 308.868 158.156C307.755 157.874 306.712 157.368 305.801 156.669C304.891 155.971 304.132 155.094 303.572 154.092C303.011 153.09 302.661 151.984 302.542 150.843ZM316.48 149.404C316.356 148.412 315.942 147.478 315.29 146.719C314.639 145.96 313.778 145.409 312.815 145.136C311.853 144.863 310.831 144.88 309.878 145.183C308.925 145.487 308.082 146.065 307.455 146.845C306.828 147.624 306.444 148.571 306.352 149.567C306.26 150.564 306.463 151.565 306.936 152.447C307.409 153.328 308.131 154.051 309.012 154.525C309.893 154.999 310.894 155.203 311.89 155.111C312.577 155.066 313.248 154.879 313.858 154.561C314.469 154.244 315.007 153.802 315.439 153.266C315.87 152.73 316.186 152.109 316.365 151.445C316.544 150.78 316.584 150.085 316.48 149.404Z" fill="white"/>
<path d="M338.604 155.938L337.947 146.176L333.678 154.53L331.995 154.637L326.716 147.11L327.344 156.657L323.809 156.886L322.83 140.622L325.89 140.423L332.622 150.139L337.962 139.658L341.022 139.46L342.123 155.708L338.604 155.938Z" fill="white"/>
<path d="M359.672 144.799C359.764 148.441 357.102 150.766 352.757 150.919L349.467 151.011L349.605 155.509L345.826 155.616L345.367 139.23L352.42 139.031C356.78 138.97 359.55 141.158 359.672 144.799ZM355.847 144.906C355.847 143.116 354.608 142.106 352.298 142.168L349.238 142.259L349.406 147.92L352.466 147.829C354.761 147.767 355.893 146.681 355.847 144.906Z" fill="white"/>
<path d="M362.61 138.878H366.374V152.097H374.544V155.157H362.61V138.878Z" fill="white"/>
<path d="M389.156 152.572V155.632L376.533 155.264L377.007 138.97L389.247 139.337L389.156 142.397L380.588 142.137L380.496 145.687L388.054 145.901L387.962 148.838L380.404 148.609L380.297 152.388L389.156 152.572Z" fill="white"/>
<path d="M396.132 142.749L390.93 142.443L391.114 139.383L405.282 140.24L405.098 143.3L399.896 142.978L399.1 156.182L395.337 155.953L396.132 142.749Z" fill="white"/>
<path d="M419.006 154.805L418.73 157.865L406.154 156.703L407.684 140.485L419.924 141.617L419.648 144.677L411.111 143.82L410.79 147.354L418.317 148.043L418.057 150.965L410.514 150.277L410.178 154.025L419.006 154.805Z" fill="white"/>
<path d="M423.718 141.969L431.047 142.948C436.326 143.652 439.523 147.308 438.881 152.128C438.238 156.947 434.168 159.778 428.89 159.013L421.561 158.034L423.718 141.969ZM429.119 155.999C429.785 156.106 430.466 156.078 431.121 155.918C431.776 155.757 432.392 155.467 432.933 155.064C433.475 154.662 433.929 154.155 434.271 153.573C434.613 152.992 434.835 152.348 434.924 151.679C435.013 151.011 434.967 150.331 434.789 149.681C434.611 149.03 434.305 148.422 433.888 147.892C433.471 147.362 432.951 146.92 432.361 146.594C431.771 146.268 431.121 146.064 430.45 145.993L427.038 145.534L425.707 155.54L429.119 155.999Z" fill="white"/>
<path d="M500.754 128.918L504.763 133.615L516.054 128.918L512.749 123.976L500.754 128.918Z" fill="#455A64"/>
<path d="M495.582 106.564C495.582 107.726 495.237 108.862 494.592 109.829C493.946 110.795 493.029 111.548 491.955 111.992C490.882 112.437 489.7 112.553 488.561 112.327C487.421 112.1 486.374 111.541 485.552 110.719C484.731 109.897 484.171 108.85 483.944 107.711C483.718 106.571 483.834 105.39 484.279 104.316C484.723 103.243 485.477 102.325 486.443 101.679C487.409 101.034 488.545 100.689 489.707 100.689C491.264 100.693 492.756 101.314 493.857 102.415C494.958 103.515 495.578 105.008 495.582 106.564Z" fill="#FF832A"/>
<path d="M363.972 194.203C363.969 194.785 363.793 195.353 363.466 195.835C363.139 196.317 362.677 196.691 362.137 196.91C361.597 197.129 361.005 197.182 360.435 197.063C359.865 196.944 359.343 196.659 358.935 196.243C358.528 195.827 358.253 195.299 358.147 194.726C358.04 194.154 358.105 193.563 358.335 193.028C358.565 192.493 358.949 192.038 359.437 191.722C359.926 191.405 360.498 191.241 361.08 191.25C361.854 191.262 362.592 191.579 363.133 192.132C363.675 192.685 363.976 193.429 363.972 194.203Z" fill="#FF832A"/>
<path d="M227.113 150.047C227.113 150.49 226.981 150.923 226.734 151.291C226.488 151.659 226.137 151.945 225.727 152.114C225.317 152.282 224.866 152.324 224.432 152.235C223.998 152.147 223.6 151.931 223.289 151.615C222.978 151.3 222.767 150.899 222.685 150.464C222.602 150.028 222.651 149.578 222.824 149.171C222.998 148.763 223.289 148.416 223.661 148.175C224.032 147.933 224.467 147.807 224.91 147.813C225.497 147.821 226.057 148.06 226.47 148.478C226.882 148.896 227.113 149.46 227.113 150.047Z" fill="#FF832A"/>
<path d="M218.821 125.46L225.4 125.858L228.521 112.914L222.37 113.174L218.821 125.46Z" fill="#455A64"/>
<path d="M424.453 228.781L426.671 234.993L439.799 232.789L437.152 227.236L424.453 228.781Z" fill="#FF832A"/>
<path d="M291.679 192.933L287.625 198.135L296.514 208.034L299.788 202.817L291.679 192.933Z" fill="#455A64"/>
<path d="M275.966 70.7319L291.496 86.5674L313.359 78.3054L314.232 83.7369L304.761 103.122L313.497 117.596L312.763 121.926L291.603 118.361L279.087 132.085L276.15 129.866L273.564 112.409L253.827 102.128L252.955 98.1342L272.83 92.7027L275.966 70.7319Z" fill="#FF832A"/>
<g opacity="0.3">
<path opacity="0.3" d="M275.966 70.7319L291.496 86.5674L313.359 78.3054L314.232 83.7369L304.761 103.122L313.497 117.596L312.763 121.926L291.603 118.361L279.087 132.085L276.15 129.866L273.564 112.409L253.827 102.128L252.955 98.1342L272.83 92.7027L275.966 70.7319Z" fill="black"/>
</g>
<path d="M275.966 66.2796L291.496 82.1304L313.359 78.3054L303.093 97.9812L313.497 117.596L291.603 113.924L276.15 129.866L272.891 107.911L252.955 98.1342L272.83 88.2504L275.966 66.2796Z" fill="#FF832A"/>
<path d="M436.999 70.7319L421.454 86.5674L399.59 78.3054L398.718 83.7369L408.189 103.122L399.453 117.596L400.187 121.926L421.347 118.361L433.862 132.085L436.8 129.866L439.386 112.409L459.123 102.128L459.995 98.1342L440.12 92.7027L436.999 70.7319Z" fill="#FF832A"/>
<g opacity="0.3">
<path opacity="0.3" d="M436.999 70.7319L421.454 86.5674L399.59 78.3054L398.718 83.7369L408.189 103.122L399.453 117.596L400.187 121.926L421.347 118.361L433.862 132.085L436.8 129.866L439.386 112.409L459.123 102.128L459.995 98.1342L440.12 92.7027L436.999 70.7319Z" fill="black"/>
</g>
<path d="M436.999 66.2796L421.454 82.1304L399.59 78.3054L409.857 97.9812L399.453 117.596L421.347 113.924L436.8 129.866L440.059 107.911L459.995 98.1342L440.12 88.2504L436.999 66.2796Z" fill="#FF832A"/>
<path d="M355.97 42.9318L368.899 68.1921L398.718 66.4326L397.708 73.3788L378.767 93.4371L383.893 114.413L381.368 119.417L356.903 107.008L336.417 119.003L333.678 115.163L337.166 92.871L317.001 72.8127L317.46 67.626L343.776 68.5593L355.97 42.9318Z" fill="#FF832A"/>
<g opacity="0.3">
<path opacity="0.3" d="M355.97 42.9318L368.899 68.1921L398.718 66.4326L397.708 73.3788L378.767 93.4371L383.893 114.413L381.368 119.417L356.903 107.008L336.417 119.003L333.678 115.163L337.166 92.871L317.001 72.8127L317.46 67.626L343.776 68.5593L355.97 42.9318Z" fill="black"/>
</g>
<path d="M357.653 37.5156L370.582 62.7606L398.718 66.4326L378.691 86.5368L383.893 114.413L358.602 101.592L333.678 115.163L338.069 87.1335L317.46 67.626L345.474 63.1278L357.653 37.5156Z" fill="#FF832A"/>
<path d="M409.168 264.124L430.772 266.511C438.065 256.185 448.957 248.961 461.307 246.257C473.656 243.554 486.57 245.567 497.511 251.902C508.451 258.236 516.627 268.433 520.431 280.489C524.236 292.545 523.393 305.588 518.07 317.054C512.747 328.521 503.327 337.581 491.663 342.456C479.999 347.331 466.933 347.666 455.034 343.397C443.135 339.128 433.262 330.563 427.357 319.385C421.452 308.207 419.941 295.224 423.122 282.989L409.168 264.124Z" fill="#FAFAFA"/>
<path d="M409.168 264.124C410.009 265.256 414.385 271.04 423.32 282.897H422.999C423.01 282.872 423.026 282.849 423.047 282.831C423.068 282.813 423.092 282.8 423.119 282.793C423.145 282.786 423.173 282.784 423.2 282.789C423.227 282.794 423.252 282.805 423.275 282.821C423.31 282.842 423.339 282.874 423.355 282.913C423.372 282.951 423.376 282.994 423.366 283.035C421.176 291.618 421.293 300.628 423.703 309.152C424.411 311.71 425.348 314.198 426.503 316.588C427.115 317.812 427.696 319.066 428.354 320.306L430.634 323.932C437.914 334.485 448.926 341.883 461.448 344.633C468.38 346.156 475.556 346.187 482.501 344.724C489.822 343.131 496.701 339.945 502.651 335.391C508.882 330.659 513.892 324.506 517.263 317.444C520.752 310.264 522.473 302.353 522.281 294.372C522.058 286.737 520.124 279.25 516.62 272.462C513.325 266.028 508.655 260.397 502.942 255.969C492.65 248.014 479.698 244.312 466.757 245.626C461.289 246.282 455.951 247.758 450.922 250.002C442.92 253.7 436.026 259.429 430.925 266.618C430.909 266.647 430.884 266.671 430.853 266.684C430.823 266.698 430.789 266.702 430.756 266.694L409.168 264.124L430.802 266.312L430.619 266.404C435.703 259.117 442.63 253.309 450.692 249.574C455.746 247.245 461.129 245.707 466.65 245.014C479.768 243.625 492.918 247.34 503.37 255.388C509.182 259.868 513.932 265.579 517.278 272.111C520.855 278.995 522.827 286.601 523.046 294.357C523.247 302.463 521.506 310.5 517.966 317.796C514.536 324.967 509.443 331.214 503.11 336.019C497.063 340.635 490.074 343.863 482.639 345.474C475.571 346.961 468.267 346.914 461.219 345.336C448.563 342.546 437.443 335.047 430.114 324.36L427.819 320.688C427.161 319.433 426.579 318.148 425.952 316.909C424.801 314.488 423.869 311.969 423.167 309.381C420.768 300.766 420.704 291.667 422.984 283.019L423.351 283.157C423.323 283.202 423.279 283.234 423.228 283.248C423.177 283.262 423.123 283.257 423.076 283.234L409.168 264.124Z" fill="#263238"/>
<path d="M453.492 277.603C453.509 277.837 453.509 278.073 453.492 278.307C453.492 278.812 453.492 279.454 453.492 280.265C453.492 282.04 453.492 284.504 453.584 287.625C453.584 293.974 453.691 302.925 453.767 313.635L453.415 313.283H489.416C489.508 313.191 488.667 314.032 489.018 313.665V308.769C489.018 307.163 489.018 305.556 489.018 303.965V294.647C489.018 288.619 489.018 282.912 489.018 277.664L489.355 278.016L463.345 277.833L455.986 277.756H454.027H453.324H453.951H455.848L463.116 277.664L489.324 277.496H489.676V277.833C489.676 283.081 489.676 288.788 489.676 294.816V313.65C490.044 313.298 489.202 314.155 489.279 314.063H453.278H452.926V313.65C452.926 302.848 453.048 293.836 453.094 287.441C453.094 284.381 453.094 281.903 453.186 280.158C453.186 279.378 453.186 278.751 453.186 278.261C453.258 278.029 453.361 277.808 453.492 277.603Z" fill="#263238"/>
<path d="M485.607 283.555C486.127 283.968 481.292 290.945 474.79 299.146C473.505 300.783 472.235 302.343 471.057 303.736L470.292 304.669L469.435 303.889C463.804 298.824 459.995 294.938 460.331 294.54C460.668 294.143 465.09 297.355 470.919 302.19L469.282 302.343C470.399 300.813 471.623 299.283 472.923 297.662C479.41 289.461 485.102 283.157 485.607 283.555Z" fill="#FF832A"/>
</svg>
